<?xml version="1.0" standalone="no"?>
<!DOCTYPE svg PUBLIC "-//W3C//DTD SVG 1.1//EN" "http://www.w3.org/Graphics/SVG/1.1/DTD/svg11.dtd" >
<svg xmlns="http://www.w3.org/2000/svg">
<metadata>
This is a custom SVG webfont generated by Font Squirrel.
Copyright   : COPYRIGHT ESSELTE LETRASET LTD 1990 
</metadata>
<defs>
<font id="webfontE1cIVf6w" horiz-adv-x="1754" >
<font-face units-per-em="2048" ascent="1638" descent="-410" />
<missing-glyph horiz-adv-x="341" />
<glyph unicode=" "  horiz-adv-x="341" />
<glyph unicode="&#x09;" horiz-adv-x="341" />
<glyph unicode="&#xa0;" horiz-adv-x="341" />
<glyph unicode="!" horiz-adv-x="579" d="M327 229q18 0 18 -22q0 -39 -25 -130q-6 -26 -13 -33q-7 -8 -41 -27q-65 -37 -85 -37q-17 0 -17 18q0 17 17 102q17 80 27 87q6 5 50 22q51 20 69 20zM538 1333q0 4 -2 -18q-2 -15 -21 -107l-32 -161q-3 -19 -11 -60l-12 -63q0 -5 -1.5 -12.5t-2.5 -14.5q-4 -18 -5 -27 q-1 -4 -2.5 -12.5t-3.5 -15.5l-38 -210l-32 -189q-7 -38 -11 -50q-4 -10 -19 -22q-19 -16 -63 -36q-34 -15 -40 -15q-8 0 -8 11q0 3 3 27q7 36 18 116q3 15 7.5 47.5t6.5 49.5l9 65l22 167l23 177q22 170 22 218q0 37 -6 52q-6 14 -21 22q-7 4 -7 9q0 12 57 34q93 37 148 37 q22 0 22 -19z" />
<glyph unicode="&#x22;" horiz-adv-x="521" d="M429 930q-10 0 -10 15l-2 33q-1 17 -1 96q0 60 3 82q1 21 10 31q7 8 27 16l29 10q14 4 19 6q6 2 8.5 3t3.5 1q14 6 23 6q15 0 15 -15q0 -18 -19 -85l-14 -51q-35 -122 -48 -134q-14 -14 -44 -14zM267 930q-10 0 -10 15l-2 33q-1 17 -1 96q0 60 3 82q1 21 10 31q7 8 27 16 l29 10q14 4 19 6q6 2 8.5 3t3.5 1q14 6 23 6q15 0 15 -15q0 -18 -19 -85l-14 -51q-35 -122 -48 -134q-14 -14 -44 -14z" />
<glyph unicode="#" horiz-adv-x="960" d="M637 645l4 24h-16q-31 0 -56 -5q-6 -2 -13 -2q-8 0 -8 8q0 17 39 53q37 34 74 54l5 26q15 74 27 105q10 29 31 55q18 22 62 55l61 46q-126 32 -234 32q-71 0 -128 -25q-58 -25 -93 -68t-35 -91q0 -69 68 -110q29 -17 45 -31q12 -10 12 -23q0 -12 -11 -39l-21 -46 q-22 -48 -33 -48q-8 0 -11 16q-3 27 -47 47q-45 20 -99 20q-48 0 -81 -24q-34 -25 -34 -60q0 -27 33 -50q33 -24 123 -56q71 -25 107 -44q34 -18 46 -37q11 -20 11 -54q0 -62 -43 -138t-109 -134q-53 -47 -116 -72q-64 -27 -122 -27q-61 0 -61 51q0 18 18 52q28 59 35 89 q5 20 14 20q14 0 14 -19q0 -37 31 -56q32 -21 79 -21q74 0 127 41q52 40 52 102q0 46 -32 72q-29 23 -127 56q-89 30 -117 55q-29 26 -29 74q0 69 64 154q35 47 72 75q38 27 87 42q-11 27 -11 51q0 63 53 140q52 76 143 138q118 83 239 83q43 0 136 -18q54 -12 77 -12 q19 0 41 9q8 3 13 3q11 0 11 -10t-50 -49q-51 -40 -82 -81q-29 -37 -50 -100q-22 -67 -40 -168q62 -6 113 -6q70 0 97 11l20 9q2 1 7 1q9 0 9 -8q0 -12 -56 -79q-18 -23 -41 -32q-21 -10 -59 -10q-3 0 -53 2l-41 4q-4 0 -6 1h-13l-3 -21q-39 -208 -61 -352q-15 -94 -15 -141 q0 -38 14 -55q13 -16 45 -16q30 0 64 8q25 7 29 7q13 0 13 -11q0 -7 -10 -13t-36 -15q-83 -28 -139 -43q-61 -18 -84 -18q-39 0 -39 53q0 25 6 59l19 115l29 161l26 147z" />
<glyph unicode="$" horiz-adv-x="954" d="M560 1273l3 17q-66 -6 -120 -32q-52 -27 -81 -68t-29 -92q0 -65 35 -115q34 -49 127 -116l6 38l21 124l6.5 39.5t3.5 22.5q5 26 9 57zM471 77l-4 -25h8q90 0 164 38t116 104q41 67 41 147q0 85 -43 144q-44 61 -171 155l-11 8l-5 -26l-20 -110l-25 -139l-25 -145zM348 67 l8 37l27 145l28 155l27 146l24 133l7 38l-22 15l-57 41q-33 25 -49 39q-14 12 -37 35q-19 19 -24 25q-52 67 -52 134t41 141q40 73 105 121q84 61 199 80l7 39l9 57q8 47 25 66q19 21 73 47q29 14 36 18q5 3 6 3.5t2 0.5q30 15 41 15q12 0 12 -12q0 -5 -8 -13 q-22 -19 -32 -52q-13 -38 -32 -135l-5 -26q94 -7 158 -44q62 -36 62 -83q0 -23 -42 -88l-30 -44q-14 -23 -25 -23q-16 0 -16 13q0 2 2 8q10 27 10 48q0 43 -37 80q-37 35 -98 52l-7 -38l-24 -124l-28 -145l-28 -149l-5 -28l39 -26q147 -101 206 -172q55 -68 55 -156 q0 -109 -60 -210q-61 -101 -162 -170q-101 -68 -222 -85l-5 -30q-17 -104 -24 -133q-7 -31 -23 -48q-28 -31 -92 -63q-36 -18 -49 -18t-13 10q0 3 8 16q21 29 32 64q12 43 29 132l9 47l4 21q-138 12 -227 83q-90 71 -90 166q0 77 75 159q41 45 54 45q11 0 11 -11 q0 -7 -7 -14q-33 -42 -33 -101q0 -82 62 -144q61 -61 172 -90z" />
<glyph unicode="%" horiz-adv-x="1235" d="M788 -3q-67 0 -110 49q-44 49 -44 124q0 66 39 151q39 84 104 156q33 36 68 63q31 25 47 25q13 0 13 -11q0 -5 -29 -29q-64 -52 -102 -128q-39 -75 -39 -147q0 -71 37 -111q36 -41 101 -41q59 0 112 38q52 37 86 100q33 62 33 130q0 57 -32 92q-33 35 -85 35 q-62 0 -93 -40q-7 -9 -15 -9q-11 0 -11 11q0 22 56 81q71 72 143 72q59 0 93 -40t34 -104q0 -84 -49 -185t-126 -178q-106 -104 -231 -104zM913 1275l16 38l-9 -7q-61 -45 -86 -60q-30 -18 -61 -25q-28 -6 -69 -6l-19 -1l3 -14q6 -37 6 -54q0 -52 -28 -127q-27 -74 -71 -139 q-58 -87 -135 -138q-77 -52 -151 -52q-68 0 -113 51q-46 50 -46 127q0 93 53 193q52 98 138 169q32 25 44 25q14 0 14 -11q0 -4 -8 -12q-56 -50 -95 -129q-40 -79 -40 -143q0 -76 40 -128q39 -53 99 -53q48 0 100 44q50 44 82 112q31 66 31 135q0 44 -15 75q-15 32 -42 48 q-29 17 -65 17q-45 0 -73 -22q-9 -6 -12 -6q-11 0 -11 11q0 15 70 85q35 33 66 42q32 9 125 9h41h73q120 0 166 25q15 10 26 25q10 14 33 65q23 44 34 58q11 16 27 20q14 6 59 18q30 8 36 8q16 0 16 -15q0 -5 -17 -37q-26 -46 -99 -191l-93 -188l-103 -210l-75 -157 l-103 -219l-122 -273l-115 -267q-37 -85 -53 -111q-19 -30 -47 -49q-20 -13 -65 -30q-34 -12 -41 -12q-10 0 -10 10q0 3 8 16q16 22 76 138l96 202l107 228l105 225l105 227l63 139l78 174l35 78t21 49z" />
<glyph unicode="&#x26;" horiz-adv-x="1561" d="M998 155q-83 65 -190 175q-60 60 -102 112q-43 52 -116 150q-61 81 -96 109q-37 26 -91 26q-76 0 -130 -61q-55 -61 -55 -148q0 -121 68 -228q68 -108 179 -172q110 -64 237 -64q87 0 158 25q73 24 138 76zM1037 126q-183 -150 -419 -150q-96 0 -182 26q-85 26 -152 78 q-80 62 -127 151q-48 89 -48 177q0 92 48 177q47 84 130 143q81 57 168 66q-32 55 -47 99q-14 42 -14 86q0 65 35 130q34 63 94 114q59 48 136 77q78 29 159 29q110 0 184 -56q72 -55 72 -142q0 -75 -77 -125q-52 -34 -85 -34q-22 0 -22 13q0 3 11 11q46 25 46 106 q0 75 -59 122q-58 46 -152 46q-64 0 -113 -28q-51 -29 -80 -77q-30 -49 -30 -107q0 -145 225 -432q185 -235 358 -366q42 62 64 123q20 62 20 125q0 68 -23 128q-24 58 -67 90q-43 33 -96 33q-36 0 -60 -10q-11 -4 -14 -4q-6 0 -6 8q0 24 58 48q59 24 116 24q98 0 154 -62 q54 -61 54 -175q0 -179 -156 -361q163 -119 277 -119q58 0 104 30q8 6 15 6q11 0 11 -11q0 -18 -75 -68q-116 -80 -176 -80q-35 0 -91 30q-55 30 -168 111z" />
<glyph unicode="'" horiz-adv-x="359" d="M267 930q-10 0 -10 15l-2 33q-1 17 -1 96q0 60 3 82q1 21 10 31q7 8 27 16l29 10q14 4 19 6q6 2 8.5 3t3.5 1q14 6 23 6q15 0 15 -15q0 -18 -19 -85l-14 -51q-35 -122 -48 -134q-14 -14 -44 -14z" />
<glyph unicode="(" horiz-adv-x="700" d="M942 1547q-1 -4 -9 -10q-39 -25 -117 -97q-218 -202 -340 -423q-136 -245 -136 -535q0 -121 28 -262q27 -146 67 -234q14 -30 38 -47q23 -18 44 -18q11 0 30 10q4 4 10 4q4 0 7 -3t3 -7q0 -5 -3 -8q-4 -4 -22 -15q-6 -4 -19 -12l-27 -17l-48 -31q-56 -35 -78 -35 q-25 0 -49 60q-30 80 -54 221q-25 138 -25 228q0 133 40 306q40 179 100 311q138 309 335 528q39 43 53 55q14 11 34 16q8 2 21 5l69 16q25 5 33 5q15 0 15 -11z" />
<glyph unicode=")" horiz-adv-x="700" d="M-95 -182q0 4 9 10q42 26 117 97q100 91 193 206q87 107 147 217q70 126 103 258q33 131 33 277q0 129 -28 270q-29 145 -67 226q-14 31 -35 47q-23 17 -47 17q-13 0 -30 -9q-7 -4 -10 -4q-10 0 -10 10q0 8 71 52l48 30q59 36 78 36q26 0 48 -61q28 -70 54 -211 q25 -137 25 -237q0 -91 -18 -201q-18 -111 -48 -216q-33 -109 -73 -201q-45 -101 -100 -197.5t-109.5 -173.5t-125.5 -156q-35 -41 -52 -54q-14 -11 -36 -17q-47 -13 -89 -21q-25 -5 -34 -5q-14 0 -14 11z" />
<glyph unicode="*" horiz-adv-x="600" d="M630 1177l-49 -62l-111 6l96 -108l-38 -61l-91 123l-27 -144l-61 -35l37 186l-158 -135l2 74l129 94l-182 -4l43 52l138 4l-84 105l39 49l91 -116l21 139l69 36l-43 -175l134 117l1 -70l-108 -87z" />
<glyph unicode="+" horiz-adv-x="1128" d="M808 811l-95 -108l-24 1l-94 1q-92 0 -157 -16q-66 -16 -125 -55q-60 -40 -85 -88q-26 -50 -26 -122q0 -170 120 -284q119 -115 299 -115q70 0 133 21t108 57q45 34 72 83q26 47 26 102q0 46 -21 86q-22 43 -55 67q-34 25 -74 25q-28 0 -62 -25q-10 -7 -16 -7 q-13 0 -13 12q0 21 39 52q31 25 71 42q39 15 71 15q67 0 115 -53q48 -52 48 -129q0 -83 -43 -160q-43 -79 -117 -139q-75 -61 -171 -96q-97 -36 -198 -36q-197 0 -331 115q-135 116 -135 281q0 118 86 225t234 171l66 29q14 6 22 10q-162 68 -162 215q0 86 65 172 q66 88 167 139q103 52 210 52q76 0 136 -28q62 -29 97 -77q35 -49 35 -106q0 -81 -74 -125q-19 -10 -57 -24q-39 -14 -53 -14q-11 0 -11 9t9 13l18 11q41 26 41 94q0 47 -26 87q-28 40 -75 62t-105 22q-73 0 -133 -29q-59 -28 -94 -78t-35 -108q0 -63 43 -115 q42 -54 116 -86q75 -32 157 -32q28 0 57 10l8 2q10 0 10 -11q0 -5 -6 -11q-4 -6 -6 -6z" />
<glyph unicode="," horiz-adv-x="359" d="M-31 -106q-16 0 -16 11q0 3 6 6q44 22 64 63q19 39 31 134q4 40 10 60q5 14 15 20q12 7 54 20q30 9 35 11q15 6 26 6q15 0 15 -15q0 -22 -20 -104q-14 -55 -31 -81t-65 -63q-37 -28 -70 -47q-38 -21 -54 -21z" />
<glyph unicode="-" horiz-adv-x="672" d="M268 386h-45q-98 -1 -118 -15l-7 -4q-4 -3 -7 -3q-9 0 -9 11t47 75q19 24 36 41q12 11 31 16q15 4 45 4q37 0 73 -1q27 -1 56 -1t44 -1h28q113 0 156 25q12 5 14 5q13 0 13 -12q0 -10 -19 -41q-21 -35 -42 -62q-16 -22 -30 -29q-16 -9 -40 -9q-21 0 -33 1h-118h-75z" />
<glyph unicode="." horiz-adv-x="359" d="M196 225q13 0 13 -12q0 -7 -3 -28l-5 -36l-5 -38q-6 -44 -11 -54q-6 -9 -36 -27l-29 -19l-8 -5q-17 -11 -22 -13q-23 -14 -34 -14q-15 0 -15 18q0 9 1 12l2 24q10 80 18 113q6 22 23 30l22 10l26 13l32 15q24 11 31 11z" />
<glyph unicode="/" horiz-adv-x="697" d="M813 1621q-3 -12 -18 -49q-53 -124 -157 -402l-91 -247q-49 -131 -85 -237l-88 -253l-84 -247l-76 -238q-29 -88 -40 -113q-13 -30 -30 -45q-15 -14 -61 -36l-26 -13q-24 -12 -30 -12t-6 8q0 3 7 16q29 49 93 226l42 117l88 249l86 244l85 247l81 236l77 225l50 148 q46 133 58 145q14 10 56 29q44 18 53 18q16 0 16 -16z" />
<glyph unicode="0" horiz-adv-x="1038" d="M228 432q0 -169 70 -255q69 -87 206 -87q165 0 266 158q66 104 109 256q42 149 42 280q0 204 -105 288q-71 56 -162 56q-54 0 -105 -19q-52 -19 -99 -57t-82 -91q-58 -85 -99 -239q-41 -155 -41 -290zM89 395q0 88 16 168q15 83 42 156q26 71 71 147q44 74 93 126 q62 69 144 127q79 56 162 88q80 30 148 30q86 0 153 -51q66 -51 103 -142q37 -90 37 -208q0 -103 -26 -215q-27 -112 -75 -212q-47 -99 -107 -172q-65 -74 -136 -124q-75 -53 -156 -82q-82 -29 -157 -29q-147 0 -230 102q-42 52 -62 125t-20 166z" />
<glyph unicode="1" horiz-adv-x="526" d="M327 951l5 33q-16 -9 -17 -10l-96 -61q-68 -43 -109 -63q-13 -7 -17 -7q-11 0 -11 15q0 48 28 57l22 7q29 8 102 54q74 45 123 84q48 37 86 79q36 39 48 60q7 16 18 16q7 0 12 -5t5 -12t-3 -18q-15 -45 -44 -177q-52 -223 -104 -517q-16 -87 -39 -245q-10 -73 -10 -97 q0 -30 15 -44q16 -14 50 -14q21 0 34 5q9 4 14 4q8 0 8 -12q0 -17 -66 -37q-73 -22 -128 -35q-63 -15 -75 -15q-23 0 -23 19q0 7 7 43l29 150l39 198l61 320q23 131 36 225z" />
<glyph unicode="2" horiz-adv-x="894" d="M116 179l27 9q145 47 236 99q90 52 178 141q109 112 168 236q58 122 58 242q0 116 -61 183t-167 67q-81 0 -154 -38q-72 -38 -116 -101q-44 -65 -44 -136q0 -57 36 -96q36 -40 93 -40q33 0 52 16q11 8 16 8q13 0 13 -14q0 -11 -12 -28q-27 -34 -69 -54q-43 -21 -88 -21 q-68 0 -110 47t-42 123q0 101 68 193q67 91 179 146q113 54 239 54q92 0 164 -33q71 -34 112 -96q40 -62 40 -143q0 -204 -187 -421t-468 -342q-17 -8 -17 -18q0 -16 28 -17q17 0 24 -1l108 -6q-1 0 84 -3q77 -4 149 -4q68 0 110 18q43 18 77 60l14 16q7 7 11 7q6 0 10 -4 t4 -10q0 -28 -53 -119q-33 -57 -66 -81t-80 -24q-28 0 -61 3l-106 8l-134 10q-151 12 -211 12q-82 0 -116 -34q-6 -6 -12 -6q-13 0 -13 11q0 14 38 92q30 57 51 89z" />
<glyph unicode="3" horiz-adv-x="822" d="M548 695q114 -12 176 -79q63 -67 63 -175q0 -114 -72 -219q-72 -106 -191 -171t-243 -65q-112 0 -189 54q-78 53 -78 129q0 51 55 139q39 62 58 62q6 0 10 -4t4 -8q0 -7 -6 -16l-8 -12q-14 -25 -14 -64q0 -83 75 -140t181 -57q86 0 163 41q73 39 121 109q46 67 46 145 q0 67 -35 117q-34 49 -99 76q-64 27 -152 27q-108 0 -140 -29l-8 -9q-7 -7 -15 -7q-15 0 -15 14q0 8 10 27l58 107l19 3q90 15 154 34q53 16 103 47q62 41 96 97q34 55 34 119q0 76 -55 124q-56 47 -143 47q-90 0 -162 -51q-72 -52 -72 -115q0 -37 22 -62q21 -26 52 -26 q16 0 26 10q7 5 12 5q11 0 11 -11q0 -29 -47 -56q-46 -27 -98 -27q-50 0 -79 26t-29 71q0 55 36 109q35 53 94 94q57 39 137 64q77 24 155 24t141 -24q62 -24 96 -69q33 -45 33 -102q0 -58 -37 -119t-105 -114q-55 -43 -149 -90z" />
<glyph unicode="4" horiz-adv-x="1067" d="M705 274l-19 1q-11 -85 -11 -112q0 -71 54 -71q15 0 27 4l13 3q2 1 8 1q14 0 14 -13q0 -19 -54 -37q-162 -56 -196 -56q-31 0 -31 29q0 16 15 107l11 59l11 66l5 28l-24 1q-37 3 -111 6l-93 5q-103 6 -148 6q-115 0 -143 -28l-10 -10q-5 -5 -9 -5q-14 0 -14 18 q0 22 45 86q37 51 48 68q40 10 78 47q39 36 86 105q41 59 70 124q30 67 47 143q16 70 16 132t-28 96t-79 34q-20 0 -38 -7q-10 -2 -9 -2q-9 0 -9 9q0 11 55 36l45 20l53 24q36 14 60 14q84 0 84 -137q0 -98 -45 -217q-47 -120 -125 -233q-77 -112 -181 -205q55 11 123 11 q73 0 164 -7l90 -6l26 -2l4 25l21 120l20 131l19 114q20 119 27 144q8 26 32 44q34 26 80 51q48 27 60 27t12 -11q0 -5 -9 -16q-28 -34 -60 -205l-26 -136q-45 -248 -48 -268l-4 -26l16 -2q119 -6 149 -6q65 0 104 17q36 16 67 61q9 13 15 13q12 0 12 -12q0 -11 -18 -49 q-19 -37 -42 -69q-34 -47 -78 -67q-42 -19 -124 -19q-43 0 -100 4z" />
<glyph unicode="5" horiz-adv-x="837" d="M378 802q101 45 179 45q76 0 134 -36q60 -38 92 -104q33 -67 33 -152q0 -108 -45 -210q-45 -103 -126 -183q-82 -81 -184 -125q-102 -46 -212 -46q-70 0 -127 23q-58 23 -89 63q-33 39 -33 85q0 75 74 182q26 35 39 35q7 0 7 -9q0 -1 -0.5 -3t-1.5 -5q-21 -46 -21 -80 q0 -60 31 -106q30 -46 84 -72q55 -26 124 -26q106 0 195 52q91 52 143 139q52 88 52 191q0 116 -70 192q-70 75 -180 75q-67 0 -136 -31q-71 -31 -109 -75q-9 -12 -13 -12q-7 0 -7 9q0 -2 2 12l21 95q23 103 42 220q9 59 12 110q53 30 117 80q58 44 94 88h28l110 -1 q24 -1 105 -1q74 0 108 7q36 8 66 27q9 6 15 6q12 0 12 -12q0 -10 -35 -57q-33 -45 -59 -68q-25 -24 -54 -33q-28 -9 -74 -9q-55 0 -72 1l-93 4l-93 4l-29 1l-5 -21q-38 -174 -51 -269z" />
<glyph unicode="6" horiz-adv-x="971" d="M232 383q0 -129 71 -209t184 -80q95 0 176 57t129 156q48 98 48 211q0 82 -36 149q-35 65 -98 107q-61 39 -133 39q-91 0 -171 -57q-79 -56 -124 -156q-46 -98 -46 -217zM287 717q165 181 361 181q89 0 159 -39q72 -40 110 -109q39 -70 39 -159q0 -101 -47 -207 q-46 -105 -128 -193q-81 -87 -179 -137q-97 -51 -195 -51q-71 0 -128 26q-56 25 -99 77q-42 50 -63 120q-21 69 -21 152q0 108 27 214q26 108 78 211q54 106 119 183t138 129q71 52 154 79q81 27 165 27q100 0 164 -43t64 -111q0 -39 -32 -117q-16 -42 -30 -42q-15 0 -15 15 q0 6 1 8v11q0 88 -68 147q-68 58 -171 58q-78 0 -142 -37q-65 -38 -123 -115q-91 -126 -138 -278z" />
<glyph unicode="7" horiz-adv-x="768" d="M747 1061l18 18q-66 -7 -182 -7q-73 0 -102 1q-78 2 -76 2q-92 0 -152 -26t-79 -78l-4 -12q-6 -16 -19 -16q-14 0 -14 15q0 11 27 80q35 86 66 153l8 18l28 1q81 7 177 7q53 0 129 -3q135 -4 179 -4q151 0 185 42q7 10 15 10q9 0 9 -9q0 -8 -18 -85q-15 -63 -22 -75 q-7 -15 -27 -24q-128 -55 -232 -178q-84 -102 -118 -238q-17 -68 -33 -151q-6 -29 -11 -56.5t-8 -42.5l-4 -22t-3 -18q-2 -10 -6 -26l-25 -138q-11 -61 -11 -59q-3 -13 -12 -58l-5 -25l-23 -12l-118 -65q-37 -20 -44 -20q-5 0 -5 6q0 4 2 8q9 16 25 68l47 174q56 208 94 317 q30 85 85 186q48 88 112.5 173t146.5 169z" />
<glyph unicode="8" horiz-adv-x="873" d="M526 690q130 43 199 111q68 68 68 152q0 55 -32 105q-31 50 -87 78q-55 28 -123 28q-71 0 -136 -28t-106 -77q-40 -47 -40 -101q0 -97 124 -185q56 -39 133 -83zM427 595l-27 -12q-56 -24 -88 -42q-29 -15 -52 -35q-47 -38 -71 -87q-25 -49 -25 -102q0 -105 90 -180 q89 -76 216 -76q75 0 136 31q63 32 98 85q35 55 35 117q0 74 -66 138q-66 63 -246 163zM350 616l21 9l-19 11q-70 41 -111 78q-43 38 -60 74q-19 35 -19 83q0 89 62 172t163 132q102 50 212 50q86 0 158 -29q69 -29 110 -84q40 -55 40 -123q0 -65 -37 -126 q-38 -62 -108 -113q-59 -44 -176 -92l25 -14q88 -48 141 -92q50 -44 72 -89t22 -106q0 -73 -36 -139t-102 -120q-67 -55 -148 -85t-170 -30q-151 0 -246 79q-96 78 -96 200q0 54 25 111q23 57 69 107q32 38 82 70q47 30 126 66z" />
<glyph unicode="9" horiz-adv-x="967" d="M854 840q0 87 -31 152q-31 66 -90 102q-58 36 -133 36q-95 0 -176 -57q-82 -58 -130 -156q-48 -97 -48 -211q0 -123 79 -208q78 -87 189 -87q70 0 134 34q63 33 109 91t71 136q26 81 26 168zM800 507q-165 -181 -361 -181q-133 0 -221 86q-87 86 -87 221q0 103 48 209 q47 107 128 193q78 84 178 136q98 50 194 50q95 0 165 -46q72 -48 109 -130q38 -87 38 -199q0 -157 -59 -319q-58 -161 -165 -289q-91 -110 -212 -173q-119 -62 -245 -62q-98 0 -163 44t-65 110q0 39 32 117q17 42 30 42q14 0 14 -15v-8v-11q0 -87 68 -146t170 -59 q80 0 144 37t121 115q92 126 139 278z" />
<glyph unicode=":" horiz-adv-x="359" d="M223 225q13 0 13 -12q0 -7 -3 -28l-5 -36l-6 -38q-4 -25 -8 -45q-1 -7 -7 -13q-4 -4 -31 -23l-29 -19q-6 -3 -30 -18q-25 -14 -34 -14q-15 0 -15 18v12l3 24q7 72 17 113q6 23 24 30l21 10l27 13l32 15q24 11 31 11zM306 780q13 0 13 -12q0 -7 -3 -28l-5 -36l-5 -38 q-4 -25 -8 -45q-2 -9 -15 -19q-16 -12 -24 -17l-29 -19l-8 -5l-22 -13q-25 -14 -34 -14q-15 0 -15 19q0 8 1 11l2 24q12 92 18 113q4 22 23 30l22 10l26 13l32 15q24 11 31 11z" />
<glyph unicode=";" horiz-adv-x="359" d="M275 780q13 0 13 -12q0 -7 -3 -28l-5 -36l-5 -38q-6 -44 -10 -50q-4 -7 -37 -31l-29 -19l-8 -5l-22 -13q-25 -14 -34 -14q-15 0 -15 19v11l3 24q7 72 17 113q5 21 24 30l21 10l27 13l32 15q24 11 31 11zM-31 -106q-16 0 -16 11q0 3 6 6q44 22 64 63q19 39 31 134 q4 40 10 60q5 14 15 20q12 7 54 20q30 9 35 11q15 6 26 6q15 0 15 -15q0 -22 -20 -104q-14 -55 -31 -81t-65 -63q-37 -28 -70 -47q-38 -21 -54 -21z" />
<glyph unicode="&#x3c;" horiz-adv-x="741" d="M296 657l-5 -37l-27 -183q-1 -6 -5 -34l-10.5 -75l-12.5 -88q-5 -42 -14 -104.5t-15 -90.5q-10 -59 -21 -93q-13 -47 -47 -101q-33 -54 -80 -104t-104 -92q-151 -112 -331 -112q-70 0 -120 26t-50 63q0 25 61 113q30 42 39 42t9 -9q0 -3 -4 -14q-2 -8 -2 -17 q0 -44 65 -82t142 -38q59 0 124 33q63 31 102 82q32 41 55 114q22 74 41 210l29 199l30 196l25 172l4 25h-41q-44 0 -55 -8q-12 -9 -19 -9q-11 0 -11 9q0 6 9 16l13 13q42 44 66 60q21 15 53 20q13 58 37 116q24 62 60 117q40 61 85 112q51 57 120 107q74 52 140 80 q70 29 118 29q29 0 43 -13q15 -13 15 -34q0 -18 -33 -65l-26 -39q-27 -41 -33 -47q-5 -5 -13 -5q-9 0 -9 10q0 4 1 5l2 3q2 8 2 13q0 25 -23 43q-25 17 -63 17q-57 0 -113 -36q-57 -36 -95 -98q-59 -90 -91 -304l25 -1q55 -4 106 -4q83 0 173 15q15 3 27 3q35 0 35 -41 q0 -30 -34 -199l-24 -122q-36 -177 -36 -246q0 -90 53 -90q17 0 55 20q13 7 19 7q12 0 12 -9q0 -12 -17 -21q-9 -6 -76 -35q-108 -45 -149 -45q-27 0 -39 13q-12 14 -12 40q0 21 30 184q41 222 54 309q12 87 12 140q0 15 -1 21q-33 -39 -49 -46q-18 -9 -76 -9q-18 0 -23 1 l-61 1q-13 0 -21 1z" />
<glyph unicode="=" horiz-adv-x="534" d="M804 1548q16 0 16 -15q0 -5 -17 -37l-107 -210l-133 -265l-127 -265l-101 -218l-96 -213l-88 -196l-59 -137q-34 -83 -53 -114t-46 -47q-22 -13 -65 -30q-32 -12 -41 -12q-10 0 -10 10q0 3 8 16q6 9 33 56q41 77 139 284l108 228l104 224l105 228q0 1 11 24q4 8 6 13 t8.5 18.5t11.5 25.5q13 30 17 38.5t5 11.5l20 43l19 44l100 221l56 124l20 46q26 53 38 65q14 13 54 23l28 8q30 8 36 8z" />
<glyph unicode="&#x3e;" horiz-adv-x="744" d="M321 782h29q21 -1 66 -1l83 1q36 0 46 10q9 11 18 57q15 73 31 121q18 53 45 99q25 42 72 104q-48 20 -117 20q-74 0 -118 -25q-46 -25 -76 -78q-27 -50 -53 -169q-20 -91 -26 -139zM171 640l4 28h-23q-74 0 -91 -9q-2 -2 -6 -2v0.5t-1 0.5t-2 1t-1 4q0 6 20 29 q38 41 110 89q4 4 7 6q3 1 9 5l5 22q23 93 62 169q37 71 91 131q83 90 185 145q101 55 181 55q50 0 85 -31q56 63 161 115q104 51 176 51q23 0 37 -10q14 -11 14 -28q0 -20 -30 -76q-51 -98 -66 -98q-9 0 -9 11v3l3 11q2 10 2 11q0 28 -24 47q-25 19 -61 19q-50 0 -101 -27 q-52 -27 -94 -79q-60 -72 -91 -212q-14 -54 -27 -130l-39 -228l-30 -185q-12 -76 -27 -182q-13 -82 -13 -124q0 -79 62 -79q16 0 50 12q12 4 16 4q13 0 13 -11q0 -7 -12 -15q-13 -7 -53 -22q-61 -24 -118 -42q-54 -17 -69 -17t-27 13q-12 14 -12 30q0 13 9 68l13 75 q8 55 12 77l29 183l10.5 70.5t7.5 51t6 38.5l20 131l5 33q-11 -11 -12 -14l-23 -30q-28 -37 -56 -49t-85 -12h-50l-20 1l-5 -31q-9 -60 -12 -87q-1 -13 -6 -42.5t-8 -45.5l-36 -248q-7 -50 -21 -109q-24 -108 -85 -204q-28 -45 -71 -95t-88 -90q-88 -77 -163 -111 q-78 -35 -160 -35q-66 0 -116 25q-51 25 -51 58q0 27 49 118q25 49 37 49q13 0 13 -11q0 -3 -2 -7l-4 -9q-5 -8 -5 -19q0 -37 48 -62q47 -26 120 -26q93 0 155 27q60 26 101 92q41 67 71 182q29 116 57 312l26 182z" />
<glyph unicode="?" horiz-adv-x="975" d="M836 1063q0 103 -55 158q-55 54 -160 54q-81 0 -146 -31q-66 -31 -106 -86q-39 -54 -39 -117q0 -38 20 -67q19 -28 48 -28q23 0 42 12q11 7 16 7q11 0 11 -11q0 -13 -51 -58q-64 -57 -113 -57q-41 0 -69 34q-29 34 -29 79q0 110 126 234q171 165 387 165q80 0 141 -30 q62 -30 96 -85q33 -55 33 -127q0 -77 -45 -152q-44 -74 -150 -173q-89 -82 -125 -124q-35 -41 -48 -82q-16 -52 -34 -155q-6 -42 -16 -52q-11 -12 -61 -33q-7 -3 -13 -5t-12 -5q-7 -3 -17 -8q-24 -11 -31 -11q-16 0 -16 15q0 2 8 39l5 17q22 80 34 107q13 31 43 68 q26 32 105 115q73 76 109 119q38 45 60 87q52 94 52 187zM386 -9q-18 0 -18 22q0 13 8 56q6 34 14 68l5 17q6 24 18 34q9 9 44 22l35 12q39 16 50 16q16 0 16 -16q0 -18 -20 -98q-5 -20 -10 -36q-8 -25 -15 -32q-8 -8 -25 -19q-68 -46 -102 -46z" />
<glyph unicode="@" horiz-adv-x="704" d="M223 146l-3 -24q47 -19 91 -19q67 0 110 31q42 29 71 93q28 60 44 144q16 83 16 164q0 158 -75 158q-38 0 -82 -38q-42 -36 -73 -97q-24 -43 -43 -106q-17 -53 -32 -135q-13 -75 -24 -171zM284 621l-5 -37q41 47 76 79q26 24 60 48q95 70 167 70q51 0 79 -45 q29 -46 29 -125q0 -113 -55 -236q-55 -124 -152 -225q-75 -77 -146 -120q-73 -45 -129 -45q-32 0 -85 9q-32 5 -35 5q-9 0 -23 -6q-13 -6 -16 -6q-8 0 -8 12t12 51q15 44 31 124q16 86 35 219l29 191l30 191q18 121 41 184q21 58 86 146q68 93 149 168q79 73 158 112 q80 39 144 39q67 0 67 -35q0 -20 -62 -123q-25 -43 -34 -43q-16 0 -16 14q0 1 1 3t1 5q2 10 2 11q0 17 -12 27q-13 11 -33 17q-22 6 -51 6q-121 0 -174 -86q-46 -76 -87 -225q-41 -152 -74 -374z" />
<glyph unicode="A" d="M1042 552l-11 -25q6 4 37 28q34 27 57 35q20 7 65 7h177q48 0 61 9q14 9 21 43l12 54q27 126 87 251q27 55 50 93q16 27 84 133l10 16h-8q-75 0 -155 -27q-76 -26 -146 -77q-46 -34 -86.5 -78.5t-75.5 -100.5q-50 -80 -125 -242zM1415 477h-323q-48 0 -74 -17t-58 -71 q-99 -177 -196 -271q-49 -46 -103 -78q-54 -34 -112 -52t-103 -18q-56 0 -97 32q-40 31 -40 78q0 56 63 116q41 39 62 39q10 0 10 -11q0 -8 -11 -17q-19 -16 -19 -38q0 -40 40 -67q41 -27 100 -27q127 0 233 132q44 54 85 141q38 84 94 251q55 166 84 232q28 62 72 121 q40 51 82 89q39 35 99 70q51 29 151 73q-85 6 -142 13q-56 6 -166 22q-103 14 -177 21q-69 7 -126 7q-257 0 -442 -128q-104 -74 -165 -190q-62 -118 -62 -236q0 -95 39 -172q38 -77 107 -121q70 -44 154 -44q74 0 132 31q56 29 92 83q34 52 34 118q0 64 -40 107t-99 43 q-22 0 -37 -9q-14 -8 -17 -8q-10 0 -10 11t30 35q64 50 129 50q59 0 99 -42q39 -43 39 -105q0 -97 -62 -192q-64 -96 -162 -154q-100 -59 -206 -59q-96 0 -170 45q-76 45 -116 126q-42 81 -42 184q0 131 80 271t231 264q85 71 169 116q89 48 178 71q92 23 178 23 q102 0 323 -32q317 -45 426 -45t149 22l10 5q5 3 9 3q9 0 9 -13q0 -12 -31 -47q-64 -76 -126 -236q-33 -88 -56 -169t-42 -179q-36 -187 -36 -346q0 -246 109 -246q32 0 57 9l16 5q1 1 6 1q13 0 13 -14q0 -11 -50 -35q-43 -22 -91 -37q-46 -15 -74 -15q-65 0 -96 67 q-31 65 -31 206q0 92 17 208z" />
<glyph unicode="B" horiz-adv-x="1581" d="M840 126q96 -14 155 -20t123 -6q87 0 142 18q53 16 92 55q35 36 55 86q19 45 19 98q0 97 -80 156t-213 59q20 0 -74 -2l-5 -29q-22 -128 -46 -197q-26 -74 -65 -123q-42 -53 -103 -95zM1065 619l54 58q24 2 16 2l41 1q116 5 181 65t65 162q0 137 -128 233q-55 42 -82 42 q-11 0 -22 -11q-9 -10 -23 -43q-26 -64 -44 -141q-18 -80 -38 -220q-13 -96 -14 -105q-1 -19 -6 -43zM1158 1202q-53 23 -113 33q-59 10 -150 10q-105 0 -211 -20q-105 -21 -192 -61q-91 -42 -153 -92q-55 -44 -99 -107q-42 -62 -67 -132q-24 -70 -24 -130q0 -168 114 -269 q47 -41 106 -65q57 -25 109 -25q66 0 127 32q60 32 94 84q35 53 35 112q0 44 -17 81q-16 35 -47 58q-30 21 -64 21q-15 0 -25 -7q-9 -6 -14 -6q-13 0 -13 12q0 13 35 33q74 41 121 41q48 0 79 -45q31 -46 31 -113q0 -65 -38 -135q-37 -68 -101 -126q-61 -55 -137 -91 q-76 -35 -147 -35q-66 0 -126 27q-59 27 -103 75q-44 49 -68 116q-25 66 -25 141q0 131 80 277t205 242q52 43 131 86q72 38 145 63q70 22 152 36q80 12 167 12q163 0 290 -45q129 -47 200 -127q72 -82 72 -182q0 -82 -54 -168q-52 -83 -149 -155q114 -39 163 -91t49 -136 q0 -83 -44 -166q-45 -82 -126 -147q-175 -136 -327 -136q-59 0 -193 17q-93 11 -130 11q-31 0 -54 -6l-13 -3q-14 -2 -16 -2q-9 0 -9 9q0 7 12 20q3 3 5 6t6 7l72 88q23 -3 39 -3q53 0 93 51q32 41 48 108q15 58 38 244l26 202q18 133 35 203q17 69 50 119q32 49 120 149z " />
<glyph unicode="C" horiz-adv-x="1123" d="M598 824q0 68 50 118q19 19 39 31q23 14 37 14q13 0 13 -11q0 -4 -4 -9l-9 -13q-22 -28 -22 -70q0 -53 48 -89t117 -36q50 0 93 27q41 25 66 73q24 47 24 102q0 53 -23 104q-24 49 -67 86q-84 72 -229 72q-156 0 -282 -75q-126 -77 -198 -208q-73 -131 -73 -295 q0 -134 52 -251q51 -119 140 -192q65 -50 142 -78t155 -28q163 0 271 117q11 11 18 11q10 0 10 -10q0 -32 -64 -87q-76 -70 -161 -105q-85 -36 -167 -36q-131 0 -245 75t-180 204q-67 127 -67 279q0 203 103 384q101 179 272 293q170 111 354 111q74 0 132 -21 q61 -23 102 -59q42 -36 67 -89q24 -51 24 -112q0 -76 -28 -142q-29 -69 -78 -121q-52 -55 -114 -83q-64 -30 -134 -30q-76 0 -129 43q-55 43 -55 106z" />
<glyph unicode="D" horiz-adv-x="1729" d="M863 141l-13 -14h28q114 -3 181 -3q102 0 158 10q57 10 107 36q82 45 139 117t87 169q30 96 30 210q0 297 -233 455q-85 57 -121 57q-14 0 -25 -11q-8 -8 -20 -32q-61 -121 -87 -357l-19 -182q-11 -108 -32 -177q-23 -76 -64 -137t-116 -141zM509 40l95 107l31 1l84 3 q67 3 103 20q34 16 55 63t36 138q13 89 33 286q13 134 34 226q20 87 57 154q39 70 103 143l21 25q-72 23 -138 33q-63 10 -147 10q-197 0 -362 -73q-166 -73 -261 -201t-95 -277q0 -160 122 -264q45 -38 102 -62q59 -24 106 -24q63 0 122 32q58 31 93 86q35 53 35 112 q0 67 -36 110t-92 43q-10 0 -19 -3l-11 -4q-6 -2 -10 -2q-12 0 -12 12q0 9 19 24q61 47 117 47q61 0 100 -43t39 -113q0 -88 -64 -176q-32 -44 -74.5 -82t-90.5 -66q-101 -59 -194 -59q-146 0 -240 103q-95 104 -95 259q0 70 22 142q23 74 66 147q44 75 102 137 q56 60 128 114q230 168 568 168q316 0 512 -157q108 -87 167 -206q58 -119 58 -258q0 -287 -256 -519q-72 -66 -153 -112q-75 -44 -163 -68q-81 -22 -177 -22q-47 0 -151 11q-97 13 -150 13q-83 0 -140 -20l-10 -2q-11 0 -11 11q0 7 13 21z" />
<glyph unicode="E" horiz-adv-x="1349" d="M513 588h-30q-16 0 -30 -6l-16 -9q-9 -3 -11 -3q-9 0 -9 12q0 10 19 28l39 36l37 32l4 4l7 7l3 21q18 130 22 154q7 37 22 87q31 101 85 174l48 63q1 2 6 7q4 6 7 11q-64 4 -119 4q-66 0 -128 -8q-61 -9 -104 -27q-47 -21 -83 -50q-126 -100 -126 -212q0 -62 41 -105 q40 -43 101 -43q28 0 47 15q8 6 12 6q13 0 13 -11t-37 -45q-63 -60 -117 -60q-55 0 -94 45q-39 44 -39 107q0 84 52 187q53 102 135 180q161 152 379 152q83 0 259 -22q151 -19 232 -19q109 0 144 35l13 14q7 7 13 7q10 0 10 -11t-16 -37q-18 -30 -34 -47q-44 -52 -71 -66 q-28 -16 -76 -16q-55 0 -150 9l-90 9q-43 4 -66 4q-48 0 -75 -59q-25 -61 -45 -167.5t-37 -265.5h39q64 0 87 -1q35 -2 100 -3h30q6 -1 20 -1q102 0 168 51q8 7 15 7q10 0 10 -8q0 -17 -46 -78q-27 -36 -53 -56q-24 -20 -55 -28q-30 -8 -76 -8h-254q-12 -100 -27 -159 q-15 -57 -41 -105t-66 -95q-42 -51 -88 -90l28 -1q86 -1 275 -13q201 -13 273 -13q210 0 283 70l17 16q6 6 11 6q11 0 11 -15t-26 -55q-23 -37 -68 -85q-40 -43 -72 -55q-30 -13 -100 -13q-93 0 -313 16l-180 14q-51 4 -146 10q-78 3 -147 3q-113 0 -169 -36q-13 -8 -17 -8 q-15 0 -15 14q0 11 43 55q8 8 11 12q3 3 6 6.5t4 5.5q7 7 11 12q33 38 48 45q14 8 49 11l58 5q50 5 83 21q32 15 55 50q21 33 37 95q16 70 25 151q12 105 15 129z" />
<glyph unicode="F" horiz-adv-x="1476" d="M957 570l2 18h-14q-63 0 -83 -13q-10 -5 -14 -5q-11 0 -11 11q0 44 135 135l2 21q12 122 39 208q24 82 76 149q49 64 143 143q-175 30 -309 30q-161 0 -277 -30q-118 -32 -224 -102q-247 -162 -247 -430q0 -92 43 -172q44 -83 116 -128q74 -48 156 -48q72 0 131 31 q60 32 94 84t34 115q0 43 -15 79q-17 37 -43 57q-28 20 -62 20q-21 0 -45 -12q-7 -4 -14 -4q-9 0 -9 8q0 14 29 38q62 48 117 48q58 0 98 -45q40 -44 40 -110t-42 -143t-115 -141q-56 -50 -130 -79q-72 -28 -148 -28q-97 0 -170 43q-76 44 -116 120q-42 77 -42 175 q0 93 34 189q35 99 97 189q63 91 145 163q266 232 568 232q81 0 256 -22q32 -3 49 -5t29 -3l47 -6q38 -5 64 -6l53 -6q113 -11 168 -11q82 0 105 29l7 9q8 11 17 11q11 0 11 -11t-17 -37q-18 -28 -45 -55q-41 -41 -79 -58q-39 -18 -84 -18q-38 0 -107 13q-75 12 -95 12 q-56 0 -109 -83q-21 -36 -37 -84q-14 -43 -28 -128q-13 -81 -27 -192l-3 -23l23 -1q83 -6 133 -6q163 0 203 34l15 12q8 5 13 5q9 0 9 -10q0 -34 -86 -114q-41 -37 -58 -43q-19 -9 -67 -9q-33 0 -101 3q-36 2 -51 3h-25q-14 0 -23 1l-3 -17q-17 -122 -39 -185 q-22 -62 -78 -136q-55 -73 -134 -134q-78 -60 -160 -91q-84 -32 -161 -32q-52 0 -81 24q-30 23 -30 62q0 26 17 62q17 35 41 62q32 36 55 36q11 0 11 -10q0 -7 -4 -11q-16 -28 -16 -44q0 -37 38 -60q38 -24 96 -24q138 0 227 119q41 56 61 127q17 68 31 235z" />
<glyph unicode="G" horiz-adv-x="1215" d="M989 466q-124 -109 -223 -167q-73 -42 -149 -64q-81 -23 -148 -23q-110 0 -198 55q-90 57 -139 151q-50 97 -50 215q0 236 205 459q232 253 512 253q99 0 178 -35q78 -36 121 -100t43 -149q0 -92 -52 -177q-54 -87 -137 -140q-85 -55 -173 -55q-50 0 -94 23t-70 61 t-26 80q0 53 59 106q55 49 72 49q13 0 13 -15q0 -8 -9 -22q-20 -34 -20 -62q0 -62 42 -103q41 -40 105 -40q84 0 141 61q56 62 56 153q0 54 -23 103q-22 47 -66 81q-43 33 -101 51t-130 18q-149 0 -274 -69q-126 -70 -196 -188q-72 -118 -72 -261q0 -116 51 -211 q50 -97 138 -152q89 -56 193 -56q139 0 263 111q53 47 120 134q26 34 92 129q99 145 161 145q11 0 11 -11q0 -9 -15 -24q-34 -37 -48 -87t-27 -170q-13 -119 -29 -181q-17 -61 -49 -116q-55 -94 -138 -170q-87 -79 -178 -121q-94 -45 -178 -45q-57 0 -90 30q-34 28 -34 79 q0 39 19 76q20 39 52 62q25 19 40 19q11 0 11 -9q0 -2 -5 -10q-10 -19 -10 -46q0 -45 34 -72q35 -27 90 -27q88 0 161 51q72 49 104 132q43 108 64 291z" />
<glyph unicode="H" horiz-adv-x="2271" d="M1927 703h23l7 23q27 97 67 192q38 90 86 167q51 80 115 153q80 92 194 154q115 62 202 62q42 0 64 -13t22 -37q0 -21 -24 -57q-71 -110 -93 -110q-9 0 -9 6q0 4 4 11q13 23 13 45q0 52 -93 52q-87 0 -163 -58q-75 -58 -130 -167q-49 -102 -96 -252q-49 -158 -73 -295 q-26 -148 -26 -250q0 -115 34 -179q35 -66 92 -66q16 0 36 11q12 6 18 6t10 -4t4 -9q0 -11 -32 -31q-44 -26 -88 -42t-80 -16q-58 0 -93 69q-36 69 -36 182q0 53 11 154q10 95 30 184q-17 -3 -53 -5q-77 -4 -248 -7l-131 -1q-38 -1 -55 -6q-18 -5 -29 -16q-11 -13 -37 -52 q-66 -105 -101 -152q-48 -65 -88 -106q-45 -48 -97 -88q-239 -187 -511 -187q-136 0 -252 57q-61 30 -103.5 67.5t-76.5 87.5q-66 98 -66 217q0 86 44 183q43 95 112 161q55 54 128 84q72 30 148 30q42 0 78 -15q35 -15 57 -41q20 -26 20 -60q0 -26 -17 -55q-20 -31 -49 -52 q-33 -24 -54 -24q-7 0 -7 8q0 1 2 7l5 7q11 14 11 41q0 53 -36 84q-35 31 -99 31q-67 0 -126 -42q-58 -42 -93 -114q-34 -72 -34 -158t41 -170q40 -82 115 -145q130 -112 340 -112q122 0 221 38q98 38 189 121q89 80 159 210q71 132 138 341q69 217 88 357l-22 4 q-184 28 -292 28q-65 0 -121 -18q-55 -18 -96 -51q-39 -32 -62 -79q-23 -48 -23 -99q0 -70 35 -116q35 -45 89 -45q37 0 57 17q10 8 15 8q11 0 11 -11q0 -16 -41 -60q-58 -61 -118 -61q-54 0 -93 52q-39 51 -39 122q0 84 40 165q38 80 110 152q69 68 153 109q83 39 165 39 q31 0 76 -6l78 -10q71 -9 140 -9q60 0 82 13l11 6q5 3 12 3q14 0 14 -11q0 -3 -3 -8l-7 -11q-17 -28 -35 -105q-46 -187 -76 -280q-37 -112 -79 -209l-8 -20q54 55 78 71q25 16 54 16h18q5 -1 16 -1h49q16 -1 55 -1l113 -2z" />
<glyph unicode="I" horiz-adv-x="812" d="M810 1190l15 17l-35 -1q2 0 -46 2l-73 4q-72 2 -79 2q-140 0 -217 -69q-80 -74 -80 -178q0 -71 39 -118q38 -48 95 -48q38 0 56 18q11 11 16 11q10 0 10 -12q0 -18 -25 -50q-52 -67 -116 -67q-67 0 -112 48q-46 47 -46 117q0 118 73 225q34 51 82 96t108 79 q116 67 243 67q19 0 121 -6q65 -5 86 -5q27 0 48 9q13 7 22 7q15 0 15 -11q0 -8 -24 -28q-37 -29 -76 -72q-37 -43 -63 -81q-39 -61 -58 -134q-21 -75 -39 -231l-19 -167q-17 -148 -58 -245q-43 -99 -126 -180q-82 -82 -198 -141t-194 -59q-50 0 -82 24q-32 23 -32 65 q0 28 16 57q18 33 50 69q35 38 44 38q6 0 10 -6q3 -3 3 -6q0 -5 -7 -13q-14 -23 -14 -44q0 -34 37 -59q35 -25 87 -25q72 0 139 39q68 39 102 99q22 37 34 72q11 32 23 93q9 50 22 155q17 140 36 258q16 97 34 152q19 56 51 107q32 48 102 126z" />
<glyph unicode="J" horiz-adv-x="1126" d="M1115 1170l17 19q-34 3 -114 13q-159 21 -247 21q-119 0 -215 -33q-97 -35 -183 -109q-92 -78 -138 -175q-47 -99 -47 -209q0 -97 39 -177q39 -79 108 -126q67 -46 150 -46q98 0 169 68q70 67 70 162q0 63 -33 106t-83 43q-32 0 -58 -15l-14 -9q-8 -2 -9 -2q-10 0 -10 13 q0 8 14 22q29 30 70 50q39 19 75 19q58 0 100 -46t42 -111q0 -88 -62 -177q-61 -88 -161 -144t-198 -56q-89 0 -161 45q-72 43 -113 123q-41 79 -41 174q0 145 85 290q86 146 233 253q81 59 166 101q81 39 165 57q83 18 175 18q130 0 262 -25q43 -8 64 -8q19 0 44 12l20 10 q17 7 21 7q10 0 10 -14t-30 -38q-74 -60 -110 -107q-36 -46 -56 -106t-44 -196q-18 -97 -38 -239q-18 -136 -29 -183q-13 -54 -44 -114q-34 -68 -90 -130q-58 -63 -126 -110q-69 -47 -144 -76q-74 -28 -139 -28q-53 0 -85 23t-32 60t65 123q18 26 27 33q10 8 19 8 q11 0 11 -11q0 -5 -6 -16q-13 -22 -13 -37q0 -42 36 -63q34 -22 98 -22q123 0 201 94q27 34 45 73q17 38 31 102q13 69 26 168q17 137 34 243q13 79 32 149q21 74 55 134q31 52 94 122z" />
<glyph unicode="K" d="M1148 595q-3 -6 -6.5 -12t-7.5 -12q-3 -6 -6.5 -12l-14.5 -25.5l-23 -42.5q-6 -12 -13 -23.5t-10 -18t-6 -11.5q-78 -143 -149 -225q-74 -87 -161 -140q-63 -39 -141 -65q-79 -27 -130 -27q-100 0 -100 74q0 56 63 131q33 39 45 39q13 0 13 -12q0 -1 -4 -8 q-14 -19 -14 -45q0 -37 33 -60q32 -23 87 -23q61 0 124 30q64 31 98 76q41 53 66 151q23 83 39 246l16 145q26 222 43 264q19 52 74 121l48 59q1 1 1.5 2t2.5 3q1 1 9 11q-192 48 -332 48q-131 0 -242 -39q-112 -41 -190 -116q-168 -162 -168 -379q0 -101 37 -176 q37 -78 102 -121q65 -45 145 -45q76 0 135 28q59 26 94 77q34 49 34 112q0 73 -40 123q-41 50 -98 50q-18 0 -32 -9l-10 -8q-4 -4 -10 -4q-7 0 -7 9q0 12 24 31q61 52 122 52q37 0 72 -20q34 -21 53 -57q19 -35 19 -80q0 -86 -65 -178q-64 -91 -166 -152q-101 -61 -200 -61 q-87 0 -161 47q-75 47 -116 128q-42 81 -42 180q0 87 35 180t101 177q69 89 154 155q129 102 284 160q66 25 121 35q56 10 137 10q77 0 198 -18q77 -12 114 -12q35 0 62 11q15 5 17 5q12 0 12 -10q0 -11 -19 -27l-34 -29q-117 -101 -152 -240q-13 -63 -33 -201 q-22 -171 -36 -308l-2 -23l12 24q75 144 145 250q75 113 144 186q73 79 172 129q98 48 185 48q45 0 71 -17q25 -18 25 -47q0 -30 -42 -83l-34 -41q-30 -36 -40 -36q-11 0 -11 10q0 3 4 7l5 5q8 13 8 23q0 53 -93 53q-173 0 -356 -257l9 -23l112 -310q54 -145 93 -221 q38 -73 75 -105q38 -33 81 -33q23 0 43 7q8 3 13 3q10 0 10 -8q0 -6 -7 -10q-11 -7 -30 -13l-61 -22q-69 -24 -114 -24q-29 0 -54 17q-25 16 -46 54q-22 38 -48 108l-48 128l-53 142q-50 130 -63 161z" />
<glyph unicode="L" horiz-adv-x="756" d="M259 105q98 -9 238 -55q203 -67 420 -167l55 -25.5l80 -36.5q219 -100 294 -100q43 0 87 29l7 5q5 3 8 3q11 0 11 -14q0 -13 -57 -52q-109 -75 -181 -75q-41 0 -81 13q-58 18 -116 45q-68 31 -188 94q-138 72 -262 128q-107 47 -198 74q-150 46 -236 46q-64 0 -118 -20 q-7 -3 -13 -3q-9 0 -9 10q0 13 37 59q2 2 6.5 8l10.5 14l12 16t12 17l16 21l18 2q65 6 113 18q49 13 77 31q30 18 57 51q30 39 48 112q19 78 38 242q8 74 20 165q7 56 12 80q2 7 4 20t4 21q24 114 54 182q30 65 86 126q65 71 146 122q80 51 171 78q92 26 182 26 q87 0 151 -26q63 -27 63 -63q0 -24 -55 -89q-49 -60 -62 -60q-3 0 -8 5q-4 4 -4 8t5 11q15 15 15 34q0 44 -64 81q-64 36 -145 36q-98 0 -178 -41q-81 -40 -128 -115q-42 -66 -68 -162q-27 -98 -59 -307q-25 -165 -31 -197q-10 -46 -24 -95q-64 -198 -273 -330z" />
<glyph unicode="M" horiz-adv-x="2359" d="M1575 419l7 -27q47 124 101 233q53 107 108 189q155 233 419 397q56 35 120 67q59 30 74 30q10 0 10 -7q0 -5 -10 -15q-37 -38 -77 -116q-44 -83 -86 -190q-47 -122 -81 -304q-35 -186 -35 -311q0 -94 15 -165q14 -72 39 -103q24 -30 71 -30q18 0 45 8q20 6 26 6 q18 0 18 -13q0 -14 -31 -27q-1 -1 -38 -15q-111 -43 -153 -43q-51 0 -83 57q-52 100 -52 262q0 123 29 265q29 141 81 278q53 137 120 249l35 57q2 4 6 8l7 14q-76 -28 -165 -96q-90 -68 -163 -152q-82 -94 -146 -227q-65 -133 -106 -285q-41 -154 -47 -284q-45 -59 -73 -92 q-42 -48 -59 -48q-14 0 -14 10q0 1 3 10q13 27 13 65q0 50 -21 141q-10 46 -40 155q-1 4 -16 59q-8 26 -19 67q-4 12 -22 75q-34 119 -44 175q-11 61 -11 119q0 141 76 293q-43 -37 -76 -97q-24 -47 -87 -235l-53 -156q-35 -107 -71 -196q-38 -89 -71 -146 q-73 -125 -146 -200q-77 -80 -163 -120q-87 -42 -175 -42q-65 0 -103 27q-38 26 -38 69q0 56 67 124q43 46 62 46q8 0 8 -7q0 -5 -7 -12q-26 -26 -26 -54q0 -36 37 -58q37 -23 95 -23q158 0 276 160q61 84 96 182q20 53 48 186q28 118 54 202q28 88 56 146q33 67 69 115 q36 47 88 93q-76 0 -201 16q-220 28 -333 28q-307 0 -465 -129q-172 -141 -172 -342q0 -95 42 -175q43 -81 113 -127q71 -47 155 -47q67 0 128 34q62 35 99 90q36 56 36 118q0 35 -17 72q-19 36 -46 56q-29 20 -60 20q-17 0 -31 -7q-8 -2 -9 -2q-10 0 -10 12t21 25 q77 51 132 51q49 0 80 -46q32 -47 32 -114q0 -71 -38 -139q-38 -69 -104 -124q-67 -58 -148 -89q-82 -33 -166 -33q-82 0 -152 43q-69 41 -110 117q-40 73 -40 165q0 142 76 279q38 68 91 128.5t121 111.5q114 87 235 134q124 47 236 47q75 0 260 -26l145 -21 q93 -11 147 -11q119 0 174 34q8 5 13 5q7 0 7 -7q0 -9 -21 -29l-38 -36q-99 -90 -99 -235q0 -53 24 -152q36 -139 84 -304q4 -13 23 -80q9 -31 15 -54z" />
<glyph unicode="N" horiz-adv-x="2278" d="M2003 396l8 -20l10 52q33 162 47 219q21 83 43 147q48 144 113 251q63 102 152 182q78 69 158 103q81 35 159 35q74 0 116 -30q42 -31 42 -84q0 -61 -59 -120q-29 -29 -46 -29q-14 0 -14 12q0 4 8 12q17 17 17 39q0 43 -38 70q-37 27 -100 27q-76 0 -155 -40t-142 -112 q-65 -74 -109 -190q-46 -121 -76 -293q-18 -99 -31 -204q-11 -89 -19 -203l-6 -96l-2 -19q-18 -26 -33 -44l-28 -33q-31 -37 -40 -37q-8 0 -8 9q0 7 1 9q5 18 5 44q0 82 -48 194q-28 66 -95 189l-147 258l-74 135q-19 36 -40 86q-18 44 -27 82q-7 24 -23 109l-6 -26 q-31 -136 -56 -226q-24 -87 -48 -153q-26 -74 -64.5 -155t-77.5 -142t-87 -118.5t-97 -100.5q-110 -100 -254 -158q-145 -59 -278 -59q-137 0 -251 57q-113 57 -181 156q-67 98 -67 219q0 52 17 112q16 55 49 114q33 58 70 98q41 43 89 72q44 27 100 43q53 15 106 15 q45 0 79 -15q34 -16 53 -43q19 -28 19 -63q0 -50 -62 -100q-43 -32 -57 -32q-11 0 -11 9q0 4 1 5l5 7q15 20 15 56q0 46 -35 76q-36 30 -90 30q-66 0 -128 -42q-60 -42 -98 -114q-37 -71 -37 -149q0 -121 67 -218q68 -100 182 -156q115 -58 253 -58q118 0 226 44 q103 42 194 133q89 89 151 209q60 116 116 295t111 429l6 26q-70 4 -147 11q-99 9 -136 9q-96 0 -173 -30q-75 -31 -119 -87t-44 -124q0 -65 39 -115q39 -49 92 -49q26 0 49 14l17 10q8 5 12 5q12 0 12 -12t-24 -41q-60 -75 -144 -75q-68 0 -104 45q-36 44 -36 124 q0 81 44 164t117 150q72 67 162 106q89 39 176 39q40 0 110 -7q113 -12 160 -12q58 0 94 9q15 5 20 5q10 0 10 -10q0 -7 -7 -14q-33 -36 -33 -93q0 -33 13 -66q11 -32 42 -89q31 -58 128 -226l83 -142q67 -115 88 -157q28 -54 56 -129z" />
<glyph unicode="O" horiz-adv-x="1215" d="M872 1131q-10 28 -37 42q-25 13 -74 13q-98 0 -206 -54q-109 -56 -187 -146q-81 -92 -127 -212q-46 -117 -46 -249q0 -217 133 -338q112 -103 262 -103q96 0 187 46q94 46 163 127q69 80 109 182q39 101 39 213t-38 199q-37 84 -106 133q-70 47 -159 47q-53 0 -104 -20 q-49 -21 -89 -59q-39 -38 -62 -86q-23 -49 -23 -101q0 -76 49 -128q50 -53 123 -53q29 0 47 8q17 8 32 27q8 8 13 8q14 0 14 -11q0 -19 -40 -59q-61 -64 -156 -64q-78 0 -128 50q-49 49 -49 128t37 157q38 80 102 144q62 62 150 107q84 43 171 52zM934 1127q79 -18 136 -69 q57 -52 88 -131q30 -79 30 -180q0 -141 -57 -276q-57 -136 -156 -246q-98 -110 -222 -175t-247 -65q-118 0 -215 58q-97 59 -153 159q-56 101 -56 223q0 148 72 308q70 158 187 291q116 132 257 210q142 80 272 80q56 0 88 -23q30 -24 30 -66q0 -48 -54 -98z" />
<glyph unicode="P" horiz-adv-x="1575" d="M1058 627l23 -2q102 -9 143 -9q129 0 195 60q42 37 65 97q24 62 24 124q0 76 -34 143q-35 68 -98 115q-65 48 -152 72q-41 -50 -62 -96q-19 -43 -39 -131q-23 -110 -35 -180q-15 -82 -30 -193zM903 495l3 20q-22 5 -31 5q-35 0 -56 -27q-8 -8 -11 -8q-8 0 -8 9 q0 24 35 68q26 33 82 50l5 28l17 119q30 195 72 283q23 48 50 82q33 40 90 97l18 19q-120 21 -233 21q-167 0 -305 -39q-139 -40 -237 -114q-99 -75 -150 -179q-52 -104 -52 -234q0 -151 81 -243q81 -91 215 -91q68 0 123 30q53 27 86 82q31 52 31 117q0 44 -15 78 q-16 34 -44 53q-28 18 -67 18q-19 0 -33 -8l-11 -7q-7 -4 -12 -4q-12 0 -12 12q0 14 28 39q49 46 112 46q48 0 82 -21q33 -20 53 -59q19 -38 19 -86q0 -132 -151 -265q-59 -53 -139 -84q-82 -32 -153 -32q-79 0 -150 48q-72 49 -112 131q-41 84 -41 179q0 91 31 175 q33 90 92 169q60 83 149 161q265 232 668 232q127 0 236 -26q105 -25 179 -74q74 -50 113 -117t39 -156q0 -66 -21 -140t-59 -136q-37 -61 -89 -105q-127 -109 -317 -109h-49h-17q-27 -120 -61 -186q-34 -68 -100 -134q-87 -90 -197 -142q-108 -51 -202 -51q-110 0 -110 82 q0 52 57 121q35 44 57 44q8 0 8 -9q0 -3 -3 -9q-17 -34 -17 -52q0 -36 36 -57q34 -22 90 -22q164 0 243 142q38 69 65 266z" />
<glyph unicode="Q" horiz-adv-x="1205" d="M719 1248q-75 0 -147 -23q-69 -22 -132 -68q-63 -48 -111 -113q-56 -77 -94 -202q-38 -126 -38 -237q0 -129 45 -228t128 -152t191 -53q75 0 141 22q65 22 124 63q55 39 106 104q65 83 105 215t40 259q0 132 -41 225q-41 90 -122 140q-79 48 -195 48zM584 71 q48 -13 100 -33l152 -59l223 -87l247 -96q176 -65 285 -90q110 -27 196 -27q121 0 168 47q20 21 28 21q4 0 8 -4t4 -9q0 -19 -67 -77q-62 -55 -120 -79t-130 -24t-136 13q-66 13 -165 48q-87 30 -238 92l-122 50l-110 45l-203 81l-158 57q-144 48 -209 48q-82 0 -113 -37 l-10 -13q-7 -7 -14 -7q-15 0 -15 14q0 13 42 52q42 40 125 85q-132 56 -201 171q-69 116 -69 280q0 159 61 306q59 147 165 263q103 113 241 180q137 66 280 66q109 0 191 -54q84 -55 128 -154q45 -100 45 -230q0 -121 -38 -244q-39 -120 -122 -249q-92 -143 -187 -216 q-99 -76 -262 -130z" />
<glyph unicode="R" horiz-adv-x="1554" d="M1159 1234q-34 -33 -55 -70q-22 -39 -35 -93q-36 -137 -57 -346q-1 -11 -3 -35q0 -6 -1.5 -15.5t-2.5 -17.5q-2 -20 -5 -46l-2 -20q5 7 9 11t9 11q16 20 23 27q4 4 13 4q6 0 36 -6q44 -10 82 -10q114 0 189 86t75 214q0 87 -30 150q-30 62 -90 101q-64 39 -155 55z M1112 1240q-94 13 -198 13q-214 0 -384 -66q-172 -68 -267 -185q-97 -118 -97 -263q0 -83 36 -169q37 -88 97 -142q79 -70 183 -70q72 0 127 28q55 27 87 77t32 113q0 65 -33 107q-35 41 -83 41q-14 0 -34 -9q-6 -3 -11 -3q-15 0 -15 14q0 8 21 23q56 41 117 41q57 0 94 -42 q38 -43 38 -101q0 -85 -63 -171q-33 -44 -73.5 -79.5t-86.5 -62.5q-97 -57 -190 -57q-143 0 -235 102q-92 103 -92 260q0 67 19 134q17 65 53 135q34 64 85 125q50 59 111 108q89 69 191 115q107 48 227 73q119 25 243 25q129 0 234 -28t173 -81q54 -42 85 -108t31 -140 q0 -144 -130 -292q-61 -70 -180 -146q36 -35 61 -85q20 -37 39 -81q14 -32 61 -157q63 -163 99 -234q36 -70 78 -109q57 -54 128 -54q37 0 70 15q9 4 14 4q12 0 12 -11q0 -9 -26 -23q-116 -62 -202 -62q-83 0 -136 78q-41 62 -82 154q-40 92 -90 237q-30 92 -53 149 q-23 54 -42 83t-53 62l-18 -2q-30 -3 -35 -3l-39 -4l-21 -1q-16 -103 -59 -185q-45 -83 -118 -155q-85 -85 -192 -138q-106 -54 -190 -54q-46 0 -75 25q-31 25 -31 59q0 50 64 126q35 42 47 42t12 -13q0 -4 -4 -11q-16 -22 -16 -45q0 -34 34 -58q35 -24 81 -24q84 0 157 48 t107 129q21 48 33 96q11 42 22 119l34 294q14 132 33 202q18 72 54 124q37 54 112 126l5 5l4 4l5 5z" />
<glyph unicode="S" horiz-adv-x="1180" d="M661 569q0 -54 -55 -106q-29 -28 -53 -28q-15 0 -15 13q0 4 6 16q9 17 9 33q0 48 -39 79q-39 30 -100 30q-77 0 -145 -44q-69 -45 -110 -119t-41 -159q0 -104 56 -187q57 -85 155 -130q100 -47 222 -47q127 0 239 58q110 56 178 155q67 97 67 205q0 70 -26 127 q-25 52 -89 109q-63 56 -183 129q-100 64 -146 98q-37 27 -63 59q-62 74 -62 153q0 53 34 120q36 70 89 123q70 70 160 105t187 35q121 0 192 -34q72 -34 72 -89q0 -46 -50 -123q-21 -32 -34 -32q-7 0 -7 10v22q0 65 -39 101q-31 31 -93 50q-61 19 -129 19q-61 0 -110 -16 q-51 -16 -90 -48q-38 -31 -60 -76q-22 -43 -22 -92q0 -44 19 -78q17 -34 62 -73q44 -37 132 -96l130 -84q116 -74 160 -143q44 -71 44 -176q0 -106 -44 -211q-45 -105 -130 -195q-184 -198 -455 -198q-129 0 -234 49q-106 49 -164 136q-59 86 -59 194q0 83 44 177 q44 93 118 164q67 64 148 97q80 33 167 33q69 0 113 -31q44 -32 44 -84z" />
<glyph unicode="T" horiz-adv-x="1243" d="M1197 1200q-36 -34 -61 -124q-36 -135 -84 -431l-33 -208l-30 -179l-14 -94q-3 -21 -3 -37q0 -19 14 -33t32 -14q14 0 40 8q6 2 11 2q13 0 13 -15q0 -12 -18 -20q-22 -9 -85 -26q-96 -24 -124 -28q-30 -5 -39 -5q-24 0 -24 21q0 11 6 29l11 35q14 44 36 144 q33 154 61.5 308.5t55.5 320.5q15 96 27 144q11 45 29 79q16 30 53 75l30 37q6 9 17 22q-134 20 -261 20q-186 0 -343 -71q-157 -72 -247 -195t-90 -271q0 -99 44 -182t120 -131q74 -49 163 -49q67 0 124 33q56 31 90 88q33 56 33 121t-33 108q-33 44 -78 44q-21 0 -35 -9 l-14 -9l-6 -2q-14 0 -14 13q0 12 22 28q64 55 125 55q54 0 93 -45q38 -47 38 -111q0 -70 -33 -139q-36 -71 -95 -122q-71 -62 -145 -90q-76 -29 -166 -29q-98 0 -172 41q-75 41 -115 114q-41 74 -41 167q0 95 40 199q39 106 111 203q69 94 176 182q111 94 225 136 q114 41 247 41q99 0 270 -18q282 -29 374 -29q58 0 103 20q8 3 13 3q11 0 11 -11q0 -14 -25 -43q-75 -93 -214 -93q-83 0 -216 22z" />
<glyph unicode="U" horiz-adv-x="1516" d="M1195 381l3 24l-22 -27l-13.5 -17l-14 -18l-16.5 -21q-67 -85 -111 -131t-107 -88q-145 -103 -281 -103q-87 0 -142 64q-57 63 -57 161q0 62 19 138q21 95 49 192l57 201q38 136 57 223q11 58 11 95q0 81 -41 128q-40 46 -114 46q-57 0 -118 -31q-65 -33 -115 -86 q-107 -113 -107 -259q0 -84 50 -137q49 -52 129 -52q36 0 66 15q16 8 21 8q11 0 11 -11q0 -17 -37 -48q-76 -70 -147 -70q-76 0 -130 63t-54 153q0 91 56 205q55 112 143 194q49 46 106 79q57 34 116 53q58 19 109 19q55 0 104 -26q47 -27 74 -74q27 -46 27 -103 q0 -49 -14 -105q-15 -67 -49 -186q-129 -456 -129 -582q0 -181 149 -181q95 0 190 73q95 71 169 198q66 115 115 296q40 153 77 322q23 103 36 151q4 3 8 4.5t7 3.5q5 3 11 6l60 25l54 22q19 9 20 9q5 3 8 3q7 0 7 -9q0 -2 -3 -10q-27 -50 -54 -148q-21 -78 -48 -215 q-27 -127 -43 -229q-11 -71 -23 -199q-10 -110 -10 -179q0 -71 18 -100q16 -28 63 -28q28 0 70 11q8 3 14 3q12 0 12 -10q0 -16 -62 -37q-117 -42 -189 -42q-75 0 -75 108q0 44 17 169q1 7 2 11.5t5 31.5q5 36 6 54z" />
<glyph unicode="V" horiz-adv-x="1842" d="M1238 140q83 45 171 138q44 48 70 80t55.5 74t49.5 76q74 123 114 249q39 125 39 236q0 109 -47 182q-48 71 -122 71q-19 0 -42 -12q-4 -3 -8 -3q-10 0 -10 10q0 5 12 14l34 24q61 43 121 43q82 0 138 -77t56 -189q0 -82 -31 -182q-32 -106 -88 -213q-60 -112 -136 -213 q-115 -153 -293 -306q-82 -70 -146 -114q-61 -43 -82 -43q-12 0 -12 11q0 3 4 6q28 22 28 73q0 40 -25 139q-7 33 -49 180q-2 10 -28 94l-40 128q-40 136 -49 189q-12 62 -12 125q0 84 21 144q21 59 75 127q-84 7 -168 7q-156 0 -256 -20q-99 -21 -168 -67 q-111 -73 -175 -179q-66 -106 -66 -214q0 -93 42 -170q41 -77 115 -121q74 -45 163 -45q137 0 209 99q49 67 49 134q0 58 -33 101q-34 42 -82 42q-23 0 -43 -12q-19 -10 -25 -10q-13 0 -13 14q0 17 28 33q72 48 151 48q33 0 59 -17q25 -18 39 -50q14 -33 14 -73 q0 -97 -67 -188q-68 -93 -175 -149q-109 -57 -221 -57q-127 0 -214 95t-87 234q0 123 68 250q68 126 186 231q117 104 261 165q143 61 283 61q64 0 140 -7q73 -5 88 -5q21 0 36 7q15 5 19 5q11 0 11 -10q0 -17 -41 -50q-67 -55 -91 -98q-27 -46 -27 -108q0 -65 19 -145 q18 -82 63 -226l51 -165q43 -136 63 -227q21 -94 27 -174z" />
<glyph unicode="W" horiz-adv-x="2262" d="M1596 683q193 265 193 496q0 79 -29 125q-29 44 -81 44q-78 0 -134 -78q-56 -79 -56 -189q0 -46 11 -109q10 -59 35 -132q19 -62 61 -157zM1769 115q127 126 203 249q148 244 148 457q0 162 -99 162q-23 0 -53 -10q-2 -1 -9 -1q-10 0 -10 12q0 17 40 38q88 41 139 41 q63 0 100 -51q37 -52 37 -140q0 -84 -44 -201q-42 -114 -124 -245q-76 -120 -164.5 -215t-191.5 -167l-46 -33q-25 -18 -38 -18q-14 0 -14 11q0 2 1 3v4q10 33 10 68q0 63 -37 174q-35 113 -85 223l-8 20l-14 -17q-146 -176 -319 -357q-94 -99 -118 -116q-16 -11 -29 -11 q-16 0 -16 10q0 4 5 11q28 34 28 98q0 52 -7 90q-5 30 -37 154l-44 176l-45 179q-31 131 -31 191q0 139 119 293q-117 9 -214 9q-146 0 -241 -26q-92 -25 -174 -89q-103 -79 -154 -170q-54 -94 -54 -195q0 -92 41 -171q40 -78 109 -125q68 -46 150 -46q67 0 128 32 q60 32 96 84q35 53 35 115q0 37 -16 68q-17 33 -43 50q-27 18 -57 18q-26 0 -42 -16q-11 -10 -17 -10q-9 0 -9 9q0 11 20 34q29 32 69 51q38 19 75 19q52 0 88 -43t36 -109q0 -68 -39 -139q-41 -72 -119 -138q-140 -119 -296 -119q-87 0 -158 41q-72 41 -109 117 q-39 75 -39 171q0 149 96 306q96 158 250 261q114 77 238 111q125 33 281 33q54 0 86 -2l68 -4q5 -1 24 -1q16 0 35 8q8 3 11 3q13 0 13 -11q0 -5 -8 -10q-168 -127 -168 -294q0 -78 45 -248l41 -159l30 -117q38 -154 46 -197q9 -51 11 -117l17 17q173 183 288 336l12 17 l-11 26q-29 64 -49 117t-31 91q-24 87 -24 177q0 69 16 126q17 62 49 115q34 57 85 114q122 135 227 135q69 0 109 -51q40 -50 40 -141q0 -86 -28 -174q-29 -93 -89 -200q-25 -45 -72 -118t-87 -127l-12 -17l9 -21q89 -204 110 -281q23 -85 29 -207z" />
<glyph unicode="X" horiz-adv-x="1759" d="M1145 564l18 28l-15 26l-74 128q-67 115 -93 176q-25 57 -25 104q0 51 15 88q12 33 58 98l13 18q-55 -6 -91 -6q4 0 -62 2q-73 3 -98 3q-125 0 -228 -31q-108 -32 -183 -91q-194 -155 -194 -376q0 -87 41 -163q40 -75 111 -119t153 -44q108 0 181 67q72 68 72 167 q0 52 -34 93q-35 41 -80 41q-22 0 -39 -11q-13 -9 -16 -9q-11 0 -11 11q0 13 32 40q58 49 124 49q56 0 91 -38q34 -38 34 -102q0 -72 -40 -143q-39 -72 -108 -131q-69 -58 -153 -93q-85 -35 -168 -35q-113 0 -184 67q-52 49 -80 118q-30 71 -30 142q0 69 21 142 q20 69 65 148q41 71 103 139q58 64 130 118q229 170 439 170q43 0 94 -3l92 -5q42 -2 50 -2q57 0 90 14q6 3 10 3q9 0 9 -12q0 -9 -20 -26q-41 -35 -66 -86q-26 -54 -26 -103q0 -59 42 -152q37 -90 118 -237l15 -27l16 25l80 123q106 160 159 226q61 78 134 143 q68 61 133 91q63 30 121 30q48 0 74 -25q26 -26 26 -70q0 -63 -70 -130q-22 -22 -32 -22q-11 0 -11 11q0 3 4 10q10 14 10 30q0 31 -22 49q-23 17 -63 17q-111 0 -228 -133q-46 -54 -79 -97.5t-78 -109.5l-67 -100l-39 -61l-12 -18l-12 -18l-15 -23l298 -524q21 -36 21 -64 q0 -34 -24 -57q-25 -22 -65 -22h-148q-27 0 -27 13q0 12 17 17q31 6 43 19q11 13 11 40q0 32 -25 97q-25 64 -69 151q-39 77 -116 205l-15 -23q-157 -235 -279 -351q-48 -45 -94 -78.5t-93 -57.5q-92 -47 -170 -47q-42 0 -69 21t-27 53q0 56 60 150q30 49 49 49q12 0 12 -13 q0 -6 -7 -21q-7 -10 -7 -27q0 -62 86 -62q115 0 239 106q124 104 267 323z" />
<glyph unicode="Y" horiz-adv-x="1315" d="M699 717q51 72 95 128t84 100q89 98 183 172q135 106 256 152q47 19 69 19q14 0 14 -10q0 -6 -21 -26q-65 -65 -97 -178q-27 -94 -56 -367q-17 -162 -35 -244q-16 -73 -53 -149q-45 -93 -112 -169q-66 -75 -153 -133q-87 -57 -183 -87q-97 -30 -191 -30t-147 36t-53 100 q0 88 95 165q31 25 42 25t11 -9q0 -6 -9 -15q-26 -26 -26 -75q0 -46 26 -81t73 -53q47 -19 109 -19q52 0 104 15q51 15 102 47q53 34 88 73q35 38 62 92q37 72 61 181q16 75 38 247l20 158q23 164 34 212q9 45 49 152q-92 -47 -204 -169q-87 -96 -150 -191 q-63 -96 -102 -194q-41 -99 -67 -212q-3 -15 -6 -21q-4 -6 -16 -13l-54 -33l-49 -30l-27 -16q-16 -10 -20 -10q-9 0 -9 10q0 6 6 22q38 124 71 321q31 187 31 304q0 142 -47 221q-47 77 -132 77q-65 0 -130 -47q-63 -47 -103 -125q-40 -77 -40 -161q0 -97 53 -162 q52 -64 134 -64q73 0 110 39q11 11 16 11q12 0 12 -12q0 -14 -30 -50q-91 -103 -182 -103q-82 0 -135 72q-53 71 -53 181q0 99 40 195q39 97 109 173q64 69 148 113q85 44 154 44q106 0 161 -81q56 -83 56 -237q0 -99 -24 -281z" />
<glyph unicode="Z" horiz-adv-x="1193" d="M320 157l-22 -20q109 -7 206 -26q148 -26 396 -94l219 -60q211 -57 352 -81q82 -14 142 -14q109 0 156 59q11 11 16 11q9 0 9 -11t-21 -41q-19 -28 -47 -58q-106 -112 -226 -112q-32 0 -94 15q-54 12 -199 56l-170 52q-181 54 -327 92q-89 23 -187 42q-28 5 -89.5 14.5 t-108.5 13.5q-93 10 -159 10q-79 0 -121 -16l-20 -8q-7 -3 -14 -3q-11 0 -11 9q0 10 14 32q6 10 11 17q2 4 6.5 11l11.5 18q31 51 45 68q11 13 27 14l22 3q70 11 131 42q62 32 108 79q57 57 101 133q39 70 109 233q14 34 57 128q35 80 60 119q29 46 50 72q35 47 78 84 q47 41 101 71l67 39q3 0 17 10q-168 28 -378 28q-241 0 -357 -62q-65 -36 -104 -95q-40 -59 -40 -125q0 -56 35 -94q35 -39 82 -39q30 0 58 23q7 7 14 7q10 0 10 -10q0 -13 -17 -38q-17 -24 -38 -44q-56 -50 -111 -50q-51 0 -83 39q-31 38 -31 104q0 92 48 189t135 176 q176 162 387 162q121 0 306 -25l152 -21q39 -4 63 -4t39 4q17 5 39 19q11 6 18 6q9 0 9 -9q0 -7 -20 -39q-35 -59 -43 -71q-14 -22 -21 -26q-6 -5 -26 -10q-56 -9 -112 -43q-58 -34 -98 -80q-55 -61 -123 -175l-139 -249q-61 -114 -105 -180q-41 -64 -95 -124 q-52 -57 -150 -147z" />
<glyph unicode="[" horiz-adv-x="700" d="M325 5l-4 -25h20h47h40q116 0 155 11l20 5q10 0 10 -8q0 -7 -8 -18l-14 -21l-16 -25q-25 -40 -36 -50q-13 -12 -34 -13l-18 -1h-31h-38h-60h-27q-79 0 -106 -1h-26q-20 0 -28 3q-7 1 -7 12q0 6 5 28q14 62 17 78q3 13 10 50l12.5 64.5t17.5 93.5l41 211l43 228l44 239 l41 220l37 192q3 16 20 101q8 42 13 72q4 28 8 40q1 8 4 11q2 2 9 2q12 0 17 -1q83 -6 241 -6q97 0 125 6l18 2q14 0 14 -11t-38 -76q-18 -32 -28 -40q-7 -6 -32 -6l-79 1h-73l-61 -2h-15l-7 -34q-42 -202 -75 -385q-23 -121 -62 -344l-51 -288q-4 -24 -6 -33.5t-3.5 -20.5 t-3.5 -19q-2 -13 -7.5 -46t-12.5 -70q-13 -76 -14 -80q-1 -5 -8 -46z" />
<glyph unicode="\" horiz-adv-x="697" d="M495 -175q0 -26 -6 -38q-7 -14 -27 -24l-30 -18q-25 -16 -31 -16q-10 0 -10 17v29q0 35 -14 205q-2 35 -19 189q-10 100 -16 150l-26 246q-3 24 -6 59q-3 19 -10 90q-35 304 -38 337l-29 243q-21 168 -28 248l-2 23q-1 5 -1 15q0 25 29 42q44 27 65 27q12 0 17 -8 q4 -11 5 -44q5 -117 21 -330q5 -52 9.5 -106.5t7 -79t6.5 -75.5q9 -102 21 -225q4 -44 10.5 -103t9.5 -97q19 -168 42 -346q6 -45 11.5 -90.5t14 -108.5t11.5 -90q13 -82 13 -121z" />
<glyph unicode="]" horiz-adv-x="700" d="M477 1359l4 25h-19h-47h-40q-121 0 -156 -11q-18 -5 -20 -5q-10 0 -10 8q0 7 8 18l14 21l16 25q27 41 40 54q11 9 30 9l18 1h31h38h60h27q79 0 106 1h26q22 0 30 -2q6 -3 6 -13q0 -4 -6 -28l-8 -34q-26 -115 -53 -252l-45 -244l-35 -195q-11 -62 -15 -89 q-4 -20 -5.5 -30.5t-4.5 -23.5q-13 -73 -18 -96l-42 -220l-36 -192l-34 -173q-5 -27 -10 -47q-1 -6 -11 -6q-12 0 -17 1q-82 6 -240 6q-98 0 -126 -6q-18 -2 -17 -2q-14 0 -14 11q0 15 37 76q17 29 28 40q7 6 32 6l79 -1q66 0 73 1l61 1h15l8 34q33 156 77 384l61 345 l49 288z" />
<glyph unicode="^" horiz-adv-x="833" d="M308 770q44 2 97 2q74 0 106 2q24 2 30 10q4 9 12 47q40 215 142 324q-49 30 -118 30q-67 0 -117 -31q-52 -31 -81 -91q-25 -48 -49 -170q-20 -111 -22 -123zM532 718l6 38l-13 -16q-40 -49 -60 -63t-52 -14l-50 1h-48q-18 0 -25 1l-3 -23l-24 -159l-24 -164 q-18 -122 -25 -161q-8 -45 -20 -89q-8 -32 -25 -73q-36 -87 -86 -146q46 -29 109 -29q77 0 123 37q48 39 76 119q23 66 56 243q37 206 62 361zM671 664l-19 1l-5 -30l-21 -120l-23 -135q-27 -163 -49 -235q-22 -75 -66 -144q-34 -57 -89 -115q-56 -58 -115 -98 q-59 -42 -118 -64q-57 -21 -111 -21q-38 0 -80 16l-24 -17q-103 -79 -171 -106q-71 -30 -146 -30t-120 22q-46 22 -46 59q0 19 16 50l54 103q7 16 21 16q10 0 10 -9q0 -1 -0.5 -4t-3.5 -12q-4 -12 -4 -23q0 -42 51 -70q50 -29 124 -29q97 0 168 53q72 54 109 152 q25 65 41 132q17 71 36 186q39 224 52 323l18 122l4 28h-26q-46 0 -71 -16l-14 -10q-4 -3 -9 -3q-10 0 -10 9q0 14 80 88q36 31 65 36q24 107 64 184q39 78 104 149q81 90 181 146q98 55 179 55q45 0 89 -28q72 74 159 117q87 42 169 42q59 0 59 -34q0 -27 -37 -88 q-46 -81 -60 -81q-10 0 -10 6q0 2 1 3v3l3 10q2 6 2 11q0 26 -25 41t-66 15q-65 0 -123 -38q-57 -38 -98 -112q-39 -73 -63 -189q-21 -101 -35 -187l-3 -23h23h88q75 0 109 19q7 4 11 4q8 0 8 -8q0 -21 -71 -89q-19 -17 -41 -26q-21 -8 -53 -8q-24 0 -33 1h-39z" />
<glyph unicode="_" horiz-adv-x="1024" d="M0 -396v123h1024v-123h-1024z" />
<glyph unicode="`" horiz-adv-x="427" d="M157 1091h92q23 0 33 -8q8 -8 8 -29q0 -13 -1 -18l-21 -144l-1 -9q-3 -15 -10 -15q-5 0 -14 15l-7 11l-83 153l-7 13q-9 17 -9 21q0 10 20 10z" />
<glyph unicode="a" horiz-adv-x="673" d="M464 649q-48 22 -94 22q-92 0 -130 -60q-42 -67 -67 -169q-27 -105 -27 -198q0 -79 16 -112q17 -35 52 -35q37 0 83 44q45 44 75 108q30 67 55 173q27 116 37 227zM394 187q-7 -7 -11 -10.5t-6 -4.5l-48 -45q-136 -129 -232 -129q-37 0 -56 46q-21 47 -21 123 q0 253 190 461q63 70 142 111t146 41q7 0 44 -5q30 -2 27 -2q20 0 48 12q6 3 11 3q4 0 7 -3t3 -6q0 -2 -3 -7q-26 -48 -51 -169q-15 -80 -42 -244q-21 -144 -21 -202q0 -38 20 -63q20 -24 50 -24q17 0 46 10q6 2 10 2t7 -3t3 -7q0 -11 -37 -24q-124 -51 -179 -51 q-56 0 -56 73q0 19 3 46q5 61 6 71z" />
<glyph unicode="b" horiz-adv-x="713" d="M228 133q41 -26 104 -26q92 0 141 72q39 57 64 160q23 103 23 208q0 73 -20 108q-21 33 -63 33q-37 0 -78 -39q-41 -41 -75 -110q-22 -45 -43 -115q-19 -64 -33 -140q-14 -82 -20 -151zM298 612l-4 -28l13 14q81 91 137 126q82 53 145 53q52 0 78 -41q25 -41 25 -131 q0 -242 -199 -454q-74 -79 -147 -118q-77 -41 -144 -41q-36 0 -84 13q-18 6 -26 6q-9 0 -16 -7q-14 -13 -25 -13q-10 0 -10 6q0 3 3 6q8 15 20 60q18 83 36 186q10 58 37 229l24 153l29 183q23 149 23 181q0 73 -52 73q-12 0 -38 -8q-15 -6 -24 -6q-18 0 -18 13q0 10 23 21 q17 8 95 35q131 45 161 45q21 0 21 -22q0 -20 -10 -73l-16 -93l-6.5 -40l-6.5 -40l-7 -42l-18 -122q-12 -68 -19 -124z" />
<glyph unicode="c" horiz-adv-x="589" d="M462 131q0 -13 -38 -39q-65 -42 -135 -70q-69 -27 -117 -27q-66 0 -105 59q-40 58 -40 157q0 222 174 409q69 75 150 120q80 45 147 45q39 0 63 -15q24 -16 24 -43q0 -21 -30 -62l-26 -36l-29 -37q-10 -16 -17 -16q-11 0 -11 11q0 5 1 6l4 10q4 7 4 16q0 25 -28 40 q-30 14 -78 14q-64 0 -113 -43t-76 -125q-28 -81 -28 -182q0 -120 37 -184q38 -65 107 -65q61 0 134 57q13 8 17 8q9 0 9 -8z" />
<glyph unicode="d" horiz-adv-x="706" d="M227 89q46 0 93 47t80 125q37 87 68 273q13 66 13 100q0 26 -16 35t-59 9q-52 0 -91 -16q-42 -17 -65 -46q-24 -31 -47 -97q-23 -65 -36 -139q-15 -76 -15 -138q0 -77 18 -115t57 -38zM418 186l-15 -15q-97 -97 -174 -138q-65 -35 -111 -35q-45 0 -71 41q-27 41 -27 113 q0 89 26 182q24 87 76 173q48 79 118 144q136 127 272 133q3 14 3 17l12 94q13 91 13 115q0 64 -44 64q-17 0 -38 -9q-30 -11 -33 -11q-13 0 -13 11q0 12 34 25q131 47 189 63q18 6 36 6q31 0 31 -34q0 -21 -20 -127l-30 -151q-7 -44 -15 -85t-11 -59q-41 -231 -51 -298 q-12 -71 -18 -124q-7 -52 -7 -97q0 -54 12 -80t38 -26q25 0 66 19q18 6 20 6q10 0 10 -11q0 -12 -72 -47q-111 -52 -167 -52q-29 0 -40 11t-11 44q0 16 4 57l6 58q0 1 1 7.5t1 15.5z" />
<glyph unicode="e" horiz-adv-x="540" d="M176 411q37 -8 55 -8q76 0 131 67q54 66 54 158q0 46 -19 72q-20 26 -51 26q-35 0 -70 -39q-33 -38 -59 -108q-24 -64 -41 -168zM168 315q-2 -54 -2 -46q0 -92 35 -142t99 -50q58 0 103 36q13 10 18 10q12 0 12 -11q0 -17 -57 -50q-59 -33 -111 -50q-53 -19 -91 -19 q-64 0 -102 63q-38 62 -38 169q0 83 24 165q25 84 67 159t101 134q51 49 110 83q55 31 97 31t67 -30q26 -31 26 -76q0 -63 -51 -140q-51 -74 -135 -140q-82 -64 -172 -96z" />
<glyph unicode="f" horiz-adv-x="518" d="M101 134l65 525h-23q-61 0 -94 -10q-7 -3 -12 -3q-8 0 -8 6q0 8 35 40q29 27 104 83l16 12q1 3 4 15q1 3 1 6l8 45q37 201 203 388q51 56 117 104q68 50 133 78t115 28q25 0 39 -11t14 -31q0 -17 -12 -37l-65 -107q-9 -14 -20 -14t-11 11l1 15q0 22 -27 35t-70 13 q-82 0 -137 -44q-54 -45 -87 -139q-42 -121 -75 -369l148 2q74 0 92 15l7 5q5 3 9 3q10 0 10 -11q0 -15 -25 -49q-28 -37 -51 -58q-16 -14 -37 -20q-22 -6 -62 -6q-10 0 -15 1h-19l-52 1h-20l-64 -559q-18 -168 -55 -259q-37 -94 -120 -184q-95 -104 -203 -158t-223 -54 q-76 0 -128 27q-53 26 -53 63q0 13 17 42l60 99q10 16 19 16q13 0 13 -11q0 3 -2 -11q-2 -10 -2 -11q0 -45 55 -79q55 -35 123 -35q76 0 145 25q70 26 99 61q21 26 41.5 87t38.5 153.5t36 236.5z" />
<glyph unicode="g" horiz-adv-x="688" d="M485 650q-72 13 -110 13q-46 0 -73 -12q-28 -12 -50 -43q-40 -56 -67 -163q-28 -105 -28 -204q0 -147 77 -147q30 0 64 28q33 28 64 79q45 77 80 205q34 124 43 244zM409 184q-13 -10 -16 -13l-65 -56q-139 -121 -205 -121q-46 0 -74 49q-29 49 -29 124q0 100 45 211 q43 111 119 203q74 93 159 146q86 54 166 54q42 0 92 -11q16 -2 14 -2q9 0 13 4l11 7q6 3 13 3q9 0 9 -5q0 -2 -3 -8q-19 -34 -34 -108q-14 -58 -35 -192l-22 -144.5l-15 -101.5l-25 -195q-18 -136 -65 -232q-49 -96 -142 -179q-84 -75 -180 -117q-96 -43 -184 -43 q-42 0 -69 10q-31 10 -46 25q-18 16 -18 38q0 15 18 45l69 110q7 12 15 12q10 0 10 -11v-4q-1 -1 -1 -4q-4 -9 -4 -19q0 -38 52 -65q53 -27 129 -27q89 0 143 39q53 37 78 120q25 79 51 260q17 118 26 198z" />
<glyph unicode="h" horiz-adv-x="756" d="M56 6l-15 -6q6 32 6 36l35 172q17 81 33.5 175l35.5 208q18 105 39 244q22 133 22 177q0 66 -46 66q-24 0 -53 -10q-9 -3 -17 -3q-14 0 -14 10q0 7 29 18l72 27q87 32 142 48q17 4 22 4q27 0 27 -36q0 -25 -38 -241l-29 -161q-17 -89 -32 -184l19 20q69 71 116 111 q49 41 91 64q77 46 122 46q58 0 58 -64q0 -26 -10 -83l-65 -337q-16 -80 -16 -133q0 -74 59 -74q16 0 50 12q17 6 22 6q6 0 10 -4t4 -10q0 -9 -13 -16t-83 -30q-50 -17 -73 -26l-61 -23q-22 -9 -33 -9q-43 0 -43 42q0 22 10 69q1 10 3 13q0 3 1 6l79 424l4 20q8 46 8 61 q0 49 -45 49q-37 0 -80 -37t-82 -105q-88 -150 -127 -457q-1 -7 -4 -20q-3 -8 -16 -12t-30 -12l-49 -18z" />
<glyph unicode="i" horiz-adv-x="377" d="M387 1201q15 0 15 -18q0 -5 -8 -35q0 -1 -5 -19q-4 -16 -6 -22q-11 -45 -20 -61q-8 -14 -34 -26q-40 -19 -50 -26q-9 -6 -20 -23l-12 -19q-17 -26 -26 -26q-7 0 -7 6q0 3 2 13q15 60 25 116q12 68 18 82q5 12 25 20l41 15q4 2 7.5 3.5t9.5 3.5q4 2 10 4l9 3q18 9 26 9z M160 649q0 49 -33 49q-20 0 -67 -26q-13 -9 -22 -9q-11 0 -11 13q0 11 13 18q8 5 64 29q138 58 169 58q39 0 39 -49q0 -31 -32 -189l-25 -122q-36 -175 -36 -246q0 -90 53 -90q16 0 56 20q10 7 19 7q11 0 11 -9q0 -12 -17 -21q-9 -6 -76 -35q-106 -45 -149 -45q-27 0 -39 13 q-12 14 -12 40q0 21 30 184q44 241 55 321q10 70 10 89z" />
<glyph unicode="j" horiz-adv-x="373" d="M217 950l37 167l4 15q4 16 10 23q5 6 21 15q59 33 88 33q25 0 25 -24q0 -31 -22 -94q-14 -38 -19 -45q-7 -10 -24 -16l-23 -9q-44 -17 -60 -47l-9 -17q-12 -22 -22 -22q-8 0 -8 10q0 1 2 11zM-390 -652q-71 0 -71 34q0 21 47 98q37 64 52 64q8 0 9 -13q3 -22 38 -39 q36 -17 83 -17q68 0 112 31q43 31 75 99q36 82 91 334q18 84 33 165q20 107 32 179q13 77 28 178q22 148 22 183q0 60 -47 60q-19 0 -50 -20q-13 -9 -19 -9q-11 0 -11 10q0 11 53 37q63 29 118 47q57 19 85 19q35 0 35 -37q0 -13 -12 -76l-27 -150l-30 -174l-34 -194 q-34 -194 -55 -273q-23 -85 -57 -149q-27 -50 -77 -114q-49 -61 -107 -116q-55 -52 -111 -89q-45 -29 -102 -49q-54 -19 -103 -19z" />
<glyph unicode="k" horiz-adv-x="813" d="M282 585l-5 -30l16 17q73 77 95 96q30 26 70 51q106 65 173 65q38 0 62 -25q23 -26 23 -63q0 -50 -41 -114q-40 -63 -116 -132l-50 -45l-2.5 -2.5t-13.5 -11.5l6 -17q67 -201 124 -266q24 -26 56 -26q33 0 91 33q7 4 14 4q9 0 9 -10q0 -13 -64 -47q-116 -64 -167 -64 q-35 0 -52 13q-18 13 -37 55q-19 40 -63 161q-21 61 -31 76t-33 18q-11 2 -11 9t20 15q32 14 88 56q54 42 86 81q63 75 63 139q0 38 -17 61q-18 21 -49 21q-55 0 -114 -57t-105 -154q-25 -51 -45 -121q-20 -65 -34 -147q-16 -92 -25 -176q-31 -17 -83 -37q-49 -18 -63 -18 q-16 0 -16 11q0 4 6 14q18 35 51 219l65 398l24 163l20 131l6 45q1 3 1.5 7.5t0.5 7.5q0 8 1 11v9q0 49 -48 49q-18 0 -38 -6q-19 -6 -26 -6q-15 0 -15 11q0 12 73 34q159 52 188 52q31 0 31 -33q0 -17 -31 -166q-29 -134 -68 -359z" />
<glyph unicode="l" horiz-adv-x="377" d="M58 48q0 23 6 56l29 159q29 150 58 339l26 162q12 64 24 149q10 67 10 92q0 66 -46 66q-14 0 -38 -10q-28 -11 -35 -11q-11 0 -11 9q0 19 78 50q126 54 171 54q43 0 43 -43q0 -23 -4 -40q0 -5 -7 -40q-3 -15 -4 -23t-3 -14l-5 -26l-5 -25l-50 -294q-10 -67 -18 -114 l-12 -74q-2 -15 -6 -39t-11 -71l-14 -86q-15 -103 -15 -134q0 -24 14 -41q13 -16 35 -16q17 0 53 13q17 6 23 6q14 0 14 -12q0 -17 -44 -32q-19 -8 -137 -44q-52 -16 -71 -16q-48 0 -48 50z" />
<glyph unicode="m" horiz-adv-x="1143" d="M83 -1l-17 -7q34 160 55 310q35 239 35 322q0 68 -47 68q-27 0 -56 -13q-16 -6 -21 -6q-12 0 -12 13q0 10 22 19l67 26l42.5 16.5l24.5 9.5t8 3q60 25 84 25q17 0 24 -10t7 -39q0 -22 -9 -111q-1 -12 -3 -32q-1 -13 -3 -35q-1 -14 -3 -26l15 17q50 61 85 96t74 63 q40 28 91 49q45 19 72 19q63 0 63 -73q0 -18 -5 -63q-1 -3 -7 -50l-5 -37l-2 -18l5 5l4 4l3 3l2 2l51 55q77 81 148 125q72 45 124 45q34 0 51 -16q17 -17 17 -49q0 -27 -7 -56l-25 -126q-1 -9 -7.5 -44.5l-14.5 -77.5q-20 -103 -29 -166q-10 -57 -10 -85q0 -60 51 -60 q25 0 55 15l18 7q6 3 11 3q6 0 10 -6q4 -5 4 -11q0 -12 -107 -53q-55 -20 -67 -25q-70 -26 -90 -26q-38 0 -38 45q0 30 11 93l25 137l38 214q24 138 24 162q0 33 -26 33q-32 0 -72 -28q-36 -26 -74 -73q-92 -121 -136 -369l-21 -116q-4 -24 -8 -30q-6 -6 -22 -14 q-3 -1 -55 -26l-58 -28l-13 -6l6 28q55 265 75 401q6 31 22 151q5 43 5 63q0 48 -40 48q-35 0 -81 -43t-87 -114q-44 -77 -75 -206q-13 -56 -40 -227q-3 -23 -6 -31q-6 -9 -20 -16l-58 -24z" />
<glyph unicode="n" horiz-adv-x="756" d="M44 -7l5 25l25 103q13 50 31 141l28 151q13 85 17 123q5 52 5 83q0 73 -51 73q-22 0 -48 -12q-15 -7 -21 -7q-15 0 -15 14q0 16 27 26q35 17 120 45q68 25 92 25q42 0 42 -48q0 -23 -8 -98l-16 -117q6 6 10 12l3.5 3.5l2.5 2.5l46 56q71 84 143 133q74 48 134 48 q33 0 54 -15q20 -17 20 -44q0 -22 -16 -105l-21 -107l-11.5 -64.5l-8 -44.5l-7.5 -42.5l-15 -83.5q-15 -88 -15 -114q0 -28 13 -44q12 -17 34 -17q12 0 51 11q15 4 19 4q15 0 15 -15q0 -11 -35 -25l-63 -22l-67 -23q-69 -25 -93 -25q-34 0 -34 42q0 11 4 32l9 45q5 25 7 33 l3.5 16t1.5 10q3 18 5 26.5t2 12.5l32 164q39 209 39 244q0 55 -46 55q-71 0 -157 -147q-83 -144 -133 -438q-6 -34 -10 -41q-5 -8 -20 -16q-74 -34 -129 -44z" />
<glyph unicode="o" horiz-adv-x="669" d="M500 512q0 96 -30 147q-32 50 -86 50q-66 0 -129 -87q-40 -54 -66 -147q-25 -93 -25 -189q0 -99 34 -154q33 -57 90 -57q72 0 124 79q25 40 44 97q20 63 32 128q12 68 12 133zM27 236q0 93 40 189q40 97 106 180q68 85 145 135q78 51 150 51q79 0 127 -62q47 -64 47 -168 q0 -99 -38 -201q-39 -101 -104 -183q-63 -81 -144 -131q-79 -49 -159 -49q-79 0 -124 64q-46 62 -46 175z" />
<glyph unicode="p" horiz-adv-x="712" d="M233 160l-4 -23q48 -30 105 -30q72 0 117 53q44 53 75 167q32 116 32 222q0 139 -74 139q-39 0 -83 -41q-45 -44 -79 -114q-25 -53 -46.5 -145.5t-42.5 -227.5zM81 15q-24 4 -37 4q-25 0 -42 -10q-5 -3 -8 -3q-10 0 -10 14q0 7 10 17l3.5 3.5l3.5 3.5l5 5l4 4l7.5 7.5 l6.5 6.5l7 7l6 6l6 6l6 6q34 34 55 57l3 22q12 76 35 258q19 146 19 195q0 70 -47 70q-21 0 -51 -14q-19 -9 -27 -9q-10 0 -10 12t10 16q14 7 63 26l52 21q11 5 21.5 9l20.5 8t19 8q42 18 61 18q38 0 38 -47q0 -15 -6 -69q-1 -8 -7 -62l-2 -17q15 13 19 18q95 92 159 132 q65 41 119 41q47 0 73 -47q25 -46 25 -134q0 -187 -140 -377q-75 -101 -164 -162t-164 -61h-14l-4 -23l-17 -113q-17 -109 -27 -148q-10 -38 -25 -63q-17 -25 -46 -46q-23 -17 -59 -32q-35 -16 -49 -16q-9 0 -9 7q0 5 1 7q36 77 61 195q17 80 35 178q3 13 7 35q1 8 2.5 16.5 t1.5 13.5z" />
<glyph unicode="q" horiz-adv-x="679" d="M474 653q-45 17 -91 17q-73 0 -111 -42q-26 -31 -52 -94q-25 -62 -40 -139q-15 -76 -15 -136q0 -161 75 -161t140 143q32 70 61 191q27 115 33 221zM399 146l4 27q-166 -172 -284 -172q-40 0 -60 32q-32 55 -32 163q0 220 188 423q77 82 154 123t154 41q30 0 59 -7l11 -2 q2 -1 9 -1q8 0 15 6l8 5q8 5 18 5q15 0 15 -9q0 -2 -8 -20q-11 -19 -24 -64q-12 -45 -27 -123q-20 -107 -38 -215q-11 -67 -34 -229q-21 -149 -29 -240q-10 -96 -10 -143q0 -94 52 -94q18 0 51 11l21 8q9 3 15 3q13 0 13 -11q0 -17 -73 -48q-129 -54 -182 -54q-23 0 -32 17 q-10 16 -10 55q0 49 15 202q17 150 41 311z" />
<glyph unicode="r" horiz-adv-x="628" d="M211 84l-5 -35l-130 -47q-11 -4 -15 -4q-11 0 -11 11q0 8 7 23q10 31 21 83q7 33 40 226q34 210 34 269q0 48 -15 73q-16 24 -44 24q-20 0 -49 -12q-21 -8 -24 -8q-13 0 -13 13q0 15 30 27l118 40q56 19 91 19q28 0 38 -15q11 -16 11 -53q0 -74 -35 -219l-4 -19l10 17 q42 76 76 126q28 39 73 80q94 82 184 82q42 0 42 -22q0 -8 -4 -17l-3 -10l-42 -125q-5 -14 -13 -14q-9 0 -12 14q-7 46 -66 46q-101 0 -169 -111q-34 -56 -57 -131q-23 -76 -44 -208q-4 -26 -12 -74q-4 -31 -8 -49z" />
<glyph unicode="s" horiz-adv-x="532" d="M14 30q0 9 17 60l14 40l13 36q2 5 4 12t4 13q8 21 19 21q12 0 12 -13v-6q-3 -15 -3 -22q0 -29 34 -48q32 -19 82 -19q53 0 90 15t58 43q20 28 20 64q0 35 -26 58q-26 20 -127 67q-71 33 -100 52q-29 17 -41 35q-11 17 -11 46q0 47 30 107t77 107t93 66q48 20 105 20 q49 0 81 -13q32 -14 32 -34q0 -12 -41 -111q-13 -33 -23 -33q-9 0 -9 8v5q1 1 1 4q0 20 -20 37q-19 16 -53 27q-31 10 -67 10q-58 0 -94 -27q-37 -28 -37 -72q0 -27 18 -42q15 -14 88 -48l63 -28q95 -42 119 -62q26 -23 26 -62q0 -33 -16 -77q-16 -46 -42 -90 q-52 -91 -126 -141q-73 -51 -154 -51q-109 0 -110 46z" />
<glyph unicode="t" horiz-adv-x="476" d="M157 649l3 21q-58 -3 -79 -15q-16 -9 -21 -9q-12 0 -12 9q0 10 22 32l59 63q14 16 27 29l17 18.5l18 19.5l63 68q60 66 74 66q12 0 12 -12l-2 -10q-11 -36 -20 -83l-10 -50q0 -2 -4 -19h17h47q77 0 101 4q26 3 43 17q13 10 17 10q15 0 15 -15q0 -8 -21 -38 q-24 -32 -49 -57q-21 -21 -30 -25q-12 -5 -31 -5q-4 0 -17.5 1t-32.5 1q-42 2 -41 2q-23 0 -31 -9q-8 -11 -12 -44l-18 -126l-20 -138q-23 -167 -23 -197q0 -70 46 -70q26 0 62 18q11 6 16 6q4 0 8 -4t4 -9q0 -15 -83 -51q-106 -48 -140 -48q-24 0 -41 20q-16 19 -16 49 q0 26 6 68l18 136q28 196 41 272z" />
<glyph unicode="u" horiz-adv-x="778" d="M702 772l13 5q-16 -50 -30 -116q-13 -64 -36 -198q-18 -122 -25 -183q-12 -91 -12 -131q0 -63 56 -63q20 0 45 16q10 7 19 7q15 0 15 -14q0 -8 -9 -14q-8 -6 -68 -35q-15 -7 -28 -12.5t-21 -10.5q-78 -36 -95 -36q-53 0 -53 70q0 50 4 99l3 43q0 13 1 20 q-92 -104 -183 -163q-91 -58 -164 -58q-36 0 -56 16q-21 17 -21 43t22 130q67 325 67 433q0 61 -38 61q-11 0 -31 -6l-20 -5q-18 -5 -25 -5q-15 0 -15 12q0 10 10 16q13 6 55 21l57 20q119 42 145 42q30 0 30 -36q0 -19 -9 -69l-28 -141l-30 -150q-37 -184 -37 -231 q0 -28 15 -45q15 -18 40 -18q33 0 73 33q42 34 77 90q48 74 80 180q32 105 63 302q3 23 22 30q9 4 16.5 7t35.5 15z" />
<glyph unicode="v" horiz-adv-x="735" d="M494 719l126 49q36 13 52 13q34 0 52 -28t18 -83q0 -132 -88 -281q-88 -150 -223 -256q-178 -138 -269 -138q-64 0 -64 64q0 13 4 41l16 119q28 203 37 281q9 89 9 109q0 79 -52 79q-27 0 -56 -13q-19 -9 -27 -9q-15 0 -15 14q0 8 17 19q21 11 76 32q76 30 115 42 q26 8 41 8q48 0 48 -70q0 -15 -6 -74q-4 -25 -17 -133q-4 -30 -9 -77l-11 -74q-8 -70 -15 -122q-8 -62 -8 -79q0 -29 11 -45q11 -15 36 -15q54 0 145 114q69 84 110 190q40 104 40 201q0 51 -14 74q-15 22 -46 22q-13 0 -39 -8l-16 -5q-10 -2 -12 -2q-14 0 -14 12 q0 13 32 24q3 1 16 5z" />
<glyph unicode="w" horiz-adv-x="1138" d="M288 521l-3 -24q43 70 84 119q40 46 94 84q51 36 104 59q51 21 85 21q32 0 51 -19t19 -51q0 -14 -12 -94q-4 -24 -6.5 -41l-6.5 -43l-7 -42.5l-10 -63.5l-36 -227q-8 -58 -8 -67q0 -17 11 -31q10 -13 28 -13q29 0 85 44q53 41 97 103q54 75 94 183q39 107 39 182 q0 86 -56 86q-19 0 -51 -13q-14 -7 -22 -7q-15 0 -15 15q0 13 35 30q61 28 121 49q54 19 84 19q59 0 59 -89q0 -63 -29 -150q-30 -85 -81 -171q-51 -85 -113 -152q-85 -91 -194 -153q-109 -61 -188 -61q-60 0 -60 54q0 21 6 52q2 3 6 30q0 2 5 29t9 54l21 124q35 204 35 273 q0 66 -47 66q-66 0 -149 -153q-27 -49 -52 -113q-24 -59 -46 -143q-23 -84 -47 -206q-3 -18 -7 -22q-4 -5 -25 -13l-41 -14l-56 -18l-22 -7l5 26l21 110l22 121q21 112 33 215q11 105 11 161q0 70 -39 70q-17 0 -63 -25q-19 -10 -30 -10q-16 0 -16 14q0 12 36 28l45 20 l46 20q86 39 113 39q54 0 54 -68q0 -31 -10 -110z" />
<glyph unicode="x" horiz-adv-x="871" d="M443 283l-6 22l-12 -19q-53 -89 -101 -146q-46 -53 -94 -87q-86 -59 -161 -59q-32 0 -50 15q-19 13 -19 38q0 17 4 25l57 140q7 19 17 19q12 0 12 -13v-5v-10q0 -33 22 -49q22 -17 68 -17q61 0 117 55q56 54 122 176l-6 19q-55 185 -85 243q-31 60 -69 60q-31 0 -68 -29 q-12 -9 -18 -9q-17 0 -17 15q0 11 30 30q116 81 190 81q40 0 61 -30q20 -32 51 -140l17 -59q2 -3 6 -18q72 114 148 176q99 81 161 81q20 0 33 -11q11 -13 11 -31q0 -14 -21 -71l-18 -51l-15 -36q-5 -14 -14 -14q-15 0 -15 16v6q0 5 1 7v6q0 18 -14 29q-13 9 -40 9 q-54 0 -107 -46t-94 -126l7 -23l35 -116q43 -136 79 -194q36 -59 76 -59q18 0 54 13q18 7 27 7q12 0 12 -11q0 -16 -48 -39q-121 -57 -183 -57q-40 0 -62 43q-32 66 -81 244z" />
<glyph unicode="y" horiz-adv-x="734" d="M164 -13l16 13q-11 0 -19.5 -1t-11.5 -1q-64 0 -64 62q0 15 4 40l17 100q2 7 7.5 46.5t12.5 83.5l6 41q2 10 3.5 22t2.5 18q1 3 4 23q1 3 1.5 6.5t0.5 5.5v8q0 7 1 11l12 93q4 28 4 64q0 68 -48 68q-22 0 -45 -10l-20 -8q-15 -5 -18 -5q-14 0 -14 13q0 9 9 16q7 5 42 19 q147 62 187 62q59 0 59 -58q0 -29 -18 -143l-20 -128q-9 -54 -29 -202q-7 -53 -7 -91q0 -57 45 -57q30 0 69 27q38 27 81 81q69 86 110 196q42 113 42 208q0 82 -50 82q-29 0 -65 -16q-12 -6 -19 -6q-12 0 -12 13q0 14 81 47q118 47 161 47q59 0 59 -111q0 -158 -121 -333 q-54 -78 -122 -142q-68 -62 -197 -151q-107 -73 -171 -133q-66 -62 -96 -117q-31 -55 -31 -110q0 -46 35 -75q35 -30 89 -30q30 0 52 13q13 8 16 8q10 0 10 -10q0 -18 -54 -49q-74 -43 -153 -43q-58 0 -89 34q-32 34 -32 92q0 48 21 93q19 42 68 96q47 51 129 120z" />
<glyph unicode="z" horiz-adv-x="766" d="M512 659q-36 -10 -99 -10q-5 0 -8 1h-11l-60 1h-41q-91 0 -127 -11t-44 -43q-6 -23 -16 -23q-15 0 -15 17l2 16l5 20q14 66 36 119q9 21 21 26q11 4 68 4h25l97 -1h89q98 0 143 3q43 3 72 11q11 3 12 3q11 0 11 -13q0 -19 -12 -55q-14 -40 -34 -82q-31 -66 -95 -151 q-59 -79 -134 -154q-32 -32 -107 -99q-59 -52 -65 -58q-42 -37 -49 -44l17 1h40q42 0 145 -5q123 -8 172 -8q79 0 117 11q36 11 48 39l5 11q8 18 16 18q9 0 9 -13q0 -26 -23 -70q-22 -43 -54 -78q-30 -33 -59 -43q-30 -12 -86 -12q-25 0 -95 5q-10 1 -32 3q-5 0 -11 0.5 l-11.5 1t-11.5 1.5q-36 1 -44 3l-101 10q-52 5 -94 5q-70 0 -94 -21l-10 -8q-6 -3 -9 -3q-10 0 -10 12q0 6 5 18q13 37 20 64q15 53 39 63l27 11q90 38 174 116q83 77 152 183q66 104 95 208z" />
<glyph unicode="{" horiz-adv-x="656" d="M159 1252q0 43 32 95q30 49 82 88q32 22 72 43q37 19 50 19q11 0 11 -11q0 -13 -26 -24q-88 -39 -88 -121q0 -69 83 -224l67 -126q102 -191 142 -295q38 -103 38 -183q0 -65 -19 -134q-20 -72 -54 -134q-34 -64 -84 -114q-57 -59 -129 -98q-71 -38 -129 -38 q-78 0 -129 70q-51 69 -51 178q0 72 29 153t84 158q57 78 134 148q65 57 86 57q10 0 10 -10q0 -8 -7 -12q-89 -71 -143 -197t-54 -262q0 -88 36 -151t86 -63q30 0 67 22q40 24 69 56q38 41 61 114q21 72 21 163q0 70 -13 131q-13 62 -45 133q-34 75 -95 181l-86 150 q-71 124 -90 167q-18 41 -18 71z" />
<glyph unicode="|" horiz-adv-x="990" d="M183 438l-4 -18q29 -6 44 -6q82 0 138 62q55 61 55 151q0 44 -17 70q-18 26 -46 26q-50 0 -95 -75q-46 -76 -75 -210zM364 430l14 -1q30 0 91 -3q11 0 61 -2q116 -4 207 -4q83 0 135 11q46 10 87 40q16 13 22 13q9 0 9 -11q0 -8 -26 -45q-55 -73 -93 -95 q-40 -24 -110 -24q-18 0 -192 8q-219 9 -258 10q-184 2 -142 2q-3 -40 -3 -56q0 -96 34 -148t96 -52q57 0 107 41q12 9 18 9q12 0 12 -11q0 -17 -57 -50q-112 -67 -194 -67q-72 0 -109 61q-39 62 -39 169q0 125 52 244q53 121 143 211q108 108 201 108q47 0 73 -26t26 -75 q0 -123 -165 -257z" />
<glyph unicode="}" horiz-adv-x="711" d="M224 -341q-71 -8 -131 -40q-63 -35 -98 -82q-36 -50 -36 -100q0 -41 36 -78t97 -58q62 -21 130 -21q55 0 108 14q50 13 91 39q39 25 61 59q21 31 21 69q0 33 -18 59q-19 25 -60 51q-41 25 -92 48q-48 21 -109 40zM167 299q0 -229 126 -229q75 0 124 70q44 62 69 162 q25 97 25 209q0 92 -37 141t-105 49q-57 0 -98 -50q-46 -55 -74 -154q-30 -100 -30 -198zM629 636q15 -60 15 -112q0 -178 -119 -324q-42 -53 -87 -88q-53 -42 -169 -118q-46 -31 -65 -53q-16 -19 -16 -46q0 -23 12 -39q11 -17 42 -35t92 -46q167 -75 222 -117 q55 -43 55 -94q0 -41 -30 -96q-32 -57 -79 -102q-76 -74 -192 -125q-117 -51 -213 -51q-107 0 -177 48q-70 46 -70 120q0 62 54 133q53 69 171 160q52 42 61 50q-37 24 -51 45q-15 21 -15 49q0 45 28 85q30 43 101 102q-61 22 -97 54q-35 29 -52 77t-17 114q0 245 231 452 q134 120 206 120q37 0 106 -32q50 -24 81 -24q52 0 79 47q14 20 20 20q9 0 9 -10q0 -25 -36 -79q-37 -52 -100 -85z" />
<glyph unicode="~" horiz-adv-x="875" d="M644 657l-5 -37l-27 -183q-1 -6 -5 -34l-10.5 -75l-12.5 -88q-5 -42 -14 -104.5t-15 -90.5q-10 -59 -21 -93q-13 -47 -47 -101q-33 -54 -80 -104t-104 -92q-152 -112 -335 -112q-72 0 -122 26q-51 25 -51 63q0 25 61 113q30 42 39 42t9 -9q0 -7 -4 -14q-2 -16 -2 -17 q0 -45 65 -83q64 -37 146 -37q63 0 127 33q62 30 103 82q32 41 55 115q20 71 40 209l29 199l30 196l25 172l4 25h-41q-44 0 -55 -8q-13 -9 -19 -9q-11 0 -11 9q0 6 9 16l13 13q42 44 66 60q21 15 54 20l4 25q19 112 50 190q27 70 82 147l11 15q-47 35 -106 35 q-85 0 -138 -39q-53 -41 -81 -127q-23 -70 -58 -258q-30 -167 -49 -289q0 -6 -22 -157q-13 -94 -13 -131q0 -80 58 -80q24 0 45 7l23 7q1 1 5 1q9 0 9 -9q0 -15 -64 -39q-50 -20 -125 -43q-51 -16 -67 -16t-26 13q-11 14 -11 31q0 10 9 58q12 57 22 129l24 163 q38 257 60 363q23 107 51 168q29 60 88 130q97 113 200 171q113 65 189 65q48 0 73 -39q91 80 181 126q91 46 156 46q27 0 42 -12t15 -34q0 -19 -32 -66l-27 -39l-14 -21t-11 -16q-6 -10 -9 -11q-4 -3 -11 -3q-9 0 -9 9q0 4 1 5l1 4q3 5 3 12q0 28 -24 44q-23 16 -63 16 q-56 0 -112 -35q-55 -36 -96 -98q-47 -75 -83 -249q-17 -82 -28 -158l25 -1q56 -4 116 -4q84 0 112 16q7 4 10 4q8 0 8 -9q0 -15 -51 -75q-23 -28 -48 -37q-23 -10 -74 -10q-10 0 -14 1h-19l-61 1q-4 0 -6 1h-15z" />
<glyph unicode="&#xa1;" horiz-adv-x="579" d="M375 1103q-18 0 -18 22q0 38 25 131q6 25 14 33t40 27q68 36 85 36t17 -18q0 -17 -17 -102q-16 -79 -27 -87q-6 -5 -50 -22q-51 -20 -69 -20zM164 -1q0 8 2 18q2 15 21 107l32 161q2 8 3.5 17t3.5 18q2 12 4 22t4 22q7 37 8 44q2 7 3.5 15.5t2.5 12.5q1 9 5 27 q1 7 2.5 14.5t1.5 12.5l38 211l32 189q8 39 12 50q5 11 18 21q23 18 63 36q32 15 40 15t8 -11q0 -7 -1 -10l-2 -17q-1 -9 -11 -70q0 -5 -1.5 -13t-2.5 -14q-1 -11 -3 -19q-17 -114 -23 -162l-22 -167l-23 -177q-22 -160 -22 -218q0 -32 6 -49t20 -25q8 -5 8 -9q0 -8 -11 -14 q-6 -4 -46 -20q-98 -37 -148 -37q-22 0 -22 19z" />
<glyph unicode="&#xa2;" horiz-adv-x="654" d="M320 291l115 570q-58 -14 -97 -59q-40 -46 -63 -121q-22 -73 -22 -168q0 -164 67 -222zM297 178l2 10q-18 -2 -32 -2q-66 0 -105 59t-39 157q0 76 25 154q26 81 69 152q46 74 104 131q63 60 129 95l7 33l5.5 24t2.5 15q1 6 2 10.5t3 16.5q6 29 16 39t43 25q7 4 13.5 7 t12.5 5q18 8 23 8q8 0 8 -7q0 -2 -6 -7q-13 -13 -22 -41q-8 -21 -23 -94q34 8 58 8q40 0 64 -15q24 -16 24 -43q0 -21 -30 -62l-27 -36l-28 -37q-12 -16 -18 -16q-10 0 -10 11q0 5 1 6l4 10q3 8 3 16q0 37 -64 50l-124 -595h10q61 0 134 57q11 8 17 8q8 0 8 -8 q0 -34 -175 -110l-6 -3l-7 -31l-3 -17q-9 -51 -15 -73t-15 -31q-16 -19 -55 -36q-21 -10 -28 -10t-7 6q0 5 4 9q21 27 47 152z" />
<glyph unicode="&#xa3;" horiz-adv-x="1158" d="M575 471h-22l-6 -19q-37 -111 -82 -176q-41 -61 -133 -134q88 -11 294 -25q193 -11 277 -11q69 0 103 6q35 6 57 22q21 14 56 55q12 13 19 13q11 0 11 -13t-18 -46q-18 -31 -48 -68q-95 -107 -226 -107q-46 0 -190 12q-168 13 -265 22q-160 16 -235 16q-93 0 -137 -38 q-10 -10 -18 -10q-12 0 -12 13t31 62q26 41 70 96q191 9 254 87q27 33 42 87q14 50 25 159h-25q-21 1 -79 1q-40 0 -66 -3q-27 -3 -42 -10t-31 -23q-13 -13 -23 -13q-12 0 -12 10q0 6 14 34q40 70 61 96q22 28 49 37t75 9l17 -1h52h25l3 22q27 190 59 289q32 98 91 179 q87 120 223 193q134 72 272 72q55 0 97 -11q41 -12 63 -34t22 -50t-45 -87q-31 -40 -44 -53q-14 -14 -24 -14q-12 0 -12 12q0 5 3 11q11 27 11 41q0 47 -56 83q-57 36 -132 36q-94 0 -177 -68q-84 -69 -130 -186q-23 -56 -46 -171q-22 -112 -39 -267l22 -1q105 -3 104 -3 q67 0 102 8q32 8 53 27l10 10q5 5 9 5t7 -3t3 -7q0 -12 -20 -44q-21 -31 -44 -56q-40 -43 -91 -58t-156 -15z" />
<glyph unicode="&#xa4;" horiz-adv-x="607" d="M75 3l-16 -6q23 95 43 209q25 144 37 242q13 108 13 154q0 97 -62 97q-17 0 -41 -10q-16 -6 -22 -6q-13 0 -13 13q0 15 38 29q60 23 105 37q56 19 82 19q55 0 55 -57q0 -52 -26 -208l12 28q56 133 88 188q35 61 88 119q54 60 125 97q68 36 125 36q37 0 37 -25 q0 -13 -6 -51q-7 -46 -7 -48l-5 -46q-5 -26 -15 -26t-15 14q-9 22 -27 31q-19 9 -58 9q-100 0 -177 -95q-45 -56 -77 -117q-34 -66 -56 -142q-23 -81 -39 -173l-19 -116l-3 -23q0 -4 -1 -8.5t-2 -9.5q0 -3 -1.5 -10t-2.5 -14q0 -5 -0.5 -10t-1.5 -8q-1 -5 -3 -13 q0 -3 -0.5 -6.5t-1.5 -5.5q-4 -31 -6 -36q-1 -3 -12 -8q-7 -3 -43 -15q-1 0 -3 -0.5t-3 -1.5q-1 0 -3 -0.5t-4 -1.5l-4 -1.5t-10 -3.5l-15 -5l-10.5 -3.5t-9.5 -3.5q-5 -2 -14.5 -4.5t-12.5 -3.5z" />
<glyph unicode="&#xa5;" horiz-adv-x="917" d="M552 547h6q106 0 155 6q48 4 77 21q10 5 14 5q12 0 12 -12q0 -7 -20 -41q-11 -20 -40 -62q-16 -22 -31 -29q-16 -9 -44 -9q-16 0 -25 1q-26 0 -38 1l-74 1h-11l-4 -23l-33 -202l-14 -95q-4 -23 -4 -37q0 -19 14 -33t32 -14q13 0 41 9l10 2q13 0 13 -15q0 -14 -19 -21 q-29 -11 -83 -25q-86 -23 -125 -29q-28 -4 -38 -4q-25 0 -25 20q0 9 7 30l10 34q15 48 29 110l40 196l15 81l4 16h-22q-17 -1 -76 -1q-92 -1 -118 -9q-7 -2 -14 -6l-7 -6l-6 -2q-10 0 -10 11q0 7 18 34q18 28 42 56q23 29 42 38q21 8 59 8q21 0 95 -2l19 -1l-15 26 q-2 4 -40 70l-27 47q-70 121 -95 180q-23 54 -23 99q0 32 6 57q6 26 18 51q9 18 38 64q41 59 90 111q50 53 67 53q10 0 10 -11q0 -10 -20 -27q-41 -35 -66 -86q-26 -54 -26 -102q0 -62 57 -187q48 -102 123 -238q27 47 80 157q72 149 132 254q66 115 143 181q74 64 145 64 q34 0 60 -20t26 -48q0 -17 -23 -65l-16 -33q-21 -45 -30 -60q-10 -15 -19 -15q-11 0 -11 9q0 -1 2 7l4 11q5 15 5 30q0 44 -59 44q-90 0 -183 -148q-56 -90 -117 -220q-62 -132 -109 -257z" />
<glyph unicode="&#xa7;" horiz-adv-x="851" d="M510 634l5 31l-195 5q-21 0 -33 -5q-10 -6 -13 -22l-4 -27l-9 -58l-9 -68q-5 -41 -9 -64q-27 -204 -27 -266q0 -80 52 -80q16 0 41 11l18 9q6 3 12 3q5 0 9 -4t4 -10q0 -12 -50 -35q-36 -18 -108 -45q-48 -17 -67 -17q-26 0 -43 21q-18 21 -18 49q0 22 13 104l16 112 l19 119l20 133l18 115l3 22h-41q-19 0 -34 -12q-11 -10 -19 -10q-4 0 -9 5q-4 4 -4 8q0 14 109 129l139 141q15 16 22 16q10 0 10 -11q0 -1 -2 -15l-6 -22q-12 -42 -20 -94q-3 -12 -3 -19q0 -8 5 -10q5 -3 27 -3h15q27 1 78 1l72 -1q33 0 42 16q8 17 20 87l12.5 61.5 t9.5 50.5l108 81q13 10 20 10q8 0 8 -9v-3q-1 -1 -1 -4l-6 -19q-15 -48 -28 -138l-16 -107l-3 -21h27q36 0 62 -1t34 -1h46q36 2 50 14q11 9 16 9q11 0 11 -11q0 -12 -21 -42q-24 -34 -44 -51q-19 -19 -35 -27q-14 -7 -38 -7q9 0 -47 2q-42 2 -56 2q-13 0 -18 -6 q-5 -7 -8 -27l-6 -44q-1 -8 -2 -17.5t-4 -25.5t-6 -39.5t-7 -45.5l-18 -135q-16 -112 -16 -157q0 -86 62 -86q21 0 57 17q11 6 20 6q12 0 12 -10q0 -24 -82 -54q-114 -43 -167 -43q-51 0 -51 64q0 28 7 83l22 164q11 87 26 179z" />
<glyph unicode="&#xa8;" horiz-adv-x="696" d="M539 1062l-10 -74q-5 -38 -18 -53q-14 -15 -61 -32l-29 -10q-12 -4 -18 -4q-16 0 -16 18q0 14 1 19l4 35l5 37q6 44 14 59q8 14 31 25q80 39 89 39q13 0 13 -15v-4q-1 -1 -1 -5q-1 -5 -1 -15l-2 -9v-7q-1 -1 -1 -4zM305 1062l-11 -74q-5 -40 -18 -53q-14 -16 -60 -32 l-29 -10q-15 -4 -18 -4q-17 0 -17 18q0 1 2 19l4 35l5 37q6 43 14 59q7 14 31 25q78 39 89 39q12 0 12 -15v-9q-3 -19 -3 -24q-1 -3 -1 -11z" />
<glyph unicode="&#xa9;" horiz-adv-x="708" d="M224 138q36 -33 99 -33q48 0 91 23q42 23 63 60q23 39 43 102q17 56 28 128q9 68 9 123q0 78 -16 111q-16 34 -55 34q-48 0 -95 -47t-80 -128q-28 -71 -55 -206q-22 -109 -32 -167zM65 16h-9q-5 1 -16 1q-22 0 -38 -13q-7 -5 -10 -5q-11 0 -11 11q0 19 92 102l17 16 q17 91 28 170q28 188 35 278q3 38 3 58q0 57 -45 57q-21 0 -59 -16q-18 -6 -22 -6q-14 0 -14 11q0 12 19 22q19 11 67 30q94 38 132 50q20 7 36 7q38 0 38 -48q0 -10 -5 -65q-8 -62 -13 -95q77 93 153 147q76 53 133 53q56 0 87 -45q31 -46 31 -126q0 -255 -213 -473 q-36 -38 -83 -72q-46 -33 -89 -49q-45 -17 -80 -17q-23 0 -31 1l-5 -25q-29 -131 -67 -210q-39 -81 -127 -187q-82 -99 -190 -165q-109 -65 -193 -65q-29 0 -51 11q-22 10 -22 27q0 10 8 24l5 9l69 119q10 19 21 19q13 0 13 -15q0 -5 -1 -6l-2 -7l-2 -8q0 -20 37 -32 q35 -13 87 -13q64 0 108 32q43 31 71 98q24 57 56 176q35 133 52 234z" />
<glyph unicode="&#xaa;" horiz-adv-x="1288" d="M371 759q-21 32 -21 67q0 84 70 173q69 90 173 149q103 58 201 58q46 0 98 -12l49 -12q49 -11 75 -11q19 0 32 6q7 4 12 4q9 0 9 -10t-18 -22q-103 -70 -132 -130q-23 -47 -49 -160q-24 -106 -49 -273l-4 -26q82 102 149 148q47 33 103 56q54 21 89 21q31 0 51 -17 q18 -18 18 -47q0 -11 -8 -56q-11 -53 -26 -139q-39 -205 -63 -363q-22 -154 -22 -198q0 -64 51 -64q19 0 46 8l25 7q10 2 11 2q13 0 13 -12t-38 -29q-33 -15 -124 -44q-75 -24 -103 -24q-41 0 -41 41q0 8 9 71l27 165q1 7 31 185l28 172l21 129q8 56 8 68q0 55 -47 55 q-30 0 -68 -32q-36 -30 -69 -82q-39 -69 -76 -182q-39 -116 -57 -221l-17 -102q-3 -22 -9 -30q-8 -8 -28 -15l-125 -42l6 22q43 166 70 329l24 151l24 145q26 154 28 165q13 68 28 113q13 37 38 65q20 25 80 70l24 18q-121 27 -199 27q-114 0 -192 -54t-78 -131 q0 -38 21 -68q19 -29 70 -66q34 -24 47 -37q10 -10 10 -25q0 -13 -15 -36l-23 -33q-23 -37 -23 -36q-22 -39 -35 -39q-15 0 -15 13q0 6 2 10q4 16 4 21q0 23 -35 43q-34 19 -75 19q-80 0 -143 -109q-63 -108 -63 -262q0 -106 36 -168q36 -61 99 -61q68 0 120 40l25 17 q11 8 17 8q9 0 9 -10q0 -16 -30 -39q-55 -43 -118 -70t-115 -27q-81 0 -126 57q-46 56 -46 160q0 148 96 299t248 249z" />
<glyph unicode="&#xab;" horiz-adv-x="679" d="M588 705h50l-13 -15q-90 -105 -141 -181q-43 -61 -43 -84q0 -18 10 -57l18 -72l18 -72l10.5 -42t5.5 -25l5 -20l-61 -52q-9 13 -43 80l-36 69l-15.5 31l-11 22.5l-9.5 20.5l-34 70q-11 24 -11 31q0 8 9 18q5 7 45 47l113 108q83 79 116 108zM296 133l-54 -54 q-58 98 -92 167l-38 75q-20 43 -23 52q-7 15 -7 24q0 18 19 41q27 31 77 76l68 65q17 17 28 27l33 30l81 77h51l-11 -14l-53 -66q-90 -114 -111 -146q-34 -49 -34 -77q0 -25 20 -107l19 -71z" />
<glyph unicode="&#xac;" horiz-adv-x="377" d="M70 110l115 679q23 126 68 214q45 92 131 193q91 107 191 170q98 60 182 60q78 0 78 -37q0 -7 -14 -35l-29 -48q-3 -6 -6.5 -11.5l-6.5 -10.5q-4 -6 -10 -16l-6 -10q-22 -39 -29 -39q-11 0 -11 12q0 6 1 9q1 2 1 8q0 24 -31 39t-78 15q-71 0 -118 -34q-48 -34 -82 -112 q-35 -78 -63 -214q-13 -60 -51 -270q-23 -128 -34 -200l-30 -192q-15 -94 -15 -129q0 -47 57 -47q16 0 50 9q17 5 21 5q15 0 15 -13q0 -11 -17 -19l-15 -6l-17 -6l-171 -62l-13 -5q-13 -6 -28 -6q-19 0 -31 14q-13 13 -13 33q0 13 9 62z" />
<glyph unicode="&#xad;" horiz-adv-x="672" d="M268 386h-45q-98 -1 -118 -15l-7 -4q-4 -3 -7 -3q-9 0 -9 11t47 75q19 24 36 41q12 11 31 16q15 4 45 4q37 0 73 -1q27 -1 56 -1t44 -1h28q113 0 156 25q12 5 14 5q13 0 13 -12q0 -10 -19 -41q-21 -35 -42 -62q-16 -22 -30 -29q-16 -9 -40 -9q-21 0 -33 1h-118h-75z" />
<glyph unicode="&#xae;" horiz-adv-x="787" d="M55 4l-14 -4l8 33q28 113 61 305q5 27 28 170q2 9 7 41l7 44q0 2 8 50q28 180 37 218q10 43 24 89q39 107 154 237q68 79 135 134q61 51 122 76q59 24 116 24q67 0 67 -39q0 -19 -40 -81l-25 -42q-19 -33 -27 -33q-3 0 -11 5q-4 4 -4 7q0 -1 2 5q0 2 1 3v2q0 17 -34 32 t-74 15q-67 0 -111 -31q-46 -31 -77 -101q-43 -94 -87 -324l-48 -276q79 88 141 133q56 40 111 64q57 25 95 25q37 0 60 -23q21 -24 21 -62q0 -46 -31 -104q-32 -61 -84 -116q-48 -50 -131 -108q54 -108 130 -241q74 -129 150 -245q48 -71 73 -92q26 -24 56 -24q47 0 90 37 q10 10 16 10t10 -4t4 -10q0 -11 -47 -46q-127 -97 -190 -97q-37 0 -65 31q-25 27 -86 134q-6 12 -10.5 19.5t-6.5 10.5l-221 389q-21 39 -31 51q-7 8 -24 10q-5 0 -7 1v20q126 58 203 141q75 83 75 161q0 38 -16 58q-17 20 -47 20q-36 0 -79 -34q-44 -35 -85 -95 q-62 -92 -94 -205q-35 -126 -58 -296q-2 -20 -4 -24q-4 -6 -14 -10l-34 -10q-18 -5 -27.5 -8t-21.5 -6z" />
<glyph unicode="&#xaf;" horiz-adv-x="784" d="M113 6l-20 -6q3 14 6 30.5l6.5 37.5t7.5 41l29 190l21 154q17 127 17 161q0 79 -50 79q-19 0 -51 -15l-21 -9q-12 -5 -17 -5q-12 0 -12 11q0 12 12 22q10 8 51 25q131 57 179 57q59 0 59 -63q0 -25 -15 -129q-5 -33 -10 -73q77 113 144 168q58 49 117 76q61 29 105 29 q52 0 83 -36q30 -36 30 -100q0 -125 -84 -248q-37 -57 -105 -123q-71 -70 -209 -190q-133 -116 -203 -196q-75 -86 -108 -157q-33 -72 -33 -146q0 -65 33 -102t91 -37q46 0 70 15q10 7 15 7q11 0 11 -11q0 -8 -52 -41q-95 -61 -162 -61q-43 0 -75 21q-33 21 -51 59 q-18 37 -18 82q0 100 108 249q36 49 137 153l143 143q147 143 198 209q73 92 113 176q36 80 36 149q0 98 -69 98q-88 0 -179 -145q-29 -45 -52 -100q-21 -47 -40 -116q-32 -114 -49 -223q0 -2 -2 -14t-3 -20q-5 -25 -7 -31q-3 -8 -13 -11q-4 -1 -8 -2.5t-8 -2.5l-47 -14z " />
<glyph unicode="&#xb0;" horiz-adv-x="819" d="M82 1351v-1337h655v1337h-655zM751 0h-683v1365h683v-1365z" />
<glyph unicode="&#xb1;" horiz-adv-x="1141" d="M337 152l-12 -12l38 -1q124 -5 241 -17q146 -13 222 -13q86 0 137 21q51 20 96 72q11 12 15 12q8 0 8 -10q0 -14 -19 -48t-48 -72q-44 -56 -92 -78q-49 -24 -125 -24q-67 0 -219 18q-112 14 -222 21q-117 8 -174 8q-93 0 -152 -33q-9 -6 -15 -6q-16 0 -16 13q0 4 9 16 q2 2 8 14l48 84q9 14 19 18q8 3 47 8q122 14 180 48q57 34 86 112q28 74 49 248l18 160q16 144 42 239q24 93 66 164q39 67 106 129q191 178 445 178q101 0 161 -25q61 -25 61 -66q0 -13 -7 -24q-7 -12 -38 -47l-13 -15.5l-29 -33.5q-23 -26 -33 -26q-12 0 -12 11q0 4 4 11 q14 25 14 40q0 27 -29 54q-32 27 -78 43q-47 16 -100 16q-99 0 -178 -43t-126 -125q-28 -47 -43 -93q-17 -47 -34 -135q-16 -85 -36 -219q-23 -165 -36 -230q-13 -66 -33 -111q-44 -102 -140 -194z" />
<glyph unicode="&#xb2;" horiz-adv-x="894" d="M116 179l27 9q145 47 236 99q90 52 178 141q109 112 168 236q58 122 58 242q0 116 -61 183t-167 67q-81 0 -154 -38q-72 -38 -116 -101q-44 -65 -44 -136q0 -57 36 -96q36 -40 93 -40q33 0 52 16q11 8 16 8q13 0 13 -14q0 -11 -12 -28q-27 -34 -69 -54q-43 -21 -88 -21 q-68 0 -110 47t-42 123q0 101 68 193q67 91 179 146q113 54 239 54q92 0 164 -33q71 -34 112 -96q40 -62 40 -143q0 -204 -187 -421t-468 -342q-17 -8 -17 -18q0 -16 28 -17q17 0 24 -1l108 -6q-1 0 84 -3q77 -4 149 -4q68 0 110 18q43 18 77 60l14 16q7 7 11 7q6 0 10 -4 t4 -10q0 -28 -53 -119q-33 -57 -66 -81t-80 -24q-28 0 -61 3l-106 8l-134 10q-151 12 -211 12q-82 0 -116 -34q-6 -6 -12 -6q-13 0 -13 11q0 14 38 92q30 57 51 89z" />
<glyph unicode="&#xb3;" horiz-adv-x="822" d="M548 695q114 -12 176 -79q63 -67 63 -175q0 -114 -72 -219q-72 -106 -191 -171t-243 -65q-112 0 -189 54q-78 53 -78 129q0 51 55 139q39 62 58 62q6 0 10 -4t4 -8q0 -7 -6 -16l-8 -12q-14 -25 -14 -64q0 -83 75 -140t181 -57q86 0 163 41q73 39 121 109q46 67 46 145 q0 67 -35 117q-34 49 -99 76q-64 27 -152 27q-108 0 -140 -29l-8 -9q-7 -7 -15 -7q-15 0 -15 14q0 8 10 27l58 107l19 3q90 15 154 34q53 16 103 47q62 41 96 97q34 55 34 119q0 76 -55 124q-56 47 -143 47q-90 0 -162 -51q-72 -52 -72 -115q0 -37 22 -62q21 -26 52 -26 q16 0 26 10q7 5 12 5q11 0 11 -11q0 -29 -47 -56q-46 -27 -98 -27q-50 0 -79 26t-29 71q0 55 36 109q35 53 94 94q57 39 137 64q77 24 155 24t141 -24q62 -24 96 -69q33 -45 33 -102q0 -58 -37 -119t-105 -114q-55 -43 -149 -90z" />
<glyph unicode="&#xb4;" horiz-adv-x="427" d="M197 1091h92q19 0 19 -10q0 -1 -12 -21l-10 -13l-110 -153l-9 -11q-12 -15 -17 -15q-7 0 -7 15l1 9l4 144q0 4 2 18q5 22 14 29q10 8 33 8z" />
<glyph unicode="&#xb5;" horiz-adv-x="661" d="M269 1056q-49 43 -115 80q-64 35 -135 55q-69 19 -129 19q-92 0 -149 -28q-59 -29 -59 -74q0 -50 65 -82q66 -32 172 -32q182 0 350 62zM449 1076q182 -236 182 -497q0 -84 -16 -154q-17 -73 -49 -139q-33 -65 -81 -125q-60 -73 -139 -121q-77 -47 -144 -47 q-78 0 -123 62t-45 170q0 255 213 448q41 38 80 61q41 24 58 24q12 0 12 -9q0 -6 -16 -13q-32 -15 -70 -53q-39 -39 -72 -90q-33 -52 -56 -136q-22 -81 -22 -160q0 -102 32 -171t80 -69q64 0 139 81q54 57 89 158q34 98 34 203q0 66 -14 136q-13 65 -44 138q-28 66 -71 131 q-39 58 -92 111q-83 -38 -185 -71q-72 -24 -164 -39q-90 -16 -157 -16q-104 0 -165 34t-61 90q0 40 35 96q34 56 93 102q66 53 141 83q76 30 145 30q65 0 139 -25q72 -25 142 -68q62 -39 136 -113l17 7q6 3 8.5 3.5t4.5 1.5q21 9 25 11l27.5 12l50.5 22q17 8 27 12q2 2 14 7 l28 12l292 126q170 70 278 102q105 31 188 31q56 0 111 -12q58 -14 99 -34q46 -24 70 -48q25 -26 25 -56q0 -22 -47 -77q-63 -70 -76 -70q-12 0 -12 7q0 1 6 10q12 17 12 37q0 45 -36 82t-98 57q-65 20 -145 20q-74 0 -171 -23q-92 -22 -215 -72q-121 -49 -264 -120 l-158 -79q2 0 -25 -11z" />
<glyph unicode="&#xb6;" horiz-adv-x="765" d="M41 -17l4 23l29 144q8 40 25.5 136t27.5 164l24 157q38 248 71 344q35 103 113 201q61 77 104 117t108 83q118 74 205 74q35 0 55 -11q19 -10 19 -30q0 -28 -56 -114q-34 -51 -45 -51q-13 0 -13 11q0 6 1 8l3 11q1 3 1 14q0 47 -91 47q-68 0 -117 -31q-51 -31 -87 -96 q-36 -62 -67 -172q-30 -105 -57 -277l-22 -144l-5 -33q6 5 16 15l63 62q68 68 143 107q74 38 138 38q53 0 53 -56q0 -13 -5 -46l-25 -149l-35 -205l-31 -192q-19 -118 -19 -161q0 -46 13 -62q14 -17 45 -17q24 0 45 9l17 7q6 3 12 3q13 0 13 -14q0 -6 -4 -10q-4 -5 -18 -9 q-15 -7 -76 -29l-73 -25q-72 -26 -107 -26q-36 0 -36 32q0 11 4 32l8 48l22 119l26 155q2 12 15 82q13 72 15 86q31 176 35 206q6 42 6 65q0 58 -40 58t-79 -36q-40 -37 -80 -110q-50 -90 -79 -193q-16 -60 -49 -239q-5 -32 -8 -37q-5 -9 -18 -16l-19 -11q-49 -29 -118 -56z " />
<glyph unicode="&#xb7;" horiz-adv-x="359" d="M312 780q13 0 13 -12q0 -7 -3 -28l-5 -36l-5 -38q-4 -25 -8 -45q-2 -9 -15 -19q-16 -12 -24 -17l-29 -19l-8 -5l-22 -13q-23 -14 -34 -14q-15 0 -15 19q0 8 1 11l3 24q7 72 17 113q4 22 23 30l22 10l26 13l32 15q24 11 31 11z" />
<glyph unicode="&#x2219;" horiz-adv-x="359" d="M312 780q13 0 13 -12q0 -7 -3 -28l-5 -36l-5 -38q-4 -25 -8 -45q-2 -9 -15 -19q-16 -12 -24 -17l-29 -19l-8 -5l-22 -13q-23 -14 -34 -14q-15 0 -15 19q0 8 1 11l3 24q7 72 17 113q4 22 23 30l22 10l26 13l32 15q24 11 31 11z" />
<glyph unicode="&#xb8;" horiz-adv-x="744" d="M805 1250q65 75 156 121q92 46 175 46q26 0 43 -11q16 -10 16 -29q0 -10 -11 -32l-28 -48q-15 -25 -26 -45q-21 -42 -36 -42q-8 0 -8 9q0 2 1 4.5t1 6.5q1 3 1 16q0 50 -83 50q-144 0 -212 -129q-23 -41 -39 -94q-20 -60 -41 -151l-48 -246q-4 -18 -6 -29q-5 -26 -5 -28 l-5 -30q-2 -8 -7 -33q-5 -21 -8 -45q-1 -10 -3 -18q0 -4 -1 -8l-2 -8l-34 -202q-17 -100 -17 -128q0 -59 50 -59q24 0 69 20q8 4 14 4q10 0 10 -10q0 -15 -51 -39q-141 -70 -207 -70q-17 0 -28 11q-12 11 -12 25q0 11 11 69q28 136 62 328l33 186l29 169q16 89 30 137 q12 47 34 87q26 48 58 95q22 31 22 40q0 12 -36 19q-40 8 -89 8q-124 0 -181 -135q-34 -77 -76 -288q-40 -199 -81 -444q-17 -105 -18 -119q-2 -18 -2 -24q0 -71 58 -71q19 0 51 17q16 8 19 8q4 0 7 -3t3 -7q0 -15 -50 -39q-122 -62 -191 -62q-55 0 -55 40q0 16 6 40 q15 74 17 85l26 135q1 4 8 41t9 51q2 6 4 19l3 20q1 6 3.5 19.5t7.5 38.5l39 222q18 104 52 175q32 69 98 154q91 118 195 181q104 62 201 62q51 0 75 -33z" />
<glyph unicode="&#xb9;" horiz-adv-x="526" d="M327 951l5 33q-16 -9 -17 -10l-96 -61q-68 -43 -109 -63q-13 -7 -17 -7q-11 0 -11 15q0 48 28 57l22 7q29 8 102 54q74 45 123 84q48 37 86 79q36 39 48 60q7 16 18 16q7 0 12 -5t5 -12t-3 -18q-15 -45 -44 -177q-52 -223 -104 -517q-16 -87 -39 -245q-10 -73 -10 -97 q0 -30 15 -44q16 -14 50 -14q21 0 34 5q9 4 14 4q8 0 8 -12q0 -17 -66 -37q-73 -22 -128 -35q-63 -15 -75 -15q-23 0 -23 19q0 7 7 43l29 150l39 198l61 320q23 131 36 225z" />
<glyph unicode="&#xba;" horiz-adv-x="1037" d="M704 637l3 25h-16q-33 0 -53 -12q-10 -5 -13 -5q-12 0 -12 11q0 18 41 65q27 28 71 48l3 18q15 80 24 105q7 23 31 57q23 33 47 57q20 20 69 58q-85 24 -193 24q-68 0 -117 -11q-48 -12 -79 -36q-40 -28 -62 -63q-23 -37 -23 -72q0 -34 19 -60q22 -30 74 -71 q38 -29 46 -39q11 -13 11 -26q0 -15 -16 -40l-10 -18l-15 -28q-34 -60 -50 -60q-14 0 -14 16q0 4 1 5v7q1 3 1 13q0 17 -13 30q-12 12 -37 22q-24 8 -51 8q-89 0 -150 -109q-63 -109 -63 -262q0 -104 37 -163q37 -61 98 -61q67 0 144 58q8 6 11 6q12 0 12 -12q0 -15 -48 -50 q-116 -80 -215 -80q-75 0 -122 60q-48 59 -48 156q0 191 173 393q55 61 91 89q39 30 85 43q-27 48 -27 95q0 62 41 129t109 123q70 58 146 89q78 32 154 32q50 0 122 -18q48 -12 73 -12q22 0 37 4q14 2 13 2q7 0 7 -7q0 -14 -45 -53q-45 -37 -77 -82q-28 -42 -45 -99 q-18 -63 -35 -165h28q42 0 53 -1q48 -3 65 -3q43 0 70 15l11 7q8 2 9 2q7 0 7 -7q0 -10 -16 -35q-18 -28 -35 -45q-24 -24 -52 -35t-70 -11h-20l-53 2h-15l-4 -22q-25 -163 -48 -332q-12 -88 -12 -137q0 -44 12 -65t38 -21q36 0 87 20q9 3 14 3q11 0 11 -12t-9 -18t-54 -24 q-37 -13 -54 -22l-53 -24q-39 -17 -61 -17q-32 0 -51 19q-20 20 -20 49q0 22 18 154q5 24 7 39t3 24q1 14 6 44q3 29 3 31l20 146z" />
<glyph unicode="&#xbb;" horiz-adv-x="679" d="M71 86h-51l14 16q83 96 141 180q43 61 43 85q0 18 -10 57l-18 72l-18 72l-16 67l-5 20l60 52q18 -29 44 -80l35 -69q2 -3 9 -17l7.5 -14.5l3.5 -6.5q6 -13 8 -17q3 -5 9 -19l34 -71q11 -22 11 -30q0 -12 -54 -65l-113 -108l-116 -108zM363 659l53 54q56 -93 93 -168 l38 -74q30 -61 30 -77t-18 -39q-19 -22 -78 -78l-68 -64q-15 -13 -34 -32l-12 -11.5t-15 -14.5q-59 -58 -81 -76h-51l11 14l53 66q81 100 111 146q34 47 34 77t-21 106l-18 72q-22 84 -27 99z" />
<glyph unicode="&#xbf;" horiz-adv-x="975" d="M248 278q0 -102 56 -156q55 -55 159 -55q78 0 147 32q66 32 105 84q39 53 39 117q0 42 -19 68q-19 27 -49 27q-25 0 -42 -11q-11 -7 -17 -7q-10 0 -10 10q0 13 51 58q65 58 113 58q42 0 70 -33q28 -32 28 -81q0 -110 -126 -233q-169 -165 -387 -165q-122 0 -196 66 t-74 175q0 78 45 154q44 74 150 172q89 82 125 124q35 41 48 83q16 49 34 154q7 42 18 53q8 9 59 31q39 17 42 18q24 11 31 11q16 0 16 -14q0 -8 -9 -40l-4 -17q-22 -77 -34 -106q-15 -34 -44 -69q-38 -45 -105 -115q-90 -97 -112 -124q-34 -44 -56 -82q-52 -92 -52 -187z M698 1351q18 0 18 -22q0 -14 -8 -57l-14 -68l-5 -17q-6 -22 -17 -33q-10 -10 -45 -22l-35 -13q-39 -16 -50 -16q-16 0 -16 16q0 18 20 98q12 48 19 60q6 12 31 27q71 47 102 47z" />
<glyph unicode="&#xc0;" d="M1042 552l-11 -25q6 4 37 28q34 27 57 35q20 7 65 7h177q48 0 61 9q14 9 21 43l12 54q27 126 87 251q27 55 50 93q16 27 84 133l10 16h-8q-75 0 -155 -27q-76 -26 -146 -77q-46 -34 -86.5 -78.5t-75.5 -100.5q-50 -80 -125 -242zM1415 477h-323q-48 0 -74 -17t-58 -71 q-99 -177 -196 -271q-49 -46 -103 -78q-54 -34 -112 -52t-103 -18q-56 0 -97 32q-40 31 -40 78q0 56 63 116q41 39 62 39q10 0 10 -11q0 -8 -11 -17q-19 -16 -19 -38q0 -40 40 -67q41 -27 100 -27q127 0 233 132q44 54 85 141q38 84 94 251q55 166 84 232q28 62 72 121 q40 51 82 89q39 35 99 70q51 29 151 73q-85 6 -142 13q-56 6 -166 22q-103 14 -177 21q-69 7 -126 7q-257 0 -442 -128q-104 -74 -165 -190q-62 -118 -62 -236q0 -95 39 -172q38 -77 107 -121q70 -44 154 -44q74 0 132 31q56 29 92 83q34 52 34 118q0 64 -40 107t-99 43 q-22 0 -37 -9q-14 -8 -17 -8q-10 0 -10 11t30 35q64 50 129 50q59 0 99 -42q39 -43 39 -105q0 -97 -62 -192q-64 -96 -162 -154q-100 -59 -206 -59q-96 0 -170 45q-76 45 -116 126q-42 81 -42 184q0 131 80 271t231 264q85 71 169 116q89 48 178 71q92 23 178 23 q102 0 323 -32q317 -45 426 -45t149 22l10 5q5 3 9 3q9 0 9 -13q0 -12 -31 -47q-64 -76 -126 -236q-33 -88 -56 -169t-42 -179q-36 -187 -36 -346q0 -246 109 -246q32 0 57 9l16 5q1 1 6 1q13 0 13 -14q0 -11 -50 -35q-43 -22 -91 -37q-46 -15 -74 -15q-65 0 -96 67 q-31 65 -31 206q0 92 17 208zM1503 1678h92q23 0 33 -8q8 -8 8 -29q0 -13 -1 -18l-21 -144l-1 -9q-3 -15 -10 -15q-5 0 -14 15l-7 11l-83 153l-7 13q-9 17 -9 21q0 10 20 10z" />
<glyph unicode="&#xc1;" d="M1042 552l-11 -25q6 4 37 28q34 27 57 35q20 7 65 7h177q48 0 61 9q14 9 21 43l12 54q27 126 87 251q27 55 50 93q16 27 84 133l10 16h-8q-75 0 -155 -27q-76 -26 -146 -77q-46 -34 -86.5 -78.5t-75.5 -100.5q-50 -80 -125 -242zM1415 477h-323q-48 0 -74 -17t-58 -71 q-99 -177 -196 -271q-49 -46 -103 -78q-54 -34 -112 -52t-103 -18q-56 0 -97 32q-40 31 -40 78q0 56 63 116q41 39 62 39q10 0 10 -11q0 -8 -11 -17q-19 -16 -19 -38q0 -40 40 -67q41 -27 100 -27q127 0 233 132q44 54 85 141q38 84 94 251q55 166 84 232q28 62 72 121 q40 51 82 89q39 35 99 70q51 29 151 73q-85 6 -142 13q-56 6 -166 22q-103 14 -177 21q-69 7 -126 7q-257 0 -442 -128q-104 -74 -165 -190q-62 -118 -62 -236q0 -95 39 -172q38 -77 107 -121q70 -44 154 -44q74 0 132 31q56 29 92 83q34 52 34 118q0 64 -40 107t-99 43 q-22 0 -37 -9q-14 -8 -17 -8q-10 0 -10 11t30 35q64 50 129 50q59 0 99 -42q39 -43 39 -105q0 -97 -62 -192q-64 -96 -162 -154q-100 -59 -206 -59q-96 0 -170 45q-76 45 -116 126q-42 81 -42 184q0 131 80 271t231 264q85 71 169 116q89 48 178 71q92 23 178 23 q102 0 323 -32q317 -45 426 -45t149 22l10 5q5 3 9 3q9 0 9 -13q0 -12 -31 -47q-64 -76 -126 -236q-33 -88 -56 -169t-42 -179q-36 -187 -36 -346q0 -246 109 -246q32 0 57 9l16 5q1 1 6 1q13 0 13 -14q0 -11 -50 -35q-43 -22 -91 -37q-46 -15 -74 -15q-65 0 -96 67 q-31 65 -31 206q0 92 17 208zM1674 1678h92q19 0 19 -10q0 -1 -12 -21l-10 -13l-110 -153l-9 -11q-12 -15 -17 -15q-7 0 -7 15l1 9l4 144q0 4 2 18q5 22 14 29q10 8 33 8z" />
<glyph unicode="&#xc2;" d="M1042 552l-11 -25q6 4 37 28q34 27 57 35q20 7 65 7h177q48 0 61 9q14 9 21 43l12 54q27 126 87 251q27 55 50 93q16 27 84 133l10 16h-8q-75 0 -155 -27q-76 -26 -146 -77q-46 -34 -86.5 -78.5t-75.5 -100.5q-50 -80 -125 -242zM1415 477h-323q-48 0 -74 -17t-58 -71 q-99 -177 -196 -271q-49 -46 -103 -78q-54 -34 -112 -52t-103 -18q-56 0 -97 32q-40 31 -40 78q0 56 63 116q41 39 62 39q10 0 10 -11q0 -8 -11 -17q-19 -16 -19 -38q0 -40 40 -67q41 -27 100 -27q127 0 233 132q44 54 85 141q38 84 94 251q55 166 84 232q28 62 72 121 q40 51 82 89q39 35 99 70q51 29 151 73q-85 6 -142 13q-56 6 -166 22q-103 14 -177 21q-69 7 -126 7q-257 0 -442 -128q-104 -74 -165 -190q-62 -118 -62 -236q0 -95 39 -172q38 -77 107 -121q70 -44 154 -44q74 0 132 31q56 29 92 83q34 52 34 118q0 64 -40 107t-99 43 q-22 0 -37 -9q-14 -8 -17 -8q-10 0 -10 11t30 35q64 50 129 50q59 0 99 -42q39 -43 39 -105q0 -97 -62 -192q-64 -96 -162 -154q-100 -59 -206 -59q-96 0 -170 45q-76 45 -116 126q-42 81 -42 184q0 131 80 271t231 264q85 71 169 116q89 48 178 71q92 23 178 23 q102 0 323 -32q317 -45 426 -45t149 22l10 5q5 3 9 3q9 0 9 -13q0 -12 -31 -47q-64 -76 -126 -236q-33 -88 -56 -169t-42 -179q-36 -187 -36 -346q0 -246 109 -246q32 0 57 9l16 5q1 1 6 1q13 0 13 -14q0 -11 -50 -35q-43 -22 -91 -37q-46 -15 -74 -15q-65 0 -96 67 q-31 65 -31 206q0 92 17 208zM1669 1749q14 -2 44 -49q45 -73 104 -154q15 -19 15 -24q0 -7 -18 -19q-17 -11 -29 -11t-37 17l-43 32l-40 32q-41 31 -51 31q-14 0 -112 -54q-8 -4 -26 -14l-16 -9l-39 -20q-16 -9 -21 -9q-9 0 -9 9q0 3 8 11l11 11q13 13 41 37l46 41 q45 39 48 42l43 40l38 33q29 27 43 27z" />
<glyph unicode="&#xc3;" d="M1042 552l-11 -25q6 4 37 28q34 27 57 35q20 7 65 7h177q48 0 61 9q14 9 21 43l12 54q27 126 87 251q27 55 50 93q16 27 84 133l10 16h-8q-75 0 -155 -27q-76 -26 -146 -77q-46 -34 -86.5 -78.5t-75.5 -100.5q-50 -80 -125 -242zM1415 477h-323q-48 0 -74 -17t-58 -71 q-99 -177 -196 -271q-49 -46 -103 -78q-54 -34 -112 -52t-103 -18q-56 0 -97 32q-40 31 -40 78q0 56 63 116q41 39 62 39q10 0 10 -11q0 -8 -11 -17q-19 -16 -19 -38q0 -40 40 -67q41 -27 100 -27q127 0 233 132q44 54 85 141q38 84 94 251q55 166 84 232q28 62 72 121 q40 51 82 89q39 35 99 70q51 29 151 73q-85 6 -142 13q-56 6 -166 22q-103 14 -177 21q-69 7 -126 7q-257 0 -442 -128q-104 -74 -165 -190q-62 -118 -62 -236q0 -95 39 -172q38 -77 107 -121q70 -44 154 -44q74 0 132 31q56 29 92 83q34 52 34 118q0 64 -40 107t-99 43 q-22 0 -37 -9q-14 -8 -17 -8q-10 0 -10 11t30 35q64 50 129 50q59 0 99 -42q39 -43 39 -105q0 -97 -62 -192q-64 -96 -162 -154q-100 -59 -206 -59q-96 0 -170 45q-76 45 -116 126q-42 81 -42 184q0 131 80 271t231 264q85 71 169 116q89 48 178 71q92 23 178 23 q102 0 323 -32q317 -45 426 -45t149 22l10 5q5 3 9 3q9 0 9 -13q0 -12 -31 -47q-64 -76 -126 -236q-33 -88 -56 -169t-42 -179q-36 -187 -36 -346q0 -246 109 -246q32 0 57 9l16 5q1 1 6 1q13 0 13 -14q0 -11 -50 -35q-43 -22 -91 -37q-46 -15 -74 -15q-65 0 -96 67 q-31 65 -31 206q0 92 17 208zM1709 1539q-21 0 -81 12q-103 22 -145 22q-32 0 -49 -14l-11 -8q-8 -5 -11 -5q-11 0 -11 14q0 17 77 73q43 32 61 42q20 9 48 9q26 0 116 -17q65 -13 91 -13q33 0 48 12l9 8q8 5 15 5q11 0 11 -10t-19 -30q-19 -22 -46 -43q-72 -57 -103 -57z " />
<glyph unicode="&#xc4;" d="M1042 552l-11 -25q6 4 37 28q34 27 57 35q20 7 65 7h177q48 0 61 9q14 9 21 43l12 54q27 126 87 251q27 55 50 93q16 27 84 133l10 16h-8q-75 0 -155 -27q-76 -26 -146 -77q-46 -34 -86.5 -78.5t-75.5 -100.5q-50 -80 -125 -242zM1415 477h-323q-48 0 -74 -17t-58 -71 q-99 -177 -196 -271q-49 -46 -103 -78q-54 -34 -112 -52t-103 -18q-56 0 -97 32q-40 31 -40 78q0 56 63 116q41 39 62 39q10 0 10 -11q0 -8 -11 -17q-19 -16 -19 -38q0 -40 40 -67q41 -27 100 -27q127 0 233 132q44 54 85 141q38 84 94 251q55 166 84 232q28 62 72 121 q40 51 82 89q39 35 99 70q51 29 151 73q-85 6 -142 13q-56 6 -166 22q-103 14 -177 21q-69 7 -126 7q-257 0 -442 -128q-104 -74 -165 -190q-62 -118 -62 -236q0 -95 39 -172q38 -77 107 -121q70 -44 154 -44q74 0 132 31q56 29 92 83q34 52 34 118q0 64 -40 107t-99 43 q-22 0 -37 -9q-14 -8 -17 -8q-10 0 -10 11t30 35q64 50 129 50q59 0 99 -42q39 -43 39 -105q0 -97 -62 -192q-64 -96 -162 -154q-100 -59 -206 -59q-96 0 -170 45q-76 45 -116 126q-42 81 -42 184q0 131 80 271t231 264q85 71 169 116q89 48 178 71q92 23 178 23 q102 0 323 -32q317 -45 426 -45t149 22l10 5q5 3 9 3q9 0 9 -13q0 -12 -31 -47q-64 -76 -126 -236q-33 -88 -56 -169t-42 -179q-36 -187 -36 -346q0 -246 109 -246q32 0 57 9l16 5q1 1 6 1q13 0 13 -14q0 -11 -50 -35q-43 -22 -91 -37q-46 -15 -74 -15q-65 0 -96 67 q-31 65 -31 206q0 92 17 208zM1800 1649l-10 -74q-5 -38 -18 -53q-14 -15 -61 -32l-29 -10q-12 -4 -18 -4q-16 0 -16 18q0 14 1 19l4 35l5 37q6 44 14 59q8 14 31 25q80 39 89 39q13 0 13 -15v-4q-1 -1 -1 -5q-1 -5 -1 -15l-2 -9v-7q-1 -1 -1 -4zM1566 1649l-11 -74 q-5 -40 -18 -53q-14 -16 -60 -32l-29 -10q-15 -4 -18 -4q-17 0 -17 18q0 1 2 19l4 35l5 37q6 43 14 59q7 14 31 25q78 39 89 39q12 0 12 -15v-9q-3 -19 -3 -24q-1 -3 -1 -11z" />
<glyph unicode="&#xc5;" d="M1042 552l-11 -25q6 4 37 28q34 27 57 35q20 7 65 7h177q48 0 61 9q14 9 21 43l12 54q27 126 87 251q27 55 50 93q16 27 84 133l10 16h-8q-75 0 -155 -27q-76 -26 -146 -77q-46 -34 -86.5 -78.5t-75.5 -100.5q-50 -80 -125 -242zM1415 477h-323q-48 0 -74 -17t-58 -71 q-99 -177 -196 -271q-49 -46 -103 -78q-54 -34 -112 -52t-103 -18q-56 0 -97 32q-40 31 -40 78q0 56 63 116q41 39 62 39q10 0 10 -11q0 -8 -11 -17q-19 -16 -19 -38q0 -40 40 -67q41 -27 100 -27q127 0 233 132q44 54 85 141q38 84 94 251q55 166 84 232q28 62 72 121 q40 51 82 89q39 35 99 70q51 29 151 73q-85 6 -142 13q-56 6 -166 22q-103 14 -177 21q-69 7 -126 7q-257 0 -442 -128q-104 -74 -165 -190q-62 -118 -62 -236q0 -95 39 -172q38 -77 107 -121q70 -44 154 -44q74 0 132 31q56 29 92 83q34 52 34 118q0 64 -40 107t-99 43 q-22 0 -37 -9q-14 -8 -17 -8q-10 0 -10 11t30 35q64 50 129 50q59 0 99 -42q39 -43 39 -105q0 -97 -62 -192q-64 -96 -162 -154q-100 -59 -206 -59q-96 0 -170 45q-76 45 -116 126q-42 81 -42 184q0 131 80 271t231 264q85 71 169 116q89 48 178 71q92 23 178 23 q102 0 323 -32q317 -45 426 -45t149 22l10 5q5 3 9 3q9 0 9 -13q0 -12 -31 -47q-64 -76 -126 -236q-33 -88 -56 -169t-42 -179q-36 -187 -36 -346q0 -246 109 -246q32 0 57 9l16 5q1 1 6 1q13 0 13 -14q0 -11 -50 -35q-43 -22 -91 -37q-46 -15 -74 -15q-65 0 -96 67 q-31 65 -31 206q0 92 17 208zM1585 1562q0 -33 15 -57t37 -24q43 0 74 48q31 46 31 112q0 63 -50 63q-40 0 -73 -45q-34 -46 -34 -97zM1598 1430q-38 0 -64 29t-26 71q0 90 102 168q76 58 141 58q67 0 67 -88q0 -95 -97 -180q-67 -58 -123 -58z" />
<glyph unicode="&#xc6;" horiz-adv-x="2225" d="M1004 153l-20 17l-104.5 100t-88.5 92.5t-105.5 121.5t-90.5 116q-43 60 -69 87q-25 26 -51 36q-25 9 -66 9q-83 0 -134 -61q-52 -61 -52 -159q0 -117 70 -223q69 -106 186 -169q115 -64 245 -64q27 0 64 5q31 4 68 17q37 11 70 30q35 18 78 45zM459 813q-50 95 -50 171 q0 65 37 127q37 64 99 113q59 48 138 77q75 28 155 28q109 0 180 -56q70 -57 70 -144q0 -84 -96 -134q-49 -24 -81 -24q-16 0 -16 12q0 3 14 14q46 34 46 105q0 74 -54 120q-54 45 -145 45q-102 0 -164 -56t-62 -150q0 -73 45 -171t131 -214q115 -151 221 -260 q75 -75 117.5 -113.5t106.5 -88.5q73 -55 139 -87q64 -33 135 -50q65 -16 142 -16q102 0 181 32q77 32 149 102q76 76 113 166t37 192q0 118 -55 212q-54 92 -154 149q-97 55 -216 55q-89 0 -164 -42q-74 -42 -118 -114q-44 -74 -44 -158q0 -69 28 -112q29 -44 78 -53 q20 -5 20 -13q0 -14 -22 -21q-24 -8 -60 -8q-83 0 -134 51t-51 134q0 69 46 143q47 74 120 129q74 57 174 89q98 30 201 30q68 0 135 -16q69 -17 124 -48q57 -32 106 -80q109 -108 109 -280q0 -254 -224 -436q-211 -172 -498 -172q-111 0 -203 30q-90 28 -206 102 q-114 -74 -208 -105q-92 -31 -208 -31q-208 0 -351 113q-75 62 -119 147t-44 168q0 138 95 247q95 107 255 150z" />
<glyph unicode="&#xc7;" horiz-adv-x="1123" d="M620 -11l-8 -9q-38 -47 -38 -68q0 -12 24 -27l28 -16q35 -20 54 -39t19 -33q0 -19 -32 -54q-31 -34 -86 -72q-91 -61 -110 -61q-6 0 -6 8q0 14 15 46q6 10 15 12l18 4q80 17 80 55q0 18 -32 39q-51 34 -66 50q-14 14 -14 35q0 41 85 122l6 5h-3h-1q-128 0 -240 76 q-114 77 -180 204q-66 128 -66 278q0 203 103 384q101 180 272 292q170 111 354 111q72 0 132 -20q58 -21 102 -59q42 -36 67 -89q24 -51 24 -112q0 -76 -28 -142q-29 -69 -78 -121q-52 -55 -114 -83q-64 -30 -134 -30q-74 0 -129 44q-55 43 -55 103q0 70 50 120 q19 19 40 31q22 13 36 13q13 0 13 -10q0 -4 -4 -9l-9 -13q-22 -28 -22 -70q0 -53 48 -89t117 -36q50 0 93 27q41 25 66 73q24 47 24 102q0 53 -23 104q-24 49 -67 86q-84 72 -229 72q-156 0 -282 -75q-126 -77 -198 -208q-73 -131 -73 -295q0 -134 52 -251q51 -119 140 -192 q65 -50 142 -78t155 -28q76 0 151 32q74 32 120 85q11 11 18 11q10 0 10 -11q0 -20 -34 -57q-35 -38 -88 -76q-111 -78 -224 -91z" />
<glyph unicode="&#xc8;" horiz-adv-x="1308" d="M513 588h-30q-16 0 -30 -6l-16 -9q-9 -3 -11 -3q-9 0 -9 12q0 10 19 28l39 36l37 32l4 4l7 7l3 21q18 130 22 154q7 37 22 87q31 101 85 174l48 63q1 2 6 7q4 6 7 11q-64 4 -119 4q-66 0 -128 -8q-61 -9 -104 -27q-47 -21 -83 -50q-126 -100 -126 -212q0 -62 41 -105 q40 -43 101 -43q28 0 47 15q8 6 12 6q13 0 13 -11t-37 -45q-63 -60 -117 -60q-55 0 -94 45q-39 44 -39 107q0 84 52 187q53 102 135 180q161 152 379 152q83 0 259 -22q151 -19 232 -19q109 0 144 35l13 14q7 7 13 7q10 0 10 -11t-16 -37q-18 -30 -34 -47q-44 -52 -71 -66 q-28 -16 -76 -16q-55 0 -150 9l-90 9q-43 4 -66 4q-48 0 -75 -59q-25 -61 -45 -167.5t-37 -265.5h39q64 0 87 -1q35 -2 100 -3h30q6 -1 20 -1q102 0 168 51q8 7 15 7q10 0 10 -8q0 -17 -46 -78q-27 -36 -53 -56q-24 -20 -55 -28q-30 -8 -76 -8h-254q-12 -100 -27 -159 q-15 -57 -41 -105t-66 -95q-42 -51 -88 -90l28 -1q86 -1 275 -13q201 -13 273 -13q210 0 283 70l17 16q6 6 11 6q11 0 11 -15t-26 -55q-23 -37 -68 -85q-40 -43 -72 -55q-30 -13 -100 -13q-93 0 -313 16l-180 14q-51 4 -146 10q-78 3 -147 3q-113 0 -169 -36q-13 -8 -17 -8 q-15 0 -15 14q0 11 43 55q8 8 11 12q3 3 6 6.5t4 5.5q7 7 11 12q33 38 48 45q14 8 49 11l58 5q50 5 83 21q32 15 55 50q21 33 37 95q16 70 25 151q12 105 15 129zM824 1678h92q23 0 33 -8q8 -8 8 -29q0 -13 -1 -18l-21 -144l-1 -9q-3 -15 -10 -15q-5 0 -14 15l-7 11l-83 153 l-7 13q-9 17 -9 21q0 10 20 10z" />
<glyph unicode="&#xc9;" horiz-adv-x="1308" d="M513 588h-30q-16 0 -30 -6l-16 -9q-9 -3 -11 -3q-9 0 -9 12q0 10 19 28l39 36l37 32l4 4l7 7l3 21q18 130 22 154q7 37 22 87q31 101 85 174l48 63q1 2 6 7q4 6 7 11q-64 4 -119 4q-66 0 -128 -8q-61 -9 -104 -27q-47 -21 -83 -50q-126 -100 -126 -212q0 -62 41 -105 q40 -43 101 -43q28 0 47 15q8 6 12 6q13 0 13 -11t-37 -45q-63 -60 -117 -60q-55 0 -94 45q-39 44 -39 107q0 84 52 187q53 102 135 180q161 152 379 152q83 0 259 -22q151 -19 232 -19q109 0 144 35l13 14q7 7 13 7q10 0 10 -11t-16 -37q-18 -30 -34 -47q-44 -52 -71 -66 q-28 -16 -76 -16q-55 0 -150 9l-90 9q-43 4 -66 4q-48 0 -75 -59q-25 -61 -45 -167.5t-37 -265.5h39q64 0 87 -1q35 -2 100 -3h30q6 -1 20 -1q102 0 168 51q8 7 15 7q10 0 10 -8q0 -17 -46 -78q-27 -36 -53 -56q-24 -20 -55 -28q-30 -8 -76 -8h-254q-12 -100 -27 -159 q-15 -57 -41 -105t-66 -95q-42 -51 -88 -90l28 -1q86 -1 275 -13q201 -13 273 -13q210 0 283 70l17 16q6 6 11 6q11 0 11 -15t-26 -55q-23 -37 -68 -85q-40 -43 -72 -55q-30 -13 -100 -13q-93 0 -313 16l-180 14q-51 4 -146 10q-78 3 -147 3q-113 0 -169 -36q-13 -8 -17 -8 q-15 0 -15 14q0 11 43 55q8 8 11 12q3 3 6 6.5t4 5.5q7 7 11 12q33 38 48 45q14 8 49 11l58 5q50 5 83 21q32 15 55 50q21 33 37 95q16 70 25 151q12 105 15 129zM951 1678h92q19 0 19 -10q0 -1 -12 -21l-10 -13l-110 -153l-9 -11q-12 -15 -17 -15q-7 0 -7 15l1 9l4 144 q0 4 2 18q5 22 14 29q10 8 33 8z" />
<glyph unicode="&#xca;" horiz-adv-x="1308" d="M513 588h-30q-16 0 -30 -6l-16 -9q-9 -3 -11 -3q-9 0 -9 12q0 10 19 28l39 36l37 32l4 4l7 7l3 21q18 130 22 154q7 37 22 87q31 101 85 174l48 63q1 2 6 7q4 6 7 11q-64 4 -119 4q-66 0 -128 -8q-61 -9 -104 -27q-47 -21 -83 -50q-126 -100 -126 -212q0 -62 41 -105 q40 -43 101 -43q28 0 47 15q8 6 12 6q13 0 13 -11t-37 -45q-63 -60 -117 -60q-55 0 -94 45q-39 44 -39 107q0 84 52 187q53 102 135 180q161 152 379 152q83 0 259 -22q151 -19 232 -19q109 0 144 35l13 14q7 7 13 7q10 0 10 -11t-16 -37q-18 -30 -34 -47q-44 -52 -71 -66 q-28 -16 -76 -16q-55 0 -150 9l-90 9q-43 4 -66 4q-48 0 -75 -59q-25 -61 -45 -167.5t-37 -265.5h39q64 0 87 -1q35 -2 100 -3h30q6 -1 20 -1q102 0 168 51q8 7 15 7q10 0 10 -8q0 -17 -46 -78q-27 -36 -53 -56q-24 -20 -55 -28q-30 -8 -76 -8h-254q-12 -100 -27 -159 q-15 -57 -41 -105t-66 -95q-42 -51 -88 -90l28 -1q86 -1 275 -13q201 -13 273 -13q210 0 283 70l17 16q6 6 11 6q11 0 11 -15t-26 -55q-23 -37 -68 -85q-40 -43 -72 -55q-30 -13 -100 -13q-93 0 -313 16l-180 14q-51 4 -146 10q-78 3 -147 3q-113 0 -169 -36q-13 -8 -17 -8 q-15 0 -15 14q0 11 43 55q8 8 11 12q3 3 6 6.5t4 5.5q7 7 11 12q33 38 48 45q14 8 49 11l58 5q50 5 83 21q32 15 55 50q21 33 37 95q16 70 25 151q12 105 15 129zM1012 1757q14 -2 44 -49q45 -73 104 -154q15 -19 15 -24q0 -7 -18 -19q-17 -11 -29 -11t-37 17l-43 32l-40 32 q-41 31 -51 31q-14 0 -112 -54q-8 -4 -26 -14l-16 -9l-39 -20q-16 -9 -21 -9q-9 0 -9 9q0 3 8 11l11 11q13 13 41 37l46 41q45 39 48 42l43 40l38 33q29 27 43 27z" />
<glyph unicode="&#xcb;" horiz-adv-x="1308" d="M513 588h-30q-16 0 -30 -6l-16 -9q-9 -3 -11 -3q-9 0 -9 12q0 10 19 28l39 36l37 32l4 4l7 7l3 21q18 130 22 154q7 37 22 87q31 101 85 174l48 63q1 2 6 7q4 6 7 11q-64 4 -119 4q-66 0 -128 -8q-61 -9 -104 -27q-47 -21 -83 -50q-126 -100 -126 -212q0 -62 41 -105 q40 -43 101 -43q28 0 47 15q8 6 12 6q13 0 13 -11t-37 -45q-63 -60 -117 -60q-55 0 -94 45q-39 44 -39 107q0 84 52 187q53 102 135 180q161 152 379 152q83 0 259 -22q151 -19 232 -19q109 0 144 35l13 14q7 7 13 7q10 0 10 -11t-16 -37q-18 -30 -34 -47q-44 -52 -71 -66 q-28 -16 -76 -16q-55 0 -150 9l-90 9q-43 4 -66 4q-48 0 -75 -59q-25 -61 -45 -167.5t-37 -265.5h39q64 0 87 -1q35 -2 100 -3h30q6 -1 20 -1q102 0 168 51q8 7 15 7q10 0 10 -8q0 -17 -46 -78q-27 -36 -53 -56q-24 -20 -55 -28q-30 -8 -76 -8h-254q-12 -100 -27 -159 q-15 -57 -41 -105t-66 -95q-42 -51 -88 -90l28 -1q86 -1 275 -13q201 -13 273 -13q210 0 283 70l17 16q6 6 11 6q11 0 11 -15t-26 -55q-23 -37 -68 -85q-40 -43 -72 -55q-30 -13 -100 -13q-93 0 -313 16l-180 14q-51 4 -146 10q-78 3 -147 3q-113 0 -169 -36q-13 -8 -17 -8 q-15 0 -15 14q0 11 43 55q8 8 11 12q3 3 6 6.5t4 5.5q7 7 11 12q33 38 48 45q14 8 49 11l58 5q50 5 83 21q32 15 55 50q21 33 37 95q16 70 25 151q12 105 15 129zM1118 1649l-10 -74q-5 -38 -18 -53q-14 -15 -61 -32l-29 -10q-12 -4 -18 -4q-16 0 -16 18q0 14 1 19l4 35 l5 37q6 44 14 59q8 14 31 25q80 39 89 39q13 0 13 -15v-4q-1 -1 -1 -5q-1 -5 -1 -15l-2 -9v-7q-1 -1 -1 -4zM884 1649l-11 -74q-5 -40 -18 -53q-14 -16 -60 -32l-29 -10q-15 -4 -18 -4q-17 0 -17 18q0 1 2 19l4 35l5 37q6 43 14 59q7 14 31 25q78 39 89 39q12 0 12 -15v-9 q-3 -19 -3 -24q-1 -3 -1 -11z" />
<glyph unicode="&#xcc;" horiz-adv-x="750" d="M810 1190l15 17l-35 -1q2 0 -46 2l-73 4q-72 2 -79 2q-140 0 -217 -69q-80 -74 -80 -178q0 -71 39 -118q38 -48 95 -48q38 0 56 18q11 11 16 11q10 0 10 -12q0 -18 -25 -50q-52 -67 -116 -67q-67 0 -112 48q-46 47 -46 117q0 118 73 225q34 51 82 96t108 79 q116 67 243 67q19 0 121 -6q65 -5 86 -5q27 0 48 9q13 7 22 7q15 0 15 -11q0 -8 -24 -28q-37 -29 -76 -72q-37 -43 -63 -81q-39 -61 -58 -134q-21 -75 -39 -231l-19 -167q-17 -148 -58 -245q-43 -99 -126 -180q-82 -82 -198 -141t-194 -59q-50 0 -82 24q-32 23 -32 65 q0 28 16 57q18 33 50 69q35 38 44 38q6 0 10 -6q3 -3 3 -6q0 -5 -7 -13q-14 -23 -14 -44q0 -34 37 -59q35 -25 87 -25q72 0 139 39q68 39 102 99q22 37 34 72q11 32 23 93q9 50 22 155q17 140 36 258q16 97 34 152q19 56 51 107q32 48 102 126zM720 1678h92q23 0 33 -8 q8 -8 8 -29q0 -13 -1 -18l-21 -144l-1 -9q-3 -15 -10 -15q-5 0 -14 15l-7 11l-83 153l-7 13q-9 17 -9 21q0 10 20 10z" />
<glyph unicode="&#xcd;" horiz-adv-x="750" d="M810 1190l15 17l-35 -1q2 0 -46 2l-73 4q-72 2 -79 2q-140 0 -217 -69q-80 -74 -80 -178q0 -71 39 -118q38 -48 95 -48q38 0 56 18q11 11 16 11q10 0 10 -12q0 -18 -25 -50q-52 -67 -116 -67q-67 0 -112 48q-46 47 -46 117q0 118 73 225q34 51 82 96t108 79 q116 67 243 67q19 0 121 -6q65 -5 86 -5q27 0 48 9q13 7 22 7q15 0 15 -11q0 -8 -24 -28q-37 -29 -76 -72q-37 -43 -63 -81q-39 -61 -58 -134q-21 -75 -39 -231l-19 -167q-17 -148 -58 -245q-43 -99 -126 -180q-82 -82 -198 -141t-194 -59q-50 0 -82 24q-32 23 -32 65 q0 28 16 57q18 33 50 69q35 38 44 38q6 0 10 -6q3 -3 3 -6q0 -5 -7 -13q-14 -23 -14 -44q0 -34 37 -59q35 -25 87 -25q72 0 139 39q68 39 102 99q22 37 34 72q11 32 23 93q9 50 22 155q17 140 36 258q16 97 34 152q19 56 51 107q32 48 102 126zM823 1678h92q19 0 19 -10 q0 -1 -12 -21l-10 -13l-110 -153l-9 -11q-12 -15 -17 -15q-7 0 -7 15l1 9l4 144q0 4 2 18q5 22 14 29q10 8 33 8z" />
<glyph unicode="&#xce;" horiz-adv-x="750" d="M810 1190l15 17l-35 -1q2 0 -46 2l-73 4q-72 2 -79 2q-140 0 -217 -69q-80 -74 -80 -178q0 -71 39 -118q38 -48 95 -48q38 0 56 18q11 11 16 11q10 0 10 -12q0 -18 -25 -50q-52 -67 -116 -67q-67 0 -112 48q-46 47 -46 117q0 118 73 225q34 51 82 96t108 79 q116 67 243 67q19 0 121 -6q65 -5 86 -5q27 0 48 9q13 7 22 7q15 0 15 -11q0 -8 -24 -28q-37 -29 -76 -72q-37 -43 -63 -81q-39 -61 -58 -134q-21 -75 -39 -231l-19 -167q-17 -148 -58 -245q-43 -99 -126 -180q-82 -82 -198 -141t-194 -59q-50 0 -82 24q-32 23 -32 65 q0 28 16 57q18 33 50 69q35 38 44 38q6 0 10 -6q3 -3 3 -6q0 -5 -7 -13q-14 -23 -14 -44q0 -34 37 -59q35 -25 87 -25q72 0 139 39q68 39 102 99q22 37 34 72q11 32 23 93q9 50 22 155q17 140 36 258q16 97 34 152q19 56 51 107q32 48 102 126zM823 1749q14 -2 44 -49 q45 -73 104 -154q15 -19 15 -24q0 -7 -18 -19q-17 -11 -29 -11t-37 17l-43 32l-40 32q-41 31 -51 31q-14 0 -112 -54q-8 -4 -26 -14l-16 -9l-39 -20q-16 -9 -21 -9q-9 0 -9 9q0 3 8 11l11 11q13 13 41 37l46 41q45 39 48 42l43 40l38 33q29 27 43 27z" />
<glyph unicode="&#xcf;" horiz-adv-x="750" d="M810 1190l15 17l-35 -1q2 0 -46 2l-73 4q-72 2 -79 2q-140 0 -217 -69q-80 -74 -80 -178q0 -71 39 -118q38 -48 95 -48q38 0 56 18q11 11 16 11q10 0 10 -12q0 -18 -25 -50q-52 -67 -116 -67q-67 0 -112 48q-46 47 -46 117q0 118 73 225q34 51 82 96t108 79 q116 67 243 67q19 0 121 -6q65 -5 86 -5q27 0 48 9q13 7 22 7q15 0 15 -11q0 -8 -24 -28q-37 -29 -76 -72q-37 -43 -63 -81q-39 -61 -58 -134q-21 -75 -39 -231l-19 -167q-17 -148 -58 -245q-43 -99 -126 -180q-82 -82 -198 -141t-194 -59q-50 0 -82 24q-32 23 -32 65 q0 28 16 57q18 33 50 69q35 38 44 38q6 0 10 -6q3 -3 3 -6q0 -5 -7 -13q-14 -23 -14 -44q0 -34 37 -59q35 -25 87 -25q72 0 139 39q68 39 102 99q22 37 34 72q11 32 23 93q9 50 22 155q17 140 36 258q16 97 34 152q19 56 51 107q32 48 102 126zM948 1649l-10 -74 q-5 -38 -18 -53q-14 -15 -61 -32l-29 -10q-12 -4 -18 -4q-16 0 -16 18q0 14 1 19l4 35l5 37q6 44 14 59q8 14 31 25q80 39 89 39q13 0 13 -15v-4q-1 -1 -1 -5q-1 -5 -1 -15l-2 -9v-7q-1 -1 -1 -4zM714 1649l-11 -74q-5 -40 -18 -53q-14 -16 -60 -32l-29 -10q-15 -4 -18 -4 q-17 0 -17 18q0 1 2 19l4 35l5 37q6 43 14 59q7 14 31 25q78 39 89 39q12 0 12 -15v-9q-3 -19 -3 -24q-1 -3 -1 -11z" />
<glyph unicode="&#xd1;" horiz-adv-x="2237" d="M2003 396l8 -20l10 52q33 162 47 219q21 83 43 147q48 144 113 251q63 102 152 182q78 69 158 103q81 35 159 35q74 0 116 -30q42 -31 42 -84q0 -61 -59 -120q-29 -29 -46 -29q-14 0 -14 12q0 4 8 12q17 17 17 39q0 43 -38 70q-37 27 -100 27q-76 0 -155 -40t-142 -112 q-65 -74 -109 -190q-46 -121 -76 -293q-18 -99 -31 -204q-11 -89 -19 -203l-6 -96l-2 -19q-18 -26 -33 -44l-28 -33q-31 -37 -40 -37q-8 0 -8 9q0 7 1 9q5 18 5 44q0 82 -48 194q-28 66 -95 189l-147 258l-74 135q-19 36 -40 86q-18 44 -27 82q-7 24 -23 109l-6 -26 q-31 -136 -56 -226q-24 -87 -48 -153q-26 -74 -64.5 -155t-77.5 -142t-87 -118.5t-97 -100.5q-110 -100 -254 -158q-145 -59 -278 -59q-137 0 -251 57q-113 57 -181 156q-67 98 -67 219q0 52 17 112q16 55 49 114q33 58 70 98q41 43 89 72q44 27 100 43q53 15 106 15 q45 0 79 -15q34 -16 53 -43q19 -28 19 -63q0 -50 -62 -100q-43 -32 -57 -32q-11 0 -11 9q0 4 1 5l5 7q15 20 15 56q0 46 -35 76q-36 30 -90 30q-66 0 -128 -42q-60 -42 -98 -114q-37 -71 -37 -149q0 -121 67 -218q68 -100 182 -156q115 -58 253 -58q118 0 226 44 q103 42 194 133q89 89 151 209q60 116 116 295t111 429l6 26q-70 4 -147 11q-99 9 -136 9q-96 0 -173 -30q-75 -31 -119 -87t-44 -124q0 -65 39 -115q39 -49 92 -49q26 0 49 14l17 10q8 5 12 5q12 0 12 -12t-24 -41q-60 -75 -144 -75q-68 0 -104 45q-36 44 -36 124 q0 81 44 164t117 150q72 67 162 106q89 39 176 39q40 0 110 -7q113 -12 160 -12q58 0 94 9q15 5 20 5q10 0 10 -10q0 -7 -7 -14q-33 -36 -33 -93q0 -33 13 -66q11 -32 42 -89q31 -58 128 -226l83 -142q67 -115 88 -157q28 -54 56 -129zM2161 1539q-21 0 -81 12 q-103 22 -145 22q-32 0 -49 -14l-11 -8q-8 -5 -11 -5q-11 0 -11 14q0 17 77 73q43 32 61 42q20 9 48 9q26 0 116 -17q65 -13 91 -13q33 0 48 12l9 8q8 5 15 5q11 0 11 -10t-19 -30q-19 -22 -46 -43q-72 -57 -103 -57z" />
<glyph unicode="&#xd2;" horiz-adv-x="1174" d="M872 1131q-10 28 -37 42q-25 13 -74 13q-98 0 -206 -54q-109 -56 -187 -146q-81 -92 -127 -212q-46 -117 -46 -249q0 -217 133 -338q112 -103 262 -103q96 0 187 46q94 46 163 127q69 80 109 182q39 101 39 213t-38 199q-37 84 -106 133q-70 47 -159 47q-53 0 -104 -20 q-49 -21 -89 -59q-39 -38 -62 -86q-23 -49 -23 -101q0 -76 49 -128q50 -53 123 -53q29 0 47 8q17 8 32 27q8 8 13 8q14 0 14 -11q0 -19 -40 -59q-61 -64 -156 -64q-78 0 -128 50q-49 49 -49 128t37 157q38 80 102 144q62 62 150 107q84 43 171 52zM934 1127q79 -18 136 -69 q57 -52 88 -131q30 -79 30 -180q0 -141 -57 -276q-57 -136 -156 -246q-98 -110 -222 -175t-247 -65q-118 0 -215 58q-97 59 -153 159q-56 101 -56 223q0 148 72 308q70 158 187 291q116 132 257 210q142 80 272 80q56 0 88 -23q30 -24 30 -66q0 -48 -54 -98zM765 1678h92 q23 0 33 -8q8 -8 8 -29q0 -13 -1 -18l-21 -144l-1 -9q-3 -15 -10 -15q-5 0 -14 15l-7 11l-83 153l-7 13q-9 17 -9 21q0 10 20 10z" />
<glyph unicode="&#xd3;" horiz-adv-x="1174" d="M872 1131q-10 28 -37 42q-25 13 -74 13q-98 0 -206 -54q-109 -56 -187 -146q-81 -92 -127 -212q-46 -117 -46 -249q0 -217 133 -338q112 -103 262 -103q96 0 187 46q94 46 163 127q69 80 109 182q39 101 39 213t-38 199q-37 84 -106 133q-70 47 -159 47q-53 0 -104 -20 q-49 -21 -89 -59q-39 -38 -62 -86q-23 -49 -23 -101q0 -76 49 -128q50 -53 123 -53q29 0 47 8q17 8 32 27q8 8 13 8q14 0 14 -11q0 -19 -40 -59q-61 -64 -156 -64q-78 0 -128 50q-49 49 -49 128t37 157q38 80 102 144q62 62 150 107q84 43 171 52zM934 1127q79 -18 136 -69 q57 -52 88 -131q30 -79 30 -180q0 -141 -57 -276q-57 -136 -156 -246q-98 -110 -222 -175t-247 -65q-118 0 -215 58q-97 59 -153 159q-56 101 -56 223q0 148 72 308q70 158 187 291q116 132 257 210q142 80 272 80q56 0 88 -23q30 -24 30 -66q0 -48 -54 -98zM904 1678h92 q19 0 19 -10q0 -1 -12 -21l-10 -13l-110 -153l-9 -11q-12 -15 -17 -15q-7 0 -7 15l1 9l4 144q0 4 2 18q5 22 14 29q10 8 33 8z" />
<glyph unicode="&#xd4;" horiz-adv-x="1174" d="M872 1131q-10 28 -37 42q-25 13 -74 13q-98 0 -206 -54q-109 -56 -187 -146q-81 -92 -127 -212q-46 -117 -46 -249q0 -217 133 -338q112 -103 262 -103q96 0 187 46q94 46 163 127q69 80 109 182q39 101 39 213t-38 199q-37 84 -106 133q-70 47 -159 47q-53 0 -104 -20 q-49 -21 -89 -59q-39 -38 -62 -86q-23 -49 -23 -101q0 -76 49 -128q50 -53 123 -53q29 0 47 8q17 8 32 27q8 8 13 8q14 0 14 -11q0 -19 -40 -59q-61 -64 -156 -64q-78 0 -128 50q-49 49 -49 128t37 157q38 80 102 144q62 62 150 107q84 43 171 52zM934 1127q79 -18 136 -69 q57 -52 88 -131q30 -79 30 -180q0 -141 -57 -276q-57 -136 -156 -246q-98 -110 -222 -175t-247 -65q-118 0 -215 58q-97 59 -153 159q-56 101 -56 223q0 148 72 308q70 158 187 291q116 132 257 210q142 80 272 80q56 0 88 -23q30 -24 30 -66q0 -48 -54 -98zM934 1749 q14 -2 44 -49q45 -73 104 -154q15 -19 15 -24q0 -7 -18 -19q-17 -11 -29 -11t-37 17l-43 32l-40 32q-41 31 -51 31q-14 0 -112 -54q-8 -4 -26 -14l-16 -9l-39 -20q-16 -9 -21 -9q-9 0 -9 9q0 3 8 11l11 11q13 13 41 37l46 41q45 39 48 42l43 40l38 33q29 27 43 27z" />
<glyph unicode="&#xd5;" horiz-adv-x="1174" d="M872 1131q-10 28 -37 42q-25 13 -74 13q-98 0 -206 -54q-109 -56 -187 -146q-81 -92 -127 -212q-46 -117 -46 -249q0 -217 133 -338q112 -103 262 -103q96 0 187 46q94 46 163 127q69 80 109 182q39 101 39 213t-38 199q-37 84 -106 133q-70 47 -159 47q-53 0 -104 -20 q-49 -21 -89 -59q-39 -38 -62 -86q-23 -49 -23 -101q0 -76 49 -128q50 -53 123 -53q29 0 47 8q17 8 32 27q8 8 13 8q14 0 14 -11q0 -19 -40 -59q-61 -64 -156 -64q-78 0 -128 50q-49 49 -49 128t37 157q38 80 102 144q62 62 150 107q84 43 171 52zM934 1127q79 -18 136 -69 q57 -52 88 -131q30 -79 30 -180q0 -141 -57 -276q-57 -136 -156 -246q-98 -110 -222 -175t-247 -65q-118 0 -215 58q-97 59 -153 159q-56 101 -56 223q0 148 72 308q70 158 187 291q116 132 257 210q142 80 272 80q56 0 88 -23q30 -24 30 -66q0 -48 -54 -98zM949 1539 q-21 0 -81 12q-103 22 -145 22q-32 0 -49 -14l-11 -8q-8 -5 -11 -5q-11 0 -11 14q0 17 77 73q43 32 61 42q20 9 48 9q26 0 116 -17q65 -13 91 -13q33 0 48 12l9 8q8 5 15 5q11 0 11 -10t-19 -30q-19 -22 -46 -43q-72 -57 -103 -57z" />
<glyph unicode="&#xd6;" horiz-adv-x="1174" d="M872 1131q-10 28 -37 42q-25 13 -74 13q-98 0 -206 -54q-109 -56 -187 -146q-81 -92 -127 -212q-46 -117 -46 -249q0 -217 133 -338q112 -103 262 -103q96 0 187 46q94 46 163 127q69 80 109 182q39 101 39 213t-38 199q-37 84 -106 133q-70 47 -159 47q-53 0 -104 -20 q-49 -21 -89 -59q-39 -38 -62 -86q-23 -49 -23 -101q0 -76 49 -128q50 -53 123 -53q29 0 47 8q17 8 32 27q8 8 13 8q14 0 14 -11q0 -19 -40 -59q-61 -64 -156 -64q-78 0 -128 50q-49 49 -49 128t37 157q38 80 102 144q62 62 150 107q84 43 171 52zM934 1127q79 -18 136 -69 q57 -52 88 -131q30 -79 30 -180q0 -141 -57 -276q-57 -136 -156 -246q-98 -110 -222 -175t-247 -65q-118 0 -215 58q-97 59 -153 159q-56 101 -56 223q0 148 72 308q70 158 187 291q116 132 257 210q142 80 272 80q56 0 88 -23q30 -24 30 -66q0 -48 -54 -98zM1059 1649 l-10 -74q-5 -38 -18 -53q-14 -15 -61 -32l-29 -10q-12 -4 -18 -4q-16 0 -16 18q0 14 1 19l4 35l5 37q6 44 14 59q8 14 31 25q80 39 89 39q13 0 13 -15v-4q-1 -1 -1 -5q-1 -5 -1 -15l-2 -9v-7q-1 -1 -1 -4zM825 1649l-11 -74q-5 -40 -18 -53q-14 -16 -60 -32l-29 -10 q-15 -4 -18 -4q-17 0 -17 18q0 1 2 19l4 35l5 37q6 43 14 59q7 14 31 25q78 39 89 39q12 0 12 -15v-9q-3 -19 -3 -24q-1 -3 -1 -11z" />
<glyph unicode="&#xd7;" horiz-adv-x="0" />
<glyph unicode="&#xfd;" horiz-adv-x="0" />
<glyph unicode="&#xd8;" horiz-adv-x="1981" d="M1583 1180l15 20q-70 -27 -126 -27q-37 0 -112 13l-61 10l-76 14l-25 5q-26 -26 -43 -58q-16 -31 -33 -84q-23 -75 -63 -355l-12 -91q-6 -38 -8.5 -57t-7.5 -48q-2 -13 -4 -31t-4 -28q-4 -29 -12 -73q-7 -58 -12 -87l-13 -95q-7 -48 -7 -78q0 -63 50 -63q21 0 41 10 q10 2 9 2q9 0 9 -10q0 -19 -90 -39q-28 -6 -126 -29q-49 -12 -57 -12q-13 0 -13 12q0 9 9 31q25 59 37 115q10 46 31 182l26 171q3 22 6 35q2 8 5.5 33t4.5 37q1 6 2.5 13t1.5 11l2 12t1 12q1 4 1.5 10.5t0.5 12.5q24 176 33 222q17 95 47 156q32 64 90 122l32 31l16 17 q-148 30 -278 30q-254 0 -443 -126q-81 -54 -138 -124q-56 -68 -86 -146q-31 -78 -31 -162q0 -90 45 -173q43 -81 118 -132q74 -50 159 -50q111 0 186 69t75 170q0 67 -35 111q-34 43 -88 43q-18 0 -34 -11q-11 -8 -20 -8q-11 0 -11 11q0 16 34 44q55 43 113 43q60 0 97 -40 q36 -40 36 -106q0 -101 -60 -194q-61 -92 -162 -148t-214 -56q-95 0 -170 42q-76 40 -117 116q-42 75 -42 169q0 126 62 258q62 131 177 252q262 274 590 274q108 0 297 -36l153 -30q176 -34 254 -34q39 0 58 9q16 8 73 50q121 94 232 94q34 0 53 -13t19 -37q0 -20 -58 -106 q-36 -54 -45 -54q-13 0 -13 15q0 7 1 8l4 10q2 14 2 13q0 24 -22 40t-57 16q-33 0 -71 -11q-37 -12 -69 -34q-34 -23 -55 -50q-54 -64 -99 -251q-16 -67 -36 -183q-22 -125 -35 -224l-3 -24l15 15q68 71 106 103q45 38 84 60q83 46 147 46q61 0 61 -63q0 -17 -8 -65l-15 -85 l-21 -121l-22 -124l-18 -104l-18 -107q-17 -108 -17 -143q0 -38 14 -55t44 -17q29 0 53 7l14 4q10 2 11 2q11 0 11 -12q0 -8 -11 -13q-7 -4 -41 -16l-56 -19l-78 -25q-63 -21 -86 -21q-35 0 -35 35q0 13 5 38q23 119 53 299q8 50 15 86q4 26 6.5 39.5t8.5 52.5 q26 150 36 214q7 43 7 70q0 49 -41 49q-60 0 -135 -98q-93 -123 -134 -347l-27 -151q-3 -16 -6 -24q-4 -7 -15 -13l-28 -14l-45 -23l-40 -20l-17 -8l5 21q4 23 7 37.5t6 31t4 23.5l11.5 62.5l10.5 58.5q32 195 49 328q28 204 41 263q26 115 61 189q35 77 117 186z" />
<glyph unicode="&#xd9;" horiz-adv-x="1495" d="M1195 381l3 24l-22 -27l-13.5 -17l-14 -18l-16.5 -21q-67 -85 -111 -131t-107 -88q-145 -103 -281 -103q-87 0 -142 64q-57 63 -57 161q0 62 19 138q21 95 49 192l57 201q38 136 57 223q11 58 11 95q0 81 -41 128q-40 46 -114 46q-57 0 -118 -31q-65 -33 -115 -86 q-107 -113 -107 -259q0 -84 50 -137q49 -52 129 -52q36 0 66 15q16 8 21 8q11 0 11 -11q0 -17 -37 -48q-76 -70 -147 -70q-76 0 -130 63t-54 153q0 91 56 205q55 112 143 194q49 46 106 79q57 34 116 53q58 19 109 19q55 0 104 -26q47 -27 74 -74q27 -46 27 -103 q0 -49 -14 -105q-15 -67 -49 -186q-129 -456 -129 -582q0 -181 149 -181q95 0 190 73q95 71 169 198q66 115 115 296q40 153 77 322q23 103 36 151q4 3 8 4.5t7 3.5q5 3 11 6l60 25l54 22q19 9 20 9q5 3 8 3q7 0 7 -9q0 -2 -3 -10q-27 -50 -54 -148q-21 -78 -48 -215 q-27 -127 -43 -229q-11 -71 -23 -199q-10 -110 -10 -179q0 -71 18 -100q16 -28 63 -28q28 0 70 11q8 3 14 3q12 0 12 -10q0 -16 -62 -37q-117 -42 -189 -42q-75 0 -75 108q0 44 17 169q1 7 2 11.5t5 31.5q5 36 6 54zM975 1678h92q23 0 33 -8q8 -8 8 -29q0 -13 -1 -18 l-21 -144l-1 -9q-3 -15 -10 -15q-5 0 -14 15l-7 11l-83 153l-7 13q-9 17 -9 21q0 10 20 10z" />
<glyph unicode="&#xda;" horiz-adv-x="1495" d="M1195 381l3 24l-22 -27l-13.5 -17l-14 -18l-16.5 -21q-67 -85 -111 -131t-107 -88q-145 -103 -281 -103q-87 0 -142 64q-57 63 -57 161q0 62 19 138q21 95 49 192l57 201q38 136 57 223q11 58 11 95q0 81 -41 128q-40 46 -114 46q-57 0 -118 -31q-65 -33 -115 -86 q-107 -113 -107 -259q0 -84 50 -137q49 -52 129 -52q36 0 66 15q16 8 21 8q11 0 11 -11q0 -17 -37 -48q-76 -70 -147 -70q-76 0 -130 63t-54 153q0 91 56 205q55 112 143 194q49 46 106 79q57 34 116 53q58 19 109 19q55 0 104 -26q47 -27 74 -74q27 -46 27 -103 q0 -49 -14 -105q-15 -67 -49 -186q-129 -456 -129 -582q0 -181 149 -181q95 0 190 73q95 71 169 198q66 115 115 296q40 153 77 322q23 103 36 151q4 3 8 4.5t7 3.5q5 3 11 6l60 25l54 22q19 9 20 9q5 3 8 3q7 0 7 -9q0 -2 -3 -10q-27 -50 -54 -148q-21 -78 -48 -215 q-27 -127 -43 -229q-11 -71 -23 -199q-10 -110 -10 -179q0 -71 18 -100q16 -28 63 -28q28 0 70 11q8 3 14 3q12 0 12 -10q0 -16 -62 -37q-117 -42 -189 -42q-75 0 -75 108q0 44 17 169q1 7 2 11.5t5 31.5q5 36 6 54zM1132 1678h92q19 0 19 -10q0 -1 -12 -21l-10 -13 l-110 -153l-9 -11q-12 -15 -17 -15q-7 0 -7 15l1 9l4 144q0 4 2 18q5 22 14 29q10 8 33 8z" />
<glyph unicode="&#xdb;" horiz-adv-x="1495" d="M1195 381l3 24l-22 -27l-13.5 -17l-14 -18l-16.5 -21q-67 -85 -111 -131t-107 -88q-145 -103 -281 -103q-87 0 -142 64q-57 63 -57 161q0 62 19 138q21 95 49 192l57 201q38 136 57 223q11 58 11 95q0 81 -41 128q-40 46 -114 46q-57 0 -118 -31q-65 -33 -115 -86 q-107 -113 -107 -259q0 -84 50 -137q49 -52 129 -52q36 0 66 15q16 8 21 8q11 0 11 -11q0 -17 -37 -48q-76 -70 -147 -70q-76 0 -130 63t-54 153q0 91 56 205q55 112 143 194q49 46 106 79q57 34 116 53q58 19 109 19q55 0 104 -26q47 -27 74 -74q27 -46 27 -103 q0 -49 -14 -105q-15 -67 -49 -186q-129 -456 -129 -582q0 -181 149 -181q95 0 190 73q95 71 169 198q66 115 115 296q40 153 77 322q23 103 36 151q4 3 8 4.5t7 3.5q5 3 11 6l60 25l54 22q19 9 20 9q5 3 8 3q7 0 7 -9q0 -2 -3 -10q-27 -50 -54 -148q-21 -78 -48 -215 q-27 -127 -43 -229q-11 -71 -23 -199q-10 -110 -10 -179q0 -71 18 -100q16 -28 63 -28q28 0 70 11q8 3 14 3q12 0 12 -10q0 -16 -62 -37q-117 -42 -189 -42q-75 0 -75 108q0 44 17 169q1 7 2 11.5t5 31.5q5 36 6 54zM1199 1749q14 -2 44 -49q45 -73 104 -154q15 -19 15 -24 q0 -7 -18 -19q-17 -11 -29 -11t-37 17l-43 32l-40 32q-41 31 -51 31q-14 0 -112 -54q-8 -4 -26 -14l-16 -9l-39 -20q-16 -9 -21 -9q-9 0 -9 9q0 3 8 11l11 11q13 13 41 37l46 41q45 39 48 42l43 40l38 33q29 27 43 27z" />
<glyph unicode="&#xdc;" horiz-adv-x="1495" d="M1195 381l3 24l-22 -27l-13.5 -17l-14 -18l-16.5 -21q-67 -85 -111 -131t-107 -88q-145 -103 -281 -103q-87 0 -142 64q-57 63 -57 161q0 62 19 138q21 95 49 192l57 201q38 136 57 223q11 58 11 95q0 81 -41 128q-40 46 -114 46q-57 0 -118 -31q-65 -33 -115 -86 q-107 -113 -107 -259q0 -84 50 -137q49 -52 129 -52q36 0 66 15q16 8 21 8q11 0 11 -11q0 -17 -37 -48q-76 -70 -147 -70q-76 0 -130 63t-54 153q0 91 56 205q55 112 143 194q49 46 106 79q57 34 116 53q58 19 109 19q55 0 104 -26q47 -27 74 -74q27 -46 27 -103 q0 -49 -14 -105q-15 -67 -49 -186q-129 -456 -129 -582q0 -181 149 -181q95 0 190 73q95 71 169 198q66 115 115 296q40 153 77 322q23 103 36 151q4 3 8 4.5t7 3.5q5 3 11 6l60 25l54 22q19 9 20 9q5 3 8 3q7 0 7 -9q0 -2 -3 -10q-27 -50 -54 -148q-21 -78 -48 -215 q-27 -127 -43 -229q-11 -71 -23 -199q-10 -110 -10 -179q0 -71 18 -100q16 -28 63 -28q28 0 70 11q8 3 14 3q12 0 12 -10q0 -16 -62 -37q-117 -42 -189 -42q-75 0 -75 108q0 44 17 169q1 7 2 11.5t5 31.5q5 36 6 54zM1337 1649l-10 -74q-5 -38 -18 -53q-14 -15 -61 -32 l-29 -10q-12 -4 -18 -4q-16 0 -16 18q0 14 1 19l4 35l5 37q6 44 14 59q8 14 31 25q80 39 89 39q13 0 13 -15v-4q-1 -1 -1 -5q-1 -5 -1 -15l-2 -9v-7q-1 -1 -1 -4zM1103 1649l-11 -74q-5 -40 -18 -53q-14 -16 -60 -32l-29 -10q-15 -4 -18 -4q-17 0 -17 18q0 1 2 19l4 35l5 37 q6 43 14 59q7 14 31 25q78 39 89 39q12 0 12 -15v-9q-3 -19 -3 -24q-1 -3 -1 -11z" />
<glyph unicode="&#xdd;" horiz-adv-x="1315" d="M455 1661h92q19 0 19 -10q0 -1 -12 -21l-10 -13l-110 -153l-9 -11q-12 -15 -17 -15q-7 0 -7 15l1 9l4 144q0 4 2 18q5 22 14 29q10 8 33 8zM699 717q51 72 95 128t84 100q89 98 183 172q135 106 256 152q47 19 69 19q14 0 14 -10q0 -6 -21 -26q-65 -65 -97 -178 q-27 -94 -56 -367q-17 -162 -35 -244q-16 -73 -53 -149q-45 -93 -112 -169q-66 -75 -153 -133q-87 -57 -183 -87q-97 -30 -191 -30t-147 36t-53 100q0 88 95 165q31 25 42 25t11 -9q0 -6 -9 -15q-26 -26 -26 -75q0 -46 26 -81t73 -53q47 -19 109 -19q52 0 104 15 q51 15 102 47q53 34 88 73q35 38 62 92q37 72 61 181q16 75 38 247l20 158q23 164 34 212q9 45 49 152q-92 -47 -204 -169q-87 -96 -150 -191q-63 -96 -102 -194q-41 -99 -67 -212q-3 -15 -6 -21q-4 -6 -16 -13l-54 -33l-49 -30l-27 -16q-16 -10 -20 -10q-9 0 -9 10 q0 6 6 22q38 124 71 321q31 187 31 304q0 142 -47 221q-47 77 -132 77q-65 0 -130 -47q-63 -47 -103 -125q-40 -77 -40 -161q0 -97 53 -162q52 -64 134 -64q73 0 110 39q11 11 16 11q12 0 12 -12q0 -14 -30 -50q-91 -103 -182 -103q-82 0 -135 72q-53 71 -53 181 q0 99 40 195q39 97 109 173q64 69 148 113q85 44 154 44q106 0 161 -81q56 -83 56 -237q0 -99 -24 -281z" />
<glyph unicode="&#xdf;" horiz-adv-x="806" d="M603 778q172 -58 172 -252q0 -67 -27 -144q-29 -79 -79 -146q-51 -70 -118 -124q-49 -39 -94 -64q-54 -30 -100 -47q-49 -18 -81 -18q-22 0 -22 16q0 9 26 44l22 29q23 27 43 27l28 -1q84 0 148 46q64 45 100 127q35 84 35 186q0 95 -52 160q-52 66 -132 75q-31 4 -31 18 q0 11 14 17l24 11q63 28 141 109q110 119 110 239q0 73 -35 120t-91 47q-41 0 -81 -28q-41 -28 -75 -77q-77 -118 -112 -280l-11 -48q-1 -12 -5 -26l-170 -958q-6 -37 -18 -55q-12 -20 -51 -48q-85 -61 -110 -61q-12 0 -12 9q0 6 7 20q24 55 43 131q13 49 44 205 q35 181 47 250l40 218l37 206q21 111 51 191q28 76 76 146q47 68 117 138q72 70 147 110q77 41 139 41q68 0 111 -51q43 -50 43 -133q0 -199 -258 -375z" />
<glyph unicode="&#xe0;" horiz-adv-x="673" d="M464 649q-48 22 -94 22q-92 0 -130 -60q-42 -67 -67 -169q-27 -105 -27 -198q0 -79 16 -112q17 -35 52 -35q37 0 83 44q45 44 75 108q30 67 55 173q27 116 37 227zM394 187q-7 -7 -11 -10.5t-6 -4.5l-48 -45q-136 -129 -232 -129q-37 0 -56 46q-21 47 -21 123 q0 253 190 461q63 70 142 111t146 41q7 0 44 -5q30 -2 27 -2q20 0 48 12q6 3 11 3q4 0 7 -3t3 -6q0 -2 -3 -7q-26 -48 -51 -169q-15 -80 -42 -244q-21 -144 -21 -202q0 -38 20 -63q20 -24 50 -24q17 0 46 10q6 2 10 2t7 -3t3 -7q0 -11 -37 -24q-124 -51 -179 -51 q-56 0 -56 73q0 19 3 46q5 61 6 71zM426 1091h92q23 0 33 -8q8 -8 8 -29q0 -13 -1 -18l-21 -144l-1 -9q-3 -15 -10 -15q-5 0 -14 15l-7 11l-83 153l-7 13q-9 17 -9 21q0 10 20 10z" />
<glyph unicode="&#xe1;" horiz-adv-x="673" d="M464 649q-48 22 -94 22q-92 0 -130 -60q-42 -67 -67 -169q-27 -105 -27 -198q0 -79 16 -112q17 -35 52 -35q37 0 83 44q45 44 75 108q30 67 55 173q27 116 37 227zM394 187q-7 -7 -11 -10.5t-6 -4.5l-48 -45q-136 -129 -232 -129q-37 0 -56 46q-21 47 -21 123 q0 253 190 461q63 70 142 111t146 41q7 0 44 -5q30 -2 27 -2q20 0 48 12q6 3 11 3q4 0 7 -3t3 -6q0 -2 -3 -7q-26 -48 -51 -169q-15 -80 -42 -244q-21 -144 -21 -202q0 -38 20 -63q20 -24 50 -24q17 0 46 10q6 2 10 2t7 -3t3 -7q0 -11 -37 -24q-124 -51 -179 -51 q-56 0 -56 73q0 19 3 46q5 61 6 71zM551 1091h92q19 0 19 -10q0 -1 -12 -21l-10 -13l-110 -153l-9 -11q-12 -15 -17 -15q-7 0 -7 15l1 9l4 144q0 4 2 18q5 22 14 29q10 8 33 8z" />
<glyph unicode="&#xe2;" horiz-adv-x="673" d="M464 649q-48 22 -94 22q-92 0 -130 -60q-42 -67 -67 -169q-27 -105 -27 -198q0 -79 16 -112q17 -35 52 -35q37 0 83 44q45 44 75 108q30 67 55 173q27 116 37 227zM394 187q-7 -7 -11 -10.5t-6 -4.5l-48 -45q-136 -129 -232 -129q-37 0 -56 46q-21 47 -21 123 q0 253 190 461q63 70 142 111t146 41q7 0 44 -5q30 -2 27 -2q20 0 48 12q6 3 11 3q4 0 7 -3t3 -6q0 -2 -3 -7q-26 -48 -51 -169q-15 -80 -42 -244q-21 -144 -21 -202q0 -38 20 -63q20 -24 50 -24q17 0 46 10q6 2 10 2t7 -3t3 -7q0 -11 -37 -24q-124 -51 -179 -51 q-56 0 -56 73q0 19 3 46q5 61 6 71zM541 1162q14 -2 44 -49q45 -73 104 -154q15 -19 15 -24q0 -7 -18 -19q-17 -11 -29 -11t-37 17l-43 32l-40 32q-41 31 -51 31q-14 0 -112 -54q-8 -4 -26 -14l-16 -9l-39 -20q-16 -9 -21 -9q-9 0 -9 9q0 3 8 11l11 11q13 13 41 37l46 41 q45 39 48 42l43 40l38 33q29 27 43 27z" />
<glyph unicode="&#xe3;" horiz-adv-x="673" d="M464 649q-48 22 -94 22q-92 0 -130 -60q-42 -67 -67 -169q-27 -105 -27 -198q0 -79 16 -112q17 -35 52 -35q37 0 83 44q45 44 75 108q30 67 55 173q27 116 37 227zM394 187q-7 -7 -11 -10.5t-6 -4.5l-48 -45q-136 -129 -232 -129q-37 0 -56 46q-21 47 -21 123 q0 253 190 461q63 70 142 111t146 41q7 0 44 -5q30 -2 27 -2q20 0 48 12q6 3 11 3q4 0 7 -3t3 -6q0 -2 -3 -7q-26 -48 -51 -169q-15 -80 -42 -244q-21 -144 -21 -202q0 -38 20 -63q20 -24 50 -24q17 0 46 10q6 2 10 2t7 -3t3 -7q0 -11 -37 -24q-124 -51 -179 -51 q-56 0 -56 73q0 19 3 46q5 61 6 71zM561 952q-21 0 -81 12q-103 22 -145 22q-32 0 -49 -14l-11 -8q-8 -5 -11 -5q-11 0 -11 14q0 17 77 73q43 32 61 42q20 9 48 9q26 0 116 -17q65 -13 91 -13q33 0 48 12l9 8q8 5 15 5q11 0 11 -10t-19 -30q-19 -22 -46 -43 q-72 -57 -103 -57z" />
<glyph unicode="&#xe4;" horiz-adv-x="673" d="M464 649q-48 22 -94 22q-92 0 -130 -60q-42 -67 -67 -169q-27 -105 -27 -198q0 -79 16 -112q17 -35 52 -35q37 0 83 44q45 44 75 108q30 67 55 173q27 116 37 227zM394 187q-7 -7 -11 -10.5t-6 -4.5l-48 -45q-136 -129 -232 -129q-37 0 -56 46q-21 47 -21 123 q0 253 190 461q63 70 142 111t146 41q7 0 44 -5q30 -2 27 -2q20 0 48 12q6 3 11 3q4 0 7 -3t3 -6q0 -2 -3 -7q-26 -48 -51 -169q-15 -80 -42 -244q-21 -144 -21 -202q0 -38 20 -63q20 -24 50 -24q17 0 46 10q6 2 10 2t7 -3t3 -7q0 -11 -37 -24q-124 -51 -179 -51 q-56 0 -56 73q0 19 3 46q5 61 6 71zM676 1062l-10 -74q-5 -38 -18 -53q-14 -15 -61 -32l-29 -10q-12 -4 -18 -4q-16 0 -16 18q0 14 1 19l4 35l5 37q6 44 14 59q8 14 31 25q80 39 89 39q13 0 13 -15v-4q-1 -1 -1 -5q-1 -5 -1 -15l-2 -9v-7q-1 -1 -1 -4zM442 1062l-11 -74 q-5 -40 -18 -53q-14 -16 -60 -32l-29 -10q-15 -4 -18 -4q-17 0 -17 18q0 1 2 19l4 35l5 37q6 43 14 59q7 14 31 25q78 39 89 39q12 0 12 -15v-9q-3 -19 -3 -24q-1 -3 -1 -11z" />
<glyph unicode="&#xe5;" horiz-adv-x="673" d="M464 649q-48 22 -94 22q-92 0 -130 -60q-42 -67 -67 -169q-27 -105 -27 -198q0 -79 16 -112q17 -35 52 -35q37 0 83 44q45 44 75 108q30 67 55 173q27 116 37 227zM394 187q-7 -7 -11 -10.5t-6 -4.5l-48 -45q-136 -129 -232 -129q-37 0 -56 46q-21 47 -21 123 q0 253 190 461q63 70 142 111t146 41q7 0 44 -5q30 -2 27 -2q20 0 48 12q6 3 11 3q4 0 7 -3t3 -6q0 -2 -3 -7q-26 -48 -51 -169q-15 -80 -42 -244q-21 -144 -21 -202q0 -38 20 -63q20 -24 50 -24q17 0 46 10q6 2 10 2t7 -3t3 -7q0 -11 -37 -24q-124 -51 -179 -51 q-56 0 -56 73q0 19 3 46q5 61 6 71zM465 975q0 -33 15 -57t37 -24q43 0 74 48q31 46 31 112q0 63 -50 63q-40 0 -73 -45q-34 -46 -34 -97zM478 843q-38 0 -64 29t-26 71q0 90 102 168q76 58 141 58q67 0 67 -88q0 -95 -97 -180q-67 -58 -123 -58z" />
<glyph unicode="&#xe6;" horiz-adv-x="971" d="M551 410q33 -5 54 -5q85 0 134 30q49 31 78 80q27 48 27 102q0 115 -90 115q-77 0 -133 -86q-55 -86 -70 -236zM475 671q-37 6 -69 6q-58 0 -85 -10t-51 -40q-51 -72 -85 -187q-36 -118 -36 -215q0 -51 24 -84q23 -33 58 -33q36 0 77 35q38 32 65 88q29 65 69 258 q19 89 33 182zM406 181l-18 -16q-172 -160 -259 -160q-109 0 -109 171q0 53 14 118t40 122t62 114q35 53 81 102q64 69 140 112q74 41 134 41q27 0 84 -15q63 -17 84 -17t64 18q56 22 110 22q57 0 91 -29q33 -30 33 -86q0 -58 -46 -128t-120 -126q-51 -39 -111 -68 q-64 -31 -144 -53v-15q-1 -3 -1 -10q0 -91 41 -146q40 -55 110 -55q78 0 136 55l12 11q9 9 16 9q16 0 16 -14q0 -19 -53 -57q-51 -37 -117 -62q-67 -27 -113 -27q-74 0 -121 50t-56 139z" />
<glyph unicode="&#xe7;" horiz-adv-x="589" d="M227 2l-8 -9q-38 -47 -38 -68q0 -12 24 -27l28 -16q73 -40 73 -71q0 -20 -30 -53q-31 -34 -89 -74q-88 -61 -109 -61q-6 0 -6 8q0 14 15 46q5 11 14 13l19 4q79 16 79 54q0 18 -32 39q-50 33 -66 49q-13 13 -13 36q0 39 76 114l9 9h-3q-65 0 -104 59t-39 157 q0 222 174 409q69 75 150 120q80 45 147 45q39 0 63 -15q24 -16 24 -43q0 -21 -30 -62l-26 -36l-29 -37q-10 -16 -17 -16q-11 0 -11 11q0 5 1 6l4 10q4 7 4 16q0 25 -28 40q-30 14 -78 14q-64 0 -113 -43t-76 -125q-28 -81 -28 -182q0 -120 37 -184q38 -65 107 -65 q61 0 134 57q13 8 17 8q9 0 9 -8q0 -13 -38 -39q-106 -72 -197 -90z" />
<glyph unicode="&#xe8;" horiz-adv-x="540" d="M176 411q37 -8 55 -8q76 0 131 67q54 66 54 158q0 46 -19 72q-20 26 -51 26q-35 0 -70 -39q-33 -38 -59 -108q-24 -64 -41 -168zM168 315q-2 -54 -2 -46q0 -92 35 -142t99 -50q58 0 103 36q13 10 18 10q12 0 12 -11q0 -17 -57 -50q-59 -33 -111 -50q-53 -19 -91 -19 q-64 0 -102 63q-38 62 -38 169q0 83 24 165q25 84 67 159t101 134q51 49 110 83q55 31 97 31t67 -30q26 -31 26 -76q0 -63 -51 -140q-51 -74 -135 -140q-82 -64 -172 -96zM322 1091h92q23 0 33 -8q8 -8 8 -29q0 -13 -1 -18l-21 -144l-1 -9q-3 -15 -10 -15q-5 0 -14 15l-7 11 l-83 153l-7 13q-9 17 -9 21q0 10 20 10z" />
<glyph unicode="&#xe9;" horiz-adv-x="540" d="M176 411q37 -8 55 -8q76 0 131 67q54 66 54 158q0 46 -19 72q-20 26 -51 26q-35 0 -70 -39q-33 -38 -59 -108q-24 -64 -41 -168zM168 315q-2 -54 -2 -46q0 -92 35 -142t99 -50q58 0 103 36q13 10 18 10q12 0 12 -11q0 -17 -57 -50q-59 -33 -111 -50q-53 -19 -91 -19 q-64 0 -102 63q-38 62 -38 169q0 83 24 165q25 84 67 159t101 134q51 49 110 83q55 31 97 31t67 -30q26 -31 26 -76q0 -63 -51 -140q-51 -74 -135 -140q-82 -64 -172 -96zM463 1091h92q19 0 19 -10q0 -1 -12 -21l-10 -13l-110 -153l-9 -11q-12 -15 -17 -15q-7 0 -7 15l1 9 l4 144q0 4 2 18q5 22 14 29q10 8 33 8z" />
<glyph unicode="&#xea;" horiz-adv-x="540" d="M176 411q37 -8 55 -8q76 0 131 67q54 66 54 158q0 46 -19 72q-20 26 -51 26q-35 0 -70 -39q-33 -38 -59 -108q-24 -64 -41 -168zM168 315q-2 -54 -2 -46q0 -92 35 -142t99 -50q58 0 103 36q13 10 18 10q12 0 12 -11q0 -17 -57 -50q-59 -33 -111 -50q-53 -19 -91 -19 q-64 0 -102 63q-38 62 -38 169q0 83 24 165q25 84 67 159t101 134q51 49 110 83q55 31 97 31t67 -30q26 -31 26 -76q0 -63 -51 -140q-51 -74 -135 -140q-82 -64 -172 -96zM461 1162q14 -2 44 -49q45 -73 104 -154q15 -19 15 -24q0 -7 -18 -19q-17 -11 -29 -11t-37 17l-43 32 l-40 32q-41 31 -51 31q-14 0 -112 -54q-8 -4 -26 -14l-16 -9l-39 -20q-16 -9 -21 -9q-9 0 -9 9q0 3 8 11l11 11q13 13 41 37l46 41q45 39 48 42l43 40l38 33q29 27 43 27z" />
<glyph unicode="&#xeb;" horiz-adv-x="540" d="M176 411q37 -8 55 -8q76 0 131 67q54 66 54 158q0 46 -19 72q-20 26 -51 26q-35 0 -70 -39q-33 -38 -59 -108q-24 -64 -41 -168zM168 315q-2 -54 -2 -46q0 -92 35 -142t99 -50q58 0 103 36q13 10 18 10q12 0 12 -11q0 -17 -57 -50q-59 -33 -111 -50q-53 -19 -91 -19 q-64 0 -102 63q-38 62 -38 169q0 83 24 165q25 84 67 159t101 134q51 49 110 83q55 31 97 31t67 -30q26 -31 26 -76q0 -63 -51 -140q-51 -74 -135 -140q-82 -64 -172 -96zM602 1062l-10 -74q-5 -38 -18 -53q-14 -15 -61 -32l-29 -10q-12 -4 -18 -4q-16 0 -16 18q0 14 1 19 l4 35l5 37q6 44 14 59q8 14 31 25q80 39 89 39q13 0 13 -15v-4q-1 -1 -1 -5q-1 -5 -1 -15l-2 -9v-7q-1 -1 -1 -4zM368 1062l-11 -74q-5 -40 -18 -53q-14 -16 -60 -32l-29 -10q-15 -4 -18 -4q-17 0 -17 18q0 1 2 19l4 35l5 37q6 43 14 59q7 14 31 25q78 39 89 39q12 0 12 -15 v-9q-3 -19 -3 -24q-1 -3 -1 -11z" />
<glyph unicode="&#xec;" horiz-adv-x="377" d="M160 649q0 49 -33 49q-20 0 -67 -26q-13 -9 -22 -9q-11 0 -11 13q0 11 13 18q8 5 64 29q138 58 169 58q39 0 39 -49q0 -31 -32 -189l-25 -122q-36 -175 -36 -246q0 -90 53 -90q16 0 56 20q10 7 19 7q11 0 11 -9q0 -12 -17 -21q-9 -6 -76 -35q-106 -45 -149 -45 q-27 0 -39 13q-12 14 -12 40q0 21 30 184q44 241 55 321q10 70 10 89zM177 1091h92q23 0 33 -8q8 -8 8 -29q0 -13 -1 -18l-21 -144l-1 -9q-3 -15 -10 -15q-5 0 -14 15l-7 11l-83 153l-7 13q-9 17 -9 21q0 10 20 10z" />
<glyph unicode="&#xed;" horiz-adv-x="377" d="M160 649q0 49 -33 49q-20 0 -67 -26q-13 -9 -22 -9q-11 0 -11 13q0 11 13 18q8 5 64 29q138 58 169 58q39 0 39 -49q0 -31 -32 -189l-25 -122q-36 -175 -36 -246q0 -90 53 -90q16 0 56 20q10 7 19 7q11 0 11 -9q0 -12 -17 -21q-9 -6 -76 -35q-106 -45 -149 -45 q-27 0 -39 13q-12 14 -12 40q0 21 30 184q44 241 55 321q10 70 10 89zM258 1091h92q19 0 19 -10q0 -1 -12 -21l-10 -13l-110 -153l-9 -11q-12 -15 -17 -15q-7 0 -7 15l1 9l4 144q0 4 2 18q5 22 14 29q10 8 33 8z" />
<glyph unicode="&#xee;" horiz-adv-x="377" d="M160 649q0 49 -33 49q-20 0 -67 -26q-13 -9 -22 -9q-11 0 -11 13q0 11 13 18q8 5 64 29q138 58 169 58q39 0 39 -49q0 -31 -32 -189l-25 -122q-36 -175 -36 -246q0 -90 53 -90q16 0 56 20q10 7 19 7q11 0 11 -9q0 -12 -17 -21q-9 -6 -76 -35q-106 -45 -149 -45 q-27 0 -39 13q-12 14 -12 40q0 21 30 184q44 241 55 321q10 70 10 89zM319 1162q14 -2 44 -49q45 -73 104 -154q15 -19 15 -24q0 -7 -18 -19q-17 -11 -29 -11t-37 17l-43 32l-40 32q-41 31 -51 31q-14 0 -112 -54q-8 -4 -26 -14l-16 -9l-39 -20q-16 -9 -21 -9q-9 0 -9 9 q0 3 8 11l11 11q13 13 41 37l46 41q45 39 48 42l43 40l38 33q29 27 43 27z" />
<glyph unicode="&#xef;" horiz-adv-x="377" d="M160 649q0 49 -33 49q-20 0 -67 -26q-13 -9 -22 -9q-11 0 -11 13q0 11 13 18q8 5 64 29q138 58 169 58q39 0 39 -49q0 -31 -32 -189l-25 -122q-36 -175 -36 -246q0 -90 53 -90q16 0 56 20q10 7 19 7q11 0 11 -9q0 -12 -17 -21q-9 -6 -76 -35q-106 -45 -149 -45 q-27 0 -39 13q-12 14 -12 40q0 21 30 184q44 241 55 321q10 70 10 89zM463 1062l-10 -74q-5 -38 -18 -53q-14 -15 -61 -32l-29 -10q-12 -4 -18 -4q-16 0 -16 18q0 14 1 19l4 35l5 37q6 44 14 59q8 14 31 25q80 39 89 39q13 0 13 -15v-4q-1 -1 -1 -5q-1 -5 -1 -15l-2 -9v-7 q-1 -1 -1 -4zM229 1062l-11 -74q-5 -40 -18 -53q-14 -16 -60 -32l-29 -10q-15 -4 -18 -4q-17 0 -17 18q0 1 2 19l4 35l5 37q6 43 14 59q7 14 31 25q78 39 89 39q12 0 12 -15v-9q-3 -19 -3 -24q-1 -3 -1 -11z" />
<glyph unicode="&#xf1;" horiz-adv-x="756" d="M546 952q-21 0 -81 12q-103 22 -145 22q-32 0 -49 -14l-11 -8q-8 -5 -11 -5q-11 0 -11 14q0 17 77 73q43 32 61 42q20 9 48 9q26 0 116 -17q65 -13 91 -13q33 0 48 12l9 8q8 5 15 5q11 0 11 -10t-19 -30q-19 -22 -46 -43q-70 -57 -103 -57zM55 -7l5 25l25 103 q31 125 58 292q23 140 23 206q0 73 -51 73q-22 0 -48 -12q-15 -7 -21 -7q-15 0 -15 14q0 16 27 26q35 17 120 45q68 25 91 25q43 0 43 -48q0 -27 -9 -98l-15 -117q6 6 10 12l3.5 3.5l2.5 2.5l46 56q71 84 143 133q74 48 134 48q33 0 54 -15q20 -17 20 -44q0 -22 -16 -105 l-21 -107l-11.5 -64.5l-8 -44.5l-7.5 -42.5l-15 -83.5q-15 -88 -15 -114q0 -28 13 -44q12 -17 33 -17q13 0 52 11q15 4 19 4q15 0 15 -15q0 -11 -35 -25l-63 -22l-67 -23q-69 -25 -93 -25q-34 0 -34 42q0 11 4 32l9 45q5 25 7 33l3.5 16t1.5 10q3 18 5 26.5t2 12.5l32 164 q39 209 39 244q0 55 -46 55q-73 0 -157 -147q-43 -74 -75 -182q-32 -109 -59 -256q-3 -20 -6 -31t-6 -14q-6 -6 -17 -12q-74 -34 -129 -44z" />
<glyph unicode="&#xf2;" horiz-adv-x="669" d="M500 512q0 96 -30 147q-32 50 -86 50q-66 0 -129 -87q-40 -54 -66 -147q-25 -93 -25 -189q0 -99 34 -154q33 -57 90 -57q72 0 124 79q25 40 44 97q20 63 32 128q12 68 12 133zM27 236q0 93 40 189q40 97 106 180q68 85 145 135q78 51 150 51q79 0 127 -62q47 -64 47 -168 q0 -99 -38 -201q-39 -101 -104 -183q-63 -81 -144 -131q-79 -49 -159 -49q-79 0 -124 64q-46 62 -46 175zM379 1091h92q23 0 33 -8q8 -8 8 -29q0 -13 -1 -18l-21 -144l-1 -9q-3 -15 -10 -15q-5 0 -14 15l-7 11l-83 153l-7 13q-9 17 -9 21q0 10 20 10z" />
<glyph unicode="&#xf3;" horiz-adv-x="669" d="M500 512q0 96 -30 147q-32 50 -86 50q-66 0 -129 -87q-40 -54 -66 -147q-25 -93 -25 -189q0 -99 34 -154q33 -57 90 -57q72 0 124 79q25 40 44 97q20 63 32 128q12 68 12 133zM27 236q0 93 40 189q40 97 106 180q68 85 145 135q78 51 150 51q79 0 127 -62q47 -64 47 -168 q0 -99 -38 -201q-39 -101 -104 -183q-63 -81 -144 -131q-79 -49 -159 -49q-79 0 -124 64q-46 62 -46 175zM504 1091h92q19 0 19 -10q0 -1 -12 -21l-10 -13l-110 -153l-9 -11q-12 -15 -17 -15q-7 0 -7 15l1 9l4 144q0 4 2 18q5 22 14 29q10 8 33 8z" />
<glyph unicode="&#xf4;" horiz-adv-x="669" d="M500 512q0 96 -30 147q-32 50 -86 50q-66 0 -129 -87q-40 -54 -66 -147q-25 -93 -25 -189q0 -99 34 -154q33 -57 90 -57q72 0 124 79q25 40 44 97q20 63 32 128q12 68 12 133zM27 236q0 93 40 189q40 97 106 180q68 85 145 135q78 51 150 51q79 0 127 -62q47 -64 47 -168 q0 -99 -38 -201q-39 -101 -104 -183q-63 -81 -144 -131q-79 -49 -159 -49q-79 0 -124 64q-46 62 -46 175zM527 1162q14 -2 44 -49q45 -73 104 -154q15 -19 15 -24q0 -7 -18 -19q-17 -11 -29 -11t-37 17l-43 32l-40 32q-41 31 -51 31q-14 0 -112 -54q-8 -4 -26 -14l-16 -9 l-39 -20q-16 -9 -21 -9q-9 0 -9 9q0 3 8 11l11 11q13 13 41 37l46 41q45 39 48 42l43 40l38 33q29 27 43 27z" />
<glyph unicode="&#xf5;" horiz-adv-x="669" d="M500 512q0 96 -30 147q-32 50 -86 50q-66 0 -129 -87q-40 -54 -66 -147q-25 -93 -25 -189q0 -99 34 -154q33 -57 90 -57q72 0 124 79q25 40 44 97q20 63 32 128q12 68 12 133zM27 236q0 93 40 189q40 97 106 180q68 85 145 135q78 51 150 51q79 0 127 -62q47 -64 47 -168 q0 -99 -38 -201q-39 -101 -104 -183q-63 -81 -144 -131q-79 -49 -159 -49q-79 0 -124 64q-46 62 -46 175zM544 952q-21 0 -81 12q-103 22 -145 22q-32 0 -49 -14l-11 -8q-8 -5 -11 -5q-11 0 -11 14q0 17 77 73q43 32 61 42q20 9 48 9q26 0 116 -17q65 -13 91 -13q33 0 48 12 l9 8q8 5 15 5q11 0 11 -10t-19 -30q-19 -22 -46 -43q-72 -57 -103 -57z" />
<glyph unicode="&#xf6;" horiz-adv-x="669" d="M500 512q0 96 -30 147q-32 50 -86 50q-66 0 -129 -87q-40 -54 -66 -147q-25 -93 -25 -189q0 -99 34 -154q33 -57 90 -57q72 0 124 79q25 40 44 97q20 63 32 128q12 68 12 133zM27 236q0 93 40 189q40 97 106 180q68 85 145 135q78 51 150 51q79 0 127 -62q47 -64 47 -168 q0 -99 -38 -201q-39 -101 -104 -183q-63 -81 -144 -131q-79 -49 -159 -49q-79 0 -124 64q-46 62 -46 175zM690 1062l-10 -74q-5 -38 -18 -53q-14 -15 -61 -32l-29 -10q-12 -4 -18 -4q-16 0 -16 18q0 14 1 19l4 35l5 37q6 44 14 59q8 14 31 25q80 39 89 39q13 0 13 -15v-4 q-1 -1 -1 -5q-1 -5 -1 -15l-2 -9v-7q-1 -1 -1 -4zM456 1062l-11 -74q-5 -40 -18 -53q-14 -16 -60 -32l-29 -10q-15 -4 -18 -4q-17 0 -17 18q0 1 2 19l4 35l5 37q6 43 14 59q7 14 31 25q78 39 89 39q12 0 12 -15v-9q-3 -19 -3 -24q-1 -3 -1 -11z" />
<glyph unicode="&#xf7;" horiz-adv-x="777" d="M281 580l-4 -26q86 104 155 157q107 80 190 80q42 0 73 -29q30 -28 30 -73q0 -60 -62 -142q-31 -40 -71 -77t-97 -78l7 -18l34 -93q44 -111 76 -156q31 -46 65 -46q21 0 74 35q20 12 24 12q9 0 9 -11q0 -15 -61 -51q-50 -30 -113 -58q-40 -17 -66 -17t-46 20q-9 9 -13 18 q-7 10 -11 23l-10 27l-22 58l-27 74q-24 65 -35 90q-9 18 -22 18q-7 0 -9 -1q-6 -3 -11 -3q-8 0 -8 9q0 10 12 17l59 38q189 122 189 250q0 39 -18 63q-19 24 -49 24q-44 0 -97 -47q-54 -48 -98 -125q-55 -94 -78 -216q-20 -109 -35 -248q-3 -24 -7 -28q-3 -3 -41 -16 q-11 -3 -47 -17l-44 -16l-22 -8q18 74 32 151q12 65 31 192q13 93 22 182q7 70 7 118q0 55 -47 55q-16 0 -55 -12q-18 -3 -16 -3q-14 0 -14 14q0 11 40 24l65 26q115 44 151 44q32 0 32 -34q0 -24 -21 -170z" />
<glyph unicode="&#xf8;" horiz-adv-x="669" d="M191 142l27 58l27 59l70 151q47 101 52 110q12 26 17 39l29 65l30 65q-29 20 -58 20q-67 0 -130 -87q-39 -54 -65 -149q-26 -96 -26 -186q0 -88 27 -145zM479 641l-12 -24l-62 -131l-36 -79l-35 -77l-54 -122l-43 -95q-3 -9 -8 -18q26 -20 59 -20q72 0 124 79 q25 40 44 97q20 63 32 128q12 68 12 133q0 80 -21 129zM549 771q42 -26 68 -83q25 -54 25 -127q0 -99 -38 -201q-39 -101 -104 -183q-63 -81 -144 -131q-79 -49 -159 -49h-8l-3 -6q-20 -50 -33 -68q-13 -16 -38 -22l-21 -5q-10 -3 -19 -3q-14 0 -14 11q0 6 9 15q24 24 51 77 l8 17q-51 26 -76 80q-26 55 -26 132q0 207 162 397q68 81 141 125q74 44 138 44q-3 0 21 -2l8 16q3 7 7 14.5t7 15.5l10 23q6 12 11 15q3 2 18 7q38 13 60 13q15 0 15 -12q0 -4 -11 -17q-29 -29 -65 -93z" />
<glyph unicode="&#xf9;" horiz-adv-x="778" d="M702 772l13 5q-16 -50 -30 -116q-13 -64 -36 -198q-18 -122 -25 -183q-12 -91 -12 -131q0 -63 56 -63q20 0 45 16q10 7 19 7q15 0 15 -14q0 -8 -9 -14q-8 -6 -68 -35q-15 -7 -28 -12.5t-21 -10.5q-78 -36 -95 -36q-53 0 -53 70q0 50 4 99l3 43q0 13 1 20 q-92 -104 -183 -163q-91 -58 -164 -58q-36 0 -56 16q-21 17 -21 43t22 130q67 325 67 433q0 61 -38 61q-11 0 -31 -6l-20 -5q-18 -5 -25 -5q-15 0 -15 12q0 10 10 16q13 6 55 21l57 20q119 42 145 42q30 0 30 -36q0 -19 -9 -69l-28 -141l-30 -150q-37 -184 -37 -231 q0 -28 15 -45q15 -18 40 -18q33 0 73 33q42 34 77 90q48 74 80 180q32 105 63 302q3 23 22 30q9 4 16.5 7t35.5 15zM361 1091h92q23 0 33 -8q8 -8 8 -29q0 -13 -1 -18l-21 -144l-1 -9q-3 -15 -10 -15q-5 0 -14 15l-7 11l-83 153l-7 13q-9 17 -9 21q0 10 20 10z" />
<glyph unicode="&#xfa;" horiz-adv-x="778" d="M702 772l13 5q-16 -50 -30 -116q-13 -64 -36 -198q-18 -122 -25 -183q-12 -91 -12 -131q0 -63 56 -63q20 0 45 16q10 7 19 7q15 0 15 -14q0 -8 -9 -14q-8 -6 -68 -35q-15 -7 -28 -12.5t-21 -10.5q-78 -36 -95 -36q-53 0 -53 70q0 50 4 99l3 43q0 13 1 20 q-92 -104 -183 -163q-91 -58 -164 -58q-36 0 -56 16q-21 17 -21 43t22 130q67 325 67 433q0 61 -38 61q-11 0 -31 -6l-20 -5q-18 -5 -25 -5q-15 0 -15 12q0 10 10 16q13 6 55 21l57 20q119 42 145 42q30 0 30 -36q0 -19 -9 -69l-28 -141l-30 -150q-37 -184 -37 -231 q0 -28 15 -45q15 -18 40 -18q33 0 73 33q42 34 77 90q48 74 80 180q32 105 63 302q3 23 22 30q9 4 16.5 7t35.5 15zM489 1091h92q19 0 19 -10q0 -1 -12 -21l-10 -13l-110 -153l-9 -11q-12 -15 -17 -15q-7 0 -7 15l1 9l4 144q0 4 2 18q5 22 14 29q10 8 33 8z" />
<glyph unicode="&#xfb;" horiz-adv-x="778" d="M702 772l13 5q-16 -50 -30 -116q-13 -64 -36 -198q-18 -122 -25 -183q-12 -91 -12 -131q0 -63 56 -63q20 0 45 16q10 7 19 7q15 0 15 -14q0 -8 -9 -14q-8 -6 -68 -35q-15 -7 -28 -12.5t-21 -10.5q-78 -36 -95 -36q-53 0 -53 70q0 50 4 99l3 43q0 13 1 20 q-92 -104 -183 -163q-91 -58 -164 -58q-36 0 -56 16q-21 17 -21 43t22 130q67 325 67 433q0 61 -38 61q-11 0 -31 -6l-20 -5q-18 -5 -25 -5q-15 0 -15 12q0 10 10 16q13 6 55 21l57 20q119 42 145 42q30 0 30 -36q0 -19 -9 -69l-28 -141l-30 -150q-37 -184 -37 -231 q0 -28 15 -45q15 -18 40 -18q33 0 73 33q42 34 77 90q48 74 80 180q32 105 63 302q3 23 22 30q9 4 16.5 7t35.5 15zM525 1162q14 -2 44 -49q45 -73 104 -154q15 -19 15 -24q0 -7 -18 -19q-17 -11 -29 -11t-37 17l-43 32l-40 32q-41 31 -51 31q-14 0 -112 -54q-8 -4 -26 -14 l-16 -9l-39 -20q-16 -9 -21 -9q-9 0 -9 9q0 3 8 11l11 11q13 13 41 37l46 41q45 39 48 42l43 40l38 33q29 27 43 27z" />
<glyph unicode="&#xfc;" horiz-adv-x="778" d="M702 772l13 5q-16 -50 -30 -116q-13 -64 -36 -198q-18 -122 -25 -183q-12 -91 -12 -131q0 -63 56 -63q20 0 45 16q10 7 19 7q15 0 15 -14q0 -8 -9 -14q-8 -6 -68 -35q-15 -7 -28 -12.5t-21 -10.5q-78 -36 -95 -36q-53 0 -53 70q0 50 4 99l3 43q0 13 1 20 q-92 -104 -183 -163q-91 -58 -164 -58q-36 0 -56 16q-21 17 -21 43t22 130q67 325 67 433q0 61 -38 61q-11 0 -31 -6l-20 -5q-18 -5 -25 -5q-15 0 -15 12q0 10 10 16q13 6 55 21l57 20q119 42 145 42q30 0 30 -36q0 -19 -9 -69l-28 -141l-30 -150q-37 -184 -37 -231 q0 -28 15 -45q15 -18 40 -18q33 0 73 33q42 34 77 90q48 74 80 180q32 105 63 302q3 23 22 30q9 4 16.5 7t35.5 15zM666 1062l-10 -74q-5 -38 -18 -53q-14 -15 -61 -32l-29 -10q-12 -4 -18 -4q-16 0 -16 18q0 14 1 19l4 35l5 37q6 44 14 59q8 14 31 25q80 39 89 39 q13 0 13 -15v-4q-1 -1 -1 -5q-1 -5 -1 -15l-2 -9v-7q-1 -1 -1 -4zM432 1062l-11 -74q-5 -40 -18 -53q-14 -16 -60 -32l-29 -10q-15 -4 -18 -4q-17 0 -17 18q0 1 2 19l4 35l5 37q6 43 14 59q7 14 31 25q78 39 89 39q12 0 12 -15v-9q-3 -19 -3 -24q-1 -3 -1 -11z" />
<glyph unicode="&#xff;" horiz-adv-x="734" d="M164 -13l16 13q-11 0 -19.5 -1t-11.5 -1q-64 0 -64 62q0 15 4 40l17 100q2 7 7.5 46.5t12.5 83.5l6 41q2 10 3.5 22t2.5 18q1 3 4 23q1 3 1.5 6.5t0.5 5.5v8q0 7 1 11l12 93q4 28 4 64q0 68 -48 68q-22 0 -45 -10l-20 -8q-15 -5 -18 -5q-14 0 -14 13q0 9 9 16q7 5 42 19 q147 62 187 62q59 0 59 -58q0 -29 -18 -143l-20 -128q-9 -54 -29 -202q-7 -53 -7 -91q0 -57 45 -57q30 0 69 27q38 27 81 81q69 86 110 196q42 113 42 208q0 82 -50 82q-29 0 -65 -16q-12 -6 -19 -6q-12 0 -12 13q0 14 81 47q118 47 161 47q59 0 59 -111q0 -158 -121 -333 q-54 -78 -122 -142q-68 -62 -197 -151q-107 -73 -171 -133q-66 -62 -96 -117q-31 -55 -31 -110q0 -46 35 -75q35 -30 89 -30q30 0 52 13q13 8 16 8q10 0 10 -10q0 -18 -54 -49q-74 -43 -153 -43q-58 0 -89 34q-32 34 -32 92q0 48 21 93q19 42 68 96q47 51 129 120zM678 1062 l-10 -74q-5 -38 -18 -53q-14 -15 -61 -32l-29 -10q-12 -4 -18 -4q-16 0 -16 18q0 14 1 19l4 35l5 37q6 44 14 59q8 14 31 25q80 39 89 39q13 0 13 -15v-4q-1 -1 -1 -5q-1 -5 -1 -15l-2 -9v-7q-1 -1 -1 -4zM444 1062l-11 -74q-5 -40 -18 -53q-14 -16 -60 -32l-29 -10 q-15 -4 -18 -4q-17 0 -17 18q0 1 2 19l4 35l5 37q6 43 14 59q7 14 31 25q78 39 89 39q12 0 12 -15v-9q-3 -19 -3 -24q-1 -3 -1 -11z" />
<glyph unicode="&#x131;" horiz-adv-x="377" d="M160 649q0 49 -33 49q-20 0 -67 -26q-13 -9 -22 -9q-11 0 -11 13q0 11 13 18q8 5 64 29q138 58 169 58q39 0 39 -49q0 -31 -32 -189l-25 -122q-36 -175 -36 -246q0 -90 53 -90q16 0 56 20q10 7 19 7q11 0 11 -9q0 -12 -17 -21q-9 -6 -76 -35q-106 -45 -149 -45 q-27 0 -39 13q-12 14 -12 40q0 21 30 184q44 241 55 321q10 70 10 89z" />
<glyph unicode="&#x152;" horiz-adv-x="1150" d="M709 1153q-46 25 -104 25q-152 0 -212 -116q-24 -44 -53 -179q-28 -129 -81 -434q-40 -225 -40 -291q0 -67 54 -67q22 0 52 11l15 5q6 2 7 2q8 0 8 -9q0 -7 -12 -15q-10 -5 -63 -28q-52 -22 -145 -53q-25 -9 -40 -9q-34 0 -34 43q0 18 9 66l22 117q4 19 5 25q1 7 2 13 l3 18q5 30 10 54l26 148l20 115q27 160 41 211q17 62 49 123q78 152 236 270q56 43 128 76q68 30 106 30q56 0 78 -46l15 13q193 155 321 155q57 0 57 -40q0 -22 -53 -99q-39 -56 -53 -56q-15 0 -15 11q0 4 3 10l5 7l2 8q0 17 -28 27q-27 10 -71 10q-113 0 -171 -85 q-22 -31 -43 -88q-20 -56 -40 -143q-24 -105 -46 -232l-30 -171l-5 -31q98 116 174 166q45 30 90 48q45 17 77 17q40 0 64 -24t24 -64q0 -131 -255 -328q44 -44 85 -125l78 -150q74 -141 115 -205q40 -67 75 -94q33 -27 70 -27q40 0 83 42q6 6 12 6q3 0 8 -5t5 -9 q0 -13 -45 -49q-55 -45 -102 -69q-46 -24 -78 -24q-40 0 -81 48q-40 46 -105 173l-60 119l-61 119q-51 100 -75 130q-26 32 -66 47q-14 5 -14 12q0 10 17 16q46 17 100 57q52 38 92 81q85 94 85 174q0 30 -20 53q-19 22 -50 22q-90 0 -185 -156q-85 -141 -128 -426 q-12 -70 -15 -84q-5 -14 -11 -19q-9 -7 -28 -11l-107 -27l6 25l59 311q24 131 47 278q27 169 48 265q21 91 50 150q30 59 87 136z" />
<glyph unicode="&#x153;" horiz-adv-x="977" d="M613 411q37 -8 55 -8q51 0 92 31q42 30 67 82q25 51 25 112q0 45 -19 71q-19 27 -50 27q-36 0 -69 -38q-34 -39 -60 -111q-27 -75 -41 -166zM500 512q0 96 -30 147q-32 50 -85 50q-67 0 -130 -87q-39 -54 -65 -149q-26 -96 -26 -186q0 -99 34 -155q33 -57 90 -57 q72 0 124 79q25 40 44 97q20 63 32 128q12 68 12 133zM631 648q31 39 79 77q42 33 86 53q41 19 74 19q42 0 67 -30q26 -31 26 -76q0 -63 -51 -140q-51 -74 -135 -140q-82 -64 -172 -96q-2 -26 -2 -46q0 -92 35 -142t99 -50q60 0 103 36q13 10 18 10q12 0 12 -11 q0 -17 -57 -50q-59 -33 -111 -50q-53 -19 -91 -19q-106 0 -133 156q-65 -70 -140 -112q-73 -40 -141 -40q-76 0 -123 63q-47 64 -47 165q0 208 162 398q69 82 141 124q74 44 138 44q125 0 163 -143z" />
<glyph unicode="&#x178;" horiz-adv-x="1305" d="M699 717q51 72 95 128t84 100q89 98 183 172q135 106 256 152q47 19 69 19q14 0 14 -10q0 -6 -21 -26q-65 -65 -97 -178q-27 -94 -56 -367q-17 -162 -35 -244q-16 -73 -53 -149q-45 -93 -112 -169q-66 -75 -153 -133q-87 -57 -183 -87q-97 -30 -191 -30t-147 36t-53 100 q0 88 95 165q31 25 42 25t11 -9q0 -6 -9 -15q-26 -26 -26 -75q0 -46 26 -81t73 -53q47 -19 109 -19q52 0 104 15q51 15 102 47q53 34 88 73q35 38 62 92q37 72 61 181q16 75 38 247l20 158q23 164 34 212q9 45 49 152q-92 -47 -204 -169q-87 -96 -150 -191 q-63 -96 -102 -194q-41 -99 -67 -212q-3 -15 -6 -21q-4 -6 -16 -13l-54 -33l-49 -30l-27 -16q-16 -10 -20 -10q-9 0 -9 10q0 6 6 22q38 124 71 321q31 187 31 304q0 142 -47 221q-47 77 -132 77q-65 0 -130 -47q-63 -47 -103 -125q-40 -77 -40 -161q0 -97 53 -162 q52 -64 134 -64q73 0 110 39q11 11 16 11q12 0 12 -12q0 -14 -30 -50q-91 -103 -182 -103q-82 0 -135 72q-53 71 -53 181q0 99 40 195q39 97 109 173q64 69 148 113q85 44 154 44q106 0 161 -81q56 -83 56 -237q0 -99 -24 -281zM1191 1649l-10 -74q-5 -38 -18 -53 q-14 -15 -61 -32l-29 -10q-12 -4 -18 -4q-16 0 -16 18q0 14 1 19l4 35l5 37q6 44 14 59q8 14 31 25q80 39 89 39q13 0 13 -15v-4q-1 -1 -1 -5q-1 -5 -1 -15l-2 -9v-7q-1 -1 -1 -4zM957 1649l-11 -74q-5 -40 -18 -53q-14 -16 -60 -32l-29 -10q-15 -4 -18 -4q-17 0 -17 18 q0 1 2 19l4 35l5 37q6 43 14 59q7 14 31 25q78 39 89 39q12 0 12 -15v-9q-3 -19 -3 -24q-1 -3 -1 -11z" />
<glyph unicode="&#x2c6;" horiz-adv-x="714" d="M415 1162q14 -2 44 -49q45 -73 104 -154q15 -19 15 -24q0 -7 -18 -19q-17 -11 -29 -11t-37 17l-43 32l-40 32q-41 31 -51 31q-14 0 -112 -54q-8 -4 -26 -14l-16 -9l-39 -20q-16 -9 -21 -9q-9 0 -9 9q0 3 8 11l11 11q13 13 41 37l46 41q45 39 48 42l43 40l38 33 q29 27 43 27z" />
<glyph unicode="&#x2da;" horiz-adv-x="584" d="M214 975q0 -33 15 -57t37 -24q43 0 74 48q31 46 31 112q0 63 -50 63q-40 0 -73 -45q-34 -46 -34 -97zM227 843q-38 0 -64 29t-26 71q0 90 102 168q76 58 141 58q67 0 67 -88q0 -95 -97 -180q-67 -58 -123 -58z" />
<glyph unicode="&#x2dc;" horiz-adv-x="750" d="M445 952q-21 0 -81 12q-103 22 -145 22q-32 0 -49 -14l-11 -8q-8 -5 -11 -5q-11 0 -11 14q0 17 77 73q43 32 61 42q20 9 48 9q26 0 116 -17q65 -13 91 -13q33 0 48 12l9 8q8 5 15 5q11 0 11 -10t-19 -30q-19 -22 -46 -43q-72 -57 -103 -57z" />
<glyph unicode="&#x2000;" horiz-adv-x="878" />
<glyph unicode="&#x2001;" horiz-adv-x="1757" />
<glyph unicode="&#x2002;" horiz-adv-x="878" />
<glyph unicode="&#x2003;" horiz-adv-x="1757" />
<glyph unicode="&#x2004;" horiz-adv-x="585" />
<glyph unicode="&#x2005;" horiz-adv-x="439" />
<glyph unicode="&#x2006;" horiz-adv-x="292" />
<glyph unicode="&#x2007;" horiz-adv-x="292" />
<glyph unicode="&#x2008;" horiz-adv-x="219" />
<glyph unicode="&#x2009;" horiz-adv-x="351" />
<glyph unicode="&#x200a;" horiz-adv-x="97" />
<glyph unicode="&#x2010;" horiz-adv-x="672" d="M268 386h-45q-98 -1 -118 -15l-7 -4q-4 -3 -7 -3q-9 0 -9 11t47 75q19 24 36 41q12 11 31 16q15 4 45 4q37 0 73 -1q27 -1 56 -1t44 -1h28q113 0 156 25q12 5 14 5q13 0 13 -12q0 -10 -19 -41q-21 -35 -42 -62q-16 -22 -30 -29q-16 -9 -40 -9q-21 0 -33 1h-118h-75z" />
<glyph unicode="&#x2011;" horiz-adv-x="672" d="M268 386h-45q-98 -1 -118 -15l-7 -4q-4 -3 -7 -3q-9 0 -9 11t47 75q19 24 36 41q12 11 31 16q15 4 45 4q37 0 73 -1q27 -1 56 -1t44 -1h28q113 0 156 25q12 5 14 5q13 0 13 -12q0 -10 -19 -41q-21 -35 -42 -62q-16 -22 -30 -29q-16 -9 -40 -9q-21 0 -33 1h-118h-75z" />
<glyph unicode="&#x2012;" horiz-adv-x="672" d="M268 386h-45q-98 -1 -118 -15l-7 -4q-4 -3 -7 -3q-9 0 -9 11t47 75q19 24 36 41q12 11 31 16q15 4 45 4q37 0 73 -1q27 -1 56 -1t44 -1h28q113 0 156 25q12 5 14 5q13 0 13 -12q0 -10 -19 -41q-21 -35 -42 -62q-16 -22 -30 -29q-16 -9 -40 -9q-21 0 -33 1h-118h-75z" />
<glyph unicode="&#x2013;" horiz-adv-x="1123" d="M82 376q0 3 9 19l22 31q35 54 59 69q23 16 65 16l101 -2l145 -1l144 -1l142 -1h63q95 0 143 6q49 5 74 21q10 5 14 5q12 0 12 -12q0 -7 -20 -41q-11 -20 -40 -62q-16 -22 -31 -29q-16 -9 -44 -9q-16 0 -25 1q-26 0 -38 1l-74 1q-62 0 -111 1q-43 0 -61 1h-68h-82l-244 -3 q-93 -1 -119 -9q-7 -1 -13 -6l-7 -5q-3 -3 -7 -3q-9 0 -9 12z" />
<glyph unicode="&#x2014;" horiz-adv-x="2177" d="M82 376q0 7 31 50q34 47 47 60q17 17 35 21q16 4 66 4q52 0 77 -1q47 -1 270 -1l302 -1l319 1l308 -1l287 -2h62q95 0 143 6q49 5 74 21q12 5 14 5q13 0 13 -12q0 -14 -42 -76q-20 -31 -33 -44q-14 -14 -27 -17q-13 -4 -53 -4q-1 0 -16.5 1t-37.5 1h-77l-212 3l-272 1 l-327 1l-198 1q53 0 -249 -2q-257 -3 -378 -5q-86 -2 -103 -14l-7 -5q-3 -3 -7 -3q-9 0 -9 12z" />
<glyph unicode="&#x2018;" horiz-adv-x="359" d="M455 1366q7 0 11 -3q3 -3 3 -7q0 -3 -5 -5q-39 -18 -56 -53q-17 -37 -29 -125q-4 -38 -9 -52q-5 -15 -14 -19q-10 -6 -48 -18q-14 -4 -20 -5q-6 -2 -12 -5q-13 -6 -23 -6q-14 0 -14 13q0 22 18 94q10 45 29 73q17 26 57 57q29 22 65 43q32 18 47 18z" />
<glyph unicode="&#x2019;" horiz-adv-x="359" d="M212 1068q-14 0 -14 10q0 3 5 5q38 18 58 56q17 36 28 122q5 40 9 53q3 13 14 19q15 6 48 17q12 4 19 7q11 3 12 3q14 6 24 6q13 0 13 -13q0 -22 -18 -94q-12 -48 -27 -71t-59 -59q-24 -19 -63 -41q-35 -20 -49 -20z" />
<glyph unicode="&#x201a;" horiz-adv-x="587" d="M553 702l-37 -96l-6 -15q-8 -14 -15 -14q-11 0 -11 14v3l1 10q1 3 1 11q0 31 -39 56q-40 24 -94 24q-64 0 -115 -36q-52 -37 -52 -80q0 -20 13 -39q11 -18 46 -44q37 -28 103 -69q106 -67 131 -97q26 -32 26 -86q0 -63 -29 -135q-30 -71 -87 -137q-136 -157 -320 -157 q-59 0 -102 20q-42 19 -42 48q0 12 7 32l41 119q14 38 25 38q13 0 13 -13q0 -9 -1 -14q-2 -10 -2 -14q0 -46 45 -71q44 -26 123 -26q109 0 179 57q70 55 70 141q0 42 -34 77q-33 34 -133 99q-74 48 -105 74q-28 22 -39 43q-10 19 -10 53q0 57 30 111q29 54 81 99 q53 45 115 72q63 26 123 26q49 0 77 -15q29 -17 29 -43q0 -8 -6 -26z" />
<glyph unicode="&#x201c;" horiz-adv-x="549" d="M455 1366q7 0 11 -3q3 -3 3 -7q0 -3 -5 -5q-39 -18 -56 -53q-17 -37 -29 -125q-4 -38 -9 -52q-5 -15 -14 -19q-10 -6 -48 -18q-14 -4 -20 -5q-6 -2 -12 -5q-13 -6 -23 -6q-14 0 -14 13q0 22 18 94q10 45 29 73q17 26 57 57q29 22 65 43q32 18 47 18zM645 1366q6 0 10 -3 q4 -4 4 -7t-5 -5q-40 -18 -57 -53q-17 -37 -29 -125q-4 -33 -8 -52q-5 -15 -14 -19q-11 -6 -49 -18q-15 -4 -21 -6q-3 -1 -10 -4q-15 -6 -24 -6q-14 0 -14 13q0 19 19 94q12 48 28 73q17 25 58 57q31 25 64 43t48 18z" />
<glyph unicode="&#x201d;" horiz-adv-x="549" d="M401 1068q-14 0 -14 10q0 3 5 5q38 16 58 56q17 36 28 122q5 40 9 53q5 14 14 19q15 6 48 17q12 4 19 7q11 3 12 3q15 6 24 6q14 0 14 -13q0 -14 -18 -94q-12 -50 -28 -73t-59 -57q-27 -21 -62 -41t-50 -20zM212 1068q-14 0 -14 10q0 3 5 5q38 18 58 56q17 36 28 122 q5 40 9 53q3 13 14 19q15 6 48 17q12 4 19 7q11 3 12 3q14 6 24 6q13 0 13 -13q0 -22 -18 -94q-12 -48 -27 -71t-59 -59q-24 -19 -63 -41q-35 -20 -49 -20z" />
<glyph unicode="&#x201e;" horiz-adv-x="549" d="M227 -73q-14 0 -14 10q0 3 5 6q38 18 58 56q17 36 28 121q5 40 9 53q3 13 14 19q15 6 48 17q5 2 9.5 3.5t8.5 2.5q10 4 13 5q18 5 24 5q14 0 14 -13q0 -19 -19 -94q-11 -46 -27 -71q-17 -27 -59 -58q-38 -30 -65 -44q-31 -18 -47 -18zM38 -73q-14 0 -14 10q0 3 5 6 q40 18 58 56q17 36 28 121q5 46 9 56q3 11 13 15q10 5 49 18q5 2 9.5 3.5t8.5 2.5q10 4 13 5q17 5 24 5q13 0 13 -13q0 -22 -18 -94q-12 -49 -27 -72q-14 -22 -59 -57q-31 -25 -64 -44q-33 -18 -48 -18z" />
<glyph unicode="&#x2022;" horiz-adv-x="615" d="M355 813q38 0 66 -12q30 -14 51 -35t35 -51q12 -28 12 -66q0 -68 -48 -116t-116 -48t-116 49q-48 50 -48 115q0 68 48 116t116 48z" />
<glyph unicode="&#x2026;" horiz-adv-x="2048" d="M1723 225q13 0 13 -12q0 -7 -3 -28l-5 -36l-6 -38q-4 -25 -8 -45q-1 -7 -7 -13q-4 -4 -31 -23l-29 -19l-8 -5q-17 -11 -22 -13q-25 -14 -34 -14q-15 0 -15 18v12l3 24q7 72 17 113q6 23 24 30l21 10l27 13l32 15q24 11 31 11zM1040 225q13 0 13 -12q0 -7 -3 -28l-5 -36 l-5 -38q-6 -44 -11 -54q-6 -9 -36 -27l-29 -19l-8 -5q-17 -11 -22 -13q-23 -14 -34 -14q-15 0 -15 18q0 9 1 12l3 24q7 72 17 113q6 22 23 30l22 10l26 13l32 15q24 11 31 11zM358 225q13 0 13 -12q0 -7 -3 -28l-5 -36l-6 -38q-4 -25 -8 -45q-1 -7 -7 -13q-4 -4 -31 -23 l-29 -19q-6 -3 -30 -18q-25 -14 -34 -14q-15 0 -15 18v12l3 24q7 72 17 113q6 23 24 30l21 10l27 13l32 15q24 11 31 11z" />
<glyph unicode="&#x202f;" horiz-adv-x="351" />
<glyph unicode="&#x2039;" horiz-adv-x="741" d="M296 657l-5 -37l-27 -183q-1 -6 -5 -34l-10.5 -75l-12.5 -88q-5 -42 -14 -104.5t-15 -90.5q-10 -59 -21 -93q-13 -47 -47 -101q-33 -54 -80 -104t-104 -92q-151 -112 -331 -112q-70 0 -120 26t-50 63q0 25 61 113q30 42 39 42t9 -9q0 -3 -4 -14q-2 -8 -2 -17 q0 -44 65 -82t142 -38q59 0 124 33q63 31 102 82q32 41 55 114q22 74 41 210l29 199l30 196l25 172l4 25h-41q-44 0 -55 -8q-12 -9 -19 -9q-11 0 -11 9q0 6 9 16l13 13q42 44 66 60q21 15 53 20q13 58 37 116q24 62 60 117q40 61 85 112q51 57 120 107q74 52 140 80 q70 29 118 29q29 0 43 -13q15 -13 15 -34q0 -18 -33 -65l-26 -39q-27 -41 -33 -47q-5 -5 -13 -5q-9 0 -9 10q0 4 1 5l2 3q2 8 2 13q0 25 -23 43q-25 17 -63 17q-57 0 -113 -36q-57 -36 -95 -98q-59 -90 -91 -304l25 -1q55 -4 106 -4q83 0 173 15q15 3 27 3q35 0 35 -41 q0 -30 -34 -199l-24 -122q-36 -177 -36 -246q0 -90 53 -90q17 0 55 20q13 7 19 7q12 0 12 -9q0 -12 -17 -21q-9 -6 -76 -35q-108 -45 -149 -45q-27 0 -39 13q-12 14 -12 40q0 21 30 184q41 222 54 309q12 87 12 140q0 15 -1 21q-33 -39 -49 -46q-18 -9 -76 -9q-18 0 -23 1 l-61 1q-13 0 -21 1z" />
<glyph unicode="&#x203a;" horiz-adv-x="480" d="M163 659l54 54q56 -93 93 -168l37 -74q31 -61 31 -77t-18 -39q-19 -22 -78 -78l-68 -64q-15 -13 -34 -32l-12 -11.5t-15 -14.5q-59 -58 -81 -76h-52l12 14l53 66q74 92 111 146q34 49 34 77q0 30 -21 106l-19 72q-13 56 -27 99z" />
<glyph unicode="&#x205f;" horiz-adv-x="439" />
<glyph unicode="&#x2122;" horiz-adv-x="669" d="M388 710q-75 0 -131 -81q-38 -57 -64 -153q-25 -93 -25 -178q0 -219 131 -219q66 0 115 73q42 62 66 160q23 100 23 212q0 186 -115 186zM281 10q56 -14 166 -62q133 -60 222 -94q105 -41 178 -59q72 -19 122 -19q58 0 88 13q32 12 51 45q5 9 13 9q13 0 13 -13 q0 -25 -63 -77q-110 -92 -229 -92q-108 0 -356 121l-135 66q-117 58 -168 78q-54 20 -85 20q-32 0 -49 -12q-18 -13 -40 -53q-8 -11 -15 -11q-11 0 -11 13q0 36 50 81q41 38 100 50q-101 62 -101 226q0 109 49 217q50 110 135 197q63 65 135 102q70 37 134 37q49 0 86 -30 q38 -31 59 -84q21 -54 21 -125q0 -107 -56 -227q-55 -117 -145 -204q-37 -36 -70 -57q-38 -25 -99 -56z" />
<glyph unicode="&#xe000;" horiz-adv-x="790" d="M0 790h790v-790h-790v790z" />
<glyph unicode="&#xfb01;" horiz-adv-x="895" d="M905 1201q15 0 15 -18q0 -5 -8 -35q0 -1 -5 -19q-4 -16 -6 -22q-11 -45 -20 -61q-8 -14 -34 -26q-40 -19 -50 -26q-9 -6 -20 -23l-12 -19q-17 -26 -26 -26q-7 0 -7 6q0 3 2 13q15 60 25 116q12 68 18 82q5 12 25 20l41 15q4 2 7.5 3.5t9.5 3.5q4 2 10 4l9 3q18 9 26 9z M678 649q0 49 -33 49q-20 0 -67 -26q-13 -9 -22 -9q-11 0 -11 13q0 11 13 18q8 5 64 29q138 58 169 58q39 0 39 -49q0 -31 -32 -189l-25 -122q-36 -175 -36 -246q0 -90 53 -90q16 0 56 20q10 7 19 7q11 0 11 -9q0 -12 -17 -21q-9 -6 -76 -35q-106 -45 -149 -45q-27 0 -39 13 q-12 14 -12 40q0 21 30 184q44 241 55 321q10 70 10 89zM101 134l65 525h-23q-61 0 -94 -10q-7 -3 -12 -3q-8 0 -8 6q0 8 35 40q29 27 104 83l16 12q1 3 4 15q1 3 1 6l8 45q37 201 203 388q51 56 117 104q68 50 133 78t115 28q25 0 39 -11t14 -31q0 -17 -12 -37l-65 -107 q-9 -14 -20 -14t-11 11l1 15q0 22 -27 35t-70 13q-82 0 -137 -44q-54 -45 -87 -139q-42 -121 -75 -369l148 2q74 0 92 15l7 5q5 3 9 3q10 0 10 -11q0 -15 -25 -49q-28 -37 -51 -58q-16 -14 -37 -20q-22 -6 -62 -6q-10 0 -15 1h-19l-52 1h-20l-64 -559q-18 -168 -55 -259 q-37 -94 -120 -184q-95 -104 -203 -158t-223 -54q-76 0 -128 27q-53 26 -53 63q0 13 17 42l60 99q10 16 19 16q13 0 13 -11q0 3 -2 -11q-2 -10 -2 -11q0 -45 55 -79q55 -35 123 -35q76 0 145 25q70 26 99 61q21 26 41.5 87t38.5 153.5t36 236.5z" />
<glyph unicode="&#xfb02;" horiz-adv-x="895" d="M576 48q0 23 6 56l29 159q29 150 58 339l26 162q12 64 24 149q10 67 10 92q0 66 -46 66q-14 0 -38 -10q-28 -11 -35 -11q-11 0 -11 9q0 19 78 50q126 54 171 54q43 0 43 -43q0 -23 -4 -40q0 -5 -7 -40q-3 -15 -4 -23t-3 -14l-5 -26l-5 -25l-50 -294q-10 -67 -18 -114 l-12 -74q-2 -15 -6 -39t-11 -71l-14 -86q-15 -103 -15 -134q0 -24 14 -41q13 -16 35 -16q17 0 53 13q17 6 23 6q14 0 14 -12q0 -17 -44 -32q-19 -8 -137 -44q-52 -16 -71 -16q-48 0 -48 50zM101 134l65 525h-23q-61 0 -94 -10q-7 -3 -12 -3q-8 0 -8 6q0 8 35 40 q29 27 104 83l16 12q1 3 4 15q1 3 1 6l8 45q37 201 203 388q51 56 117 104q68 50 133 78t115 28q25 0 39 -11t14 -31q0 -17 -12 -37l-65 -107q-9 -14 -20 -14t-11 11l1 15q0 22 -27 35t-70 13q-82 0 -137 -44q-54 -45 -87 -139q-42 -121 -75 -369l148 2q74 0 92 15l7 5 q5 3 9 3q10 0 10 -11q0 -15 -25 -49q-28 -37 -51 -58q-16 -14 -37 -20q-22 -6 -62 -6q-10 0 -15 1h-19l-52 1h-20l-64 -559q-18 -168 -55 -259q-37 -94 -120 -184q-95 -104 -203 -158t-223 -54q-76 0 -128 27q-53 26 -53 63q0 13 17 42l60 99q10 16 19 16q13 0 13 -11 q0 3 -2 -11q-2 -10 -2 -11q0 -45 55 -79q55 -35 123 -35q76 0 145 25q70 26 99 61q21 26 41.5 87t38.5 153.5t36 236.5z" />
<glyph unicode="&#xfb03;" horiz-adv-x="1413" d="M1423 1201q15 0 15 -18q0 -5 -8 -35q0 -1 -5 -19q-4 -16 -6 -22q-11 -45 -20 -61q-8 -14 -34 -26q-40 -19 -50 -26q-9 -6 -20 -23l-12 -19q-17 -26 -26 -26q-7 0 -7 6q0 3 2 13q15 60 25 116q12 68 18 82q5 12 25 20l41 15q4 2 7.5 3.5t9.5 3.5q4 2 10 4l9 3q18 9 26 9z M1196 649q0 49 -33 49q-20 0 -67 -26q-13 -9 -22 -9q-11 0 -11 13q0 11 13 18q8 5 64 29q138 58 169 58q39 0 39 -49q0 -31 -32 -189l-25 -122q-36 -175 -36 -246q0 -90 53 -90q16 0 56 20q10 7 19 7q11 0 11 -9q0 -12 -17 -21q-9 -6 -76 -35q-106 -45 -149 -45 q-27 0 -39 13q-12 14 -12 40q0 21 30 184q44 241 55 321q10 70 10 89zM619 134l65 525h-23q-61 0 -94 -10q-7 -3 -12 -3q-8 0 -8 6q0 8 35 40q29 27 104 83l16 12q1 3 4 15q1 3 1 6l8 45q37 201 203 388q51 56 117 104q68 50 133 78t115 28q25 0 39 -11t14 -31 q0 -17 -12 -37l-65 -107q-9 -14 -20 -14t-11 11l1 15q0 22 -27 35t-70 13q-82 0 -137 -44q-54 -45 -87 -139q-42 -121 -75 -369l148 2q74 0 92 15l7 5q5 3 9 3q10 0 10 -11q0 -15 -25 -49q-28 -37 -51 -58q-16 -14 -37 -20q-22 -6 -62 -6q-10 0 -15 1h-19l-52 1h-20 l-64 -559q-18 -168 -55 -259q-37 -94 -120 -184q-95 -104 -203 -158t-223 -54q-76 0 -128 27q-53 26 -53 63q0 13 17 42l60 99q10 16 19 16q13 0 13 -11q0 3 -2 -11q-2 -10 -2 -11q0 -45 55 -79q55 -35 123 -35q76 0 145 25q70 26 99 61q21 26 41.5 87t38.5 153.5t36 236.5z M101 134l65 525h-23q-61 0 -94 -10q-7 -3 -12 -3q-8 0 -8 6q0 8 35 40q29 27 104 83l16 12q1 3 4 15q1 3 1 6l8 45q37 201 203 388q51 56 117 104q68 50 133 78t115 28q25 0 39 -11t14 -31q0 -17 -12 -37l-65 -107q-9 -14 -20 -14t-11 11l1 15q0 22 -27 35t-70 13 q-82 0 -137 -44q-54 -45 -87 -139q-42 -121 -75 -369l148 2q74 0 92 15l7 5q5 3 9 3q10 0 10 -11q0 -15 -25 -49q-28 -37 -51 -58q-16 -14 -37 -20q-22 -6 -62 -6q-10 0 -15 1h-19l-52 1h-20l-64 -559q-18 -168 -55 -259q-37 -94 -120 -184q-95 -104 -203 -158t-223 -54 q-76 0 -128 27q-53 26 -53 63q0 13 17 42l60 99q10 16 19 16q13 0 13 -11q0 3 -2 -11q-2 -10 -2 -11q0 -45 55 -79q55 -35 123 -35q76 0 145 25q70 26 99 61q21 26 41.5 87t38.5 153.5t36 236.5z" />
<glyph unicode="&#xfb04;" horiz-adv-x="1413" d="M1094 48q0 23 6 56l29 159q29 150 58 339l26 162q12 64 24 149q10 67 10 92q0 66 -46 66q-14 0 -38 -10q-28 -11 -35 -11q-11 0 -11 9q0 19 78 50q126 54 171 54q43 0 43 -43q0 -23 -4 -40q0 -5 -7 -40q-3 -15 -4 -23t-3 -14l-5 -26l-5 -25l-50 -294q-10 -67 -18 -114 l-12 -74q-2 -15 -6 -39t-11 -71l-14 -86q-15 -103 -15 -134q0 -24 14 -41q13 -16 35 -16q17 0 53 13q17 6 23 6q14 0 14 -12q0 -17 -44 -32q-19 -8 -137 -44q-52 -16 -71 -16q-48 0 -48 50zM619 134l65 525h-23q-61 0 -94 -10q-7 -3 -12 -3q-8 0 -8 6q0 8 35 40 q29 27 104 83l16 12q1 3 4 15q1 3 1 6l8 45q37 201 203 388q51 56 117 104q68 50 133 78t115 28q25 0 39 -11t14 -31q0 -17 -12 -37l-65 -107q-9 -14 -20 -14t-11 11l1 15q0 22 -27 35t-70 13q-82 0 -137 -44q-54 -45 -87 -139q-42 -121 -75 -369l148 2q74 0 92 15l7 5 q5 3 9 3q10 0 10 -11q0 -15 -25 -49q-28 -37 -51 -58q-16 -14 -37 -20q-22 -6 -62 -6q-10 0 -15 1h-19l-52 1h-20l-64 -559q-18 -168 -55 -259q-37 -94 -120 -184q-95 -104 -203 -158t-223 -54q-76 0 -128 27q-53 26 -53 63q0 13 17 42l60 99q10 16 19 16q13 0 13 -11 q0 3 -2 -11q-2 -10 -2 -11q0 -45 55 -79q55 -35 123 -35q76 0 145 25q70 26 99 61q21 26 41.5 87t38.5 153.5t36 236.5zM101 134l65 525h-23q-61 0 -94 -10q-7 -3 -12 -3q-8 0 -8 6q0 8 35 40q29 27 104 83l16 12q1 3 4 15q1 3 1 6l8 45q37 201 203 388q51 56 117 104 q68 50 133 78t115 28q25 0 39 -11t14 -31q0 -17 -12 -37l-65 -107q-9 -14 -20 -14t-11 11l1 15q0 22 -27 35t-70 13q-82 0 -137 -44q-54 -45 -87 -139q-42 -121 -75 -369l148 2q74 0 92 15l7 5q5 3 9 3q10 0 10 -11q0 -15 -25 -49q-28 -37 -51 -58q-16 -14 -37 -20 q-22 -6 -62 -6q-10 0 -15 1h-19l-52 1h-20l-64 -559q-18 -168 -55 -259q-37 -94 -120 -184q-95 -104 -203 -158t-223 -54q-76 0 -128 27q-53 26 -53 63q0 13 17 42l60 99q10 16 19 16q13 0 13 -11q0 3 -2 -11q-2 -10 -2 -11q0 -45 55 -79q55 -35 123 -35q76 0 145 25 q70 26 99 61q21 26 41.5 87t38.5 153.5t36 236.5z" />
</font>
</defs>
</svg>
